<?xml version="1.0" encoding="UTF-8"?>
<svg xmlns="http://www.w3.org/2000/svg" xmlns:xlink="http://www.w3.org/1999/xlink" width="279px" height="61px" viewBox="0 0 279 61" version="1.1">
<g id="surface1">
<path style=" stroke:none;fill-rule:nonzero;fill:rgb(2.352941%,65.490196%,87.843137%);fill-opacity:1;" d="M 10.59375 3.828125 C 10.695312 2.515625 11.011719 1.21875 11.515625 0 C 13.511719 2.53125 15.9375 4.714844 18.644531 6.457031 C 22.652344 9.046875 27.269531 10.613281 31.972656 11.324219 C 35.246094 11.824219 38.578125 11.925781 41.882812 11.660156 C 42.597656 11.597656 43.3125 11.523438 44.023438 11.40625 C 41.601562 12.675781 39.027344 13.65625 36.375 14.320312 C 31.511719 15.535156 26.394531 15.6875 21.460938 14.820312 C 20.257812 14.605469 19.058594 14.335938 17.894531 13.957031 C 16.511719 13.480469 15.164062 12.851562 14 11.957031 C 12.839844 11.078125 11.875 9.921875 11.292969 8.582031 C 10.632812 7.097656 10.4375 5.4375 10.59375 3.828125 Z M 10.59375 3.828125 "/>
<path style=" stroke:none;fill-rule:nonzero;fill:rgb(2.352941%,65.490196%,87.843137%);fill-opacity:1;" d="M 0.140625 16.292969 C -0.0195312 14.933594 -0.0703125 13.550781 0.136719 12.191406 C 2.234375 13.574219 4.390625 14.882812 6.691406 15.898438 C 9.582031 17.203125 12.648438 18.101562 15.773438 18.632812 C 21.246094 19.566406 26.851562 19.449219 32.347656 18.757812 C 38.210938 18.019531 43.972656 16.617188 49.617188 14.886719 C 47.660156 16.355469 45.59375 17.679688 43.496094 18.933594 C 38.664062 21.792969 33.542969 24.199219 28.164062 25.835938 C 24.210938 27.023438 20.105469 27.765625 15.96875 27.769531 C 13.011719 27.75 10.03125 27.367188 7.222656 26.414062 C 5.757812 25.882812 4.417969 25.015625 3.359375 23.867188 C 2.125 22.535156 1.257812 20.882812 0.746094 19.140625 C 0.449219 18.214844 0.269531 17.253906 0.140625 16.292969 Z M 39.265625 25.359375 C 41.21875 24.164062 43.128906 22.894531 44.941406 21.492188 C 42.152344 25.664062 38.914062 29.570312 35.070312 32.808594 C 33.082031 34.457031 30.9375 35.933594 28.617188 37.074219 C 27.175781 37.777344 25.671875 38.363281 24.101562 38.699219 C 22.605469 38.988281 21.058594 39.082031 19.542969 38.871094 C 18.332031 38.734375 17.136719 38.394531 16.058594 37.820312 C 15.039062 37.277344 14.148438 36.503906 13.480469 35.566406 C 12.578125 34.304688 12.109375 32.785156 11.898438 31.261719 C 13.984375 32.003906 16.207031 32.347656 18.417969 32.335938 C 20.617188 32.347656 22.804688 32.035156 24.9375 31.53125 C 27.492188 30.929688 29.96875 30.035156 32.367188 28.980469 C 34.742188 27.925781 37.042969 26.703125 39.265625 25.359375 Z M 39.265625 25.359375 "/>
<path style=" stroke:none;fill-rule:nonzero;fill:rgb(1.176471%,58.039216%,50.980392%);fill-opacity:1;" d="M 61.316406 6.367188 C 63.84375 6.113281 66.398438 6.074219 68.925781 6.332031 C 70.414062 6.511719 71.910156 6.789062 73.285156 7.410156 C 73.933594 7.710938 74.5625 8.09375 75.042969 8.628906 C 75.515625 9.121094 75.8125 9.773438 75.871094 10.453125 C 75.945312 11.121094 75.789062 11.789062 75.582031 12.421875 C 74.714844 11.605469 73.574219 11.144531 72.433594 10.855469 C 71.539062 10.636719 70.625 10.527344 69.707031 10.492188 C 68.621094 11.820312 66.890625 12.640625 65.164062 12.464844 C 64.246094 12.375 63.378906 11.941406 62.730469 11.296875 C 62.542969 11.117188 62.367188 10.929688 62.191406 10.742188 C 63.691406 11.332031 65.476562 11.195312 66.824219 10.289062 C 64.476562 9.953125 62.101562 9.851562 59.734375 9.824219 C 56.269531 9.808594 52.800781 10.019531 49.359375 10.449219 C 48.246094 10.578125 47.136719 10.757812 46.023438 10.914062 C 48.269531 9.675781 50.6875 8.777344 53.132812 8.023438 C 55.804688 7.242188 58.539062 6.617188 61.316406 6.367188 Z M 62.144531 16.761719 C 66.816406 14.902344 71.878906 13.820312 76.921875 14.207031 C 78.679688 14.355469 80.4375 14.679688 82.070312 15.359375 C 82.902344 15.714844 83.71875 16.203125 84.226562 16.972656 C 84.632812 17.582031 84.765625 18.34375 84.679688 19.0625 C 84.53125 20.183594 84.007812 21.226562 83.328125 22.117188 C 83.214844 21.476562 82.945312 20.839844 82.453125 20.398438 C 81.855469 19.839844 81.023438 19.617188 80.226562 19.542969 C 78.894531 19.433594 77.554688 19.652344 76.261719 19.953125 C 74.703125 20.316406 73.191406 20.859375 71.695312 21.421875 C 69.128906 22.425781 66.625 23.601562 64.203125 24.914062 C 60.53125 27.265625 56.933594 29.734375 53.425781 32.320312 C 50.890625 34.195312 48.40625 36.144531 46.019531 38.203125 C 44.40625 39.601562 42.839844 41.058594 41.359375 42.601562 C 40.269531 43.757812 39.199219 44.953125 38.347656 46.304688 C 39.058594 43.929688 39.882812 41.582031 40.9375 39.335938 C 41.613281 37.972656 42.328125 36.585938 43.414062 35.5 C 41.730469 36.714844 40.1875 38.105469 38.679688 39.527344 C 38.054688 40.160156 37.40625 40.769531 36.792969 41.417969 C 33.957031 44.355469 31.34375 47.503906 28.886719 50.769531 C 28.109375 51.800781 27.355469 52.851562 26.621094 53.910156 C 27.339844 51.863281 28.101562 49.824219 29.007812 47.851562 C 31.0625 43.378906 33.910156 39.308594 37.171875 35.636719 C 38.328125 34.324219 39.535156 33.066406 40.785156 31.84375 C 42.382812 30.261719 44.046875 28.746094 45.753906 27.289062 C 47.722656 25.609375 49.730469 23.96875 51.835938 22.464844 C 55.046875 20.1875 58.492188 18.230469 62.144531 16.761719 Z M 62.144531 16.761719 "/>
<path style=" stroke:none;fill-rule:nonzero;fill:rgb(14.509804%,45.490196%,73.333333%);fill-opacity:1;" d="M 237.175781 22.433594 C 238.507812 21.566406 240.101562 21.203125 241.675781 21.125 C 243.171875 21.046875 244.679688 21.207031 246.128906 21.605469 C 246.785156 21.800781 247.4375 22.054688 248.007812 22.4375 C 248.457031 22.765625 248.835938 23.246094 248.882812 23.816406 C 248.902344 24.171875 248.851562 24.550781 248.664062 24.859375 C 248.164062 25.570312 247.65625 26.277344 247.15625 26.992188 C 246.199219 26.179688 244.976562 25.703125 243.726562 25.640625 C 242.890625 25.585938 242.019531 25.660156 241.273438 26.0625 C 240.902344 26.265625 240.546875 26.527344 240.316406 26.890625 C 239.847656 27.574219 239.726562 28.429688 239.714844 29.242188 C 239.710938 29.957031 239.714844 30.667969 239.714844 31.382812 C 242.144531 31.382812 244.574219 31.382812 247.003906 31.382812 C 247.003906 32.847656 247.003906 34.308594 247.003906 35.773438 C 244.574219 35.773438 242.144531 35.773438 239.71875 35.773438 C 239.710938 41.082031 239.71875 46.386719 239.714844 51.695312 C 237.78125 51.695312 235.847656 51.695312 233.914062 51.695312 C 233.910156 44.34375 233.914062 36.988281 233.914062 29.636719 C 233.921875 27.992188 234.148438 26.296875 234.953125 24.835938 C 235.46875 23.859375 236.246094 23.03125 237.175781 22.433594 Z M 112.558594 21.585938 C 113.410156 21.445312 114.277344 21.414062 115.136719 21.46875 C 115.660156 21.523438 116.199219 21.582031 116.679688 21.8125 C 117.382812 22.128906 117.910156 22.769531 118.160156 23.496094 C 118.328125 24.003906 118.347656 24.542969 118.347656 25.074219 C 118.347656 27.644531 118.347656 30.21875 118.34375 32.789062 C 118.886719 32.269531 119.539062 31.878906 120.210938 31.542969 C 121.441406 30.949219 122.839844 30.867188 124.183594 30.9375 C 125.679688 31.066406 127.210938 31.433594 128.425781 32.351562 C 129.363281 33.03125 130.097656 33.957031 130.617188 34.984375 C 131.160156 36.019531 131.507812 37.152344 131.671875 38.308594 C 131.921875 39.988281 131.90625 41.699219 131.761719 43.390625 C 131.640625 44.5625 131.417969 45.734375 131 46.839844 C 130.617188 47.859375 130.109375 48.839844 129.410156 49.679688 C 128.550781 50.671875 127.4375 51.46875 126.167969 51.847656 C 124.632812 52.324219 122.96875 52.4375 121.398438 52.085938 C 120.0625 51.730469 118.707031 51.128906 117.835938 50.011719 C 117.832031 50.484375 117.703125 50.976562 117.378906 51.335938 C 117.066406 51.636719 116.613281 51.699219 116.195312 51.695312 C 114.980469 51.695312 113.765625 51.695312 112.550781 51.695312 C 112.550781 44.386719 112.550781 37.078125 112.550781 29.769531 C 112.558594 27.042969 112.539062 24.316406 112.558594 21.585938 M 119.816406 35.246094 C 119.210938 35.441406 118.730469 35.929688 118.488281 36.507812 C 118.316406 36.929688 118.347656 37.394531 118.347656 37.839844 C 118.347656 40.710938 118.347656 43.582031 118.347656 46.453125 C 118.960938 46.96875 119.664062 47.410156 120.445312 47.617188 C 121.066406 47.769531 121.714844 47.800781 122.347656 47.730469 C 123.042969 47.648438 123.734375 47.378906 124.234375 46.878906 C 124.773438 46.375 125.082031 45.683594 125.316406 44.992188 C 125.761719 43.5625 125.828125 42.042969 125.800781 40.558594 C 125.730469 39.222656 125.570312 37.824219 124.835938 36.675781 C 124.28125 35.789062 123.316406 35.191406 122.285156 35.0625 C 121.460938 34.96875 120.609375 34.992188 119.816406 35.246094 Z M 226.746094 21.582031 C 228.050781 21.421875 229.417969 22.160156 229.945312 23.375 C 230.367188 24.382812 230.285156 25.628906 229.628906 26.519531 C 229.253906 26.992188 228.753906 27.375 228.179688 27.574219 C 227.074219 27.945312 225.746094 27.742188 224.890625 26.917969 C 224.433594 26.484375 224.117188 25.898438 224.023438 25.273438 C 223.894531 24.460938 224.015625 23.582031 224.492188 22.898438 C 224.988281 22.144531 225.847656 21.65625 226.746094 21.582031 Z M 253.191406 21.59375 C 254.289062 21.4375 255.460938 21.878906 256.132812 22.773438 C 256.558594 23.308594 256.746094 23.996094 256.742188 24.671875 C 256.75 25.378906 256.539062 26.105469 256.070312 26.644531 C 255.320312 27.5625 254.035156 27.933594 252.894531 27.675781 C 251.730469 27.449219 250.738281 26.460938 250.574219 25.273438 C 250.449219 24.5 250.554688 23.667969 250.972656 22.996094 C 251.453125 22.226562 252.289062 21.691406 253.191406 21.59375 Z M 81.238281 31.121094 C 82.925781 30.796875 84.683594 30.867188 86.355469 31.253906 C 87.570312 31.539062 88.765625 32.023438 89.722656 32.84375 C 90.070312 33.140625 90.347656 33.535156 90.425781 33.992188 C 90.550781 34.652344 90.328125 35.316406 90.066406 35.917969 C 89.808594 36.476562 89.492188 37.007812 89.101562 37.480469 C 88.664062 37.027344 88.148438 36.664062 87.617188 36.335938 C 87.078125 36.003906 86.507812 35.714844 85.898438 35.550781 C 84.941406 35.277344 83.921875 35.257812 82.9375 35.402344 C 81.902344 35.566406 80.867188 36.050781 80.234375 36.917969 C 79.417969 38.019531 79.054688 39.398438 78.976562 40.753906 C 78.910156 41.96875 78.992188 43.207031 79.304688 44.386719 C 79.605469 45.507812 80.242188 46.582031 81.222656 47.234375 C 81.828125 47.65625 82.546875 47.890625 83.273438 47.972656 C 84 48.050781 84.742188 48.042969 85.457031 47.894531 C 86.742188 47.613281 87.964844 46.96875 88.84375 45.976562 C 89.253906 46.445312 89.566406 46.992188 89.839844 47.546875 C 90.078125 48.050781 90.289062 48.589844 90.285156 49.15625 C 90.273438 49.605469 90.148438 50.085938 89.820312 50.414062 C 89.308594 50.957031 88.621094 51.289062 87.945312 51.582031 C 86.828125 52.074219 85.613281 52.324219 84.398438 52.382812 C 82.824219 52.492188 81.230469 52.328125 79.710938 51.914062 C 78.515625 51.601562 77.417969 50.988281 76.460938 50.21875 C 75.445312 49.375 74.675781 48.269531 74.101562 47.085938 C 73.5 45.828125 73.230469 44.433594 73.125 43.046875 C 73.003906 41.328125 73.050781 39.578125 73.5 37.90625 C 73.835938 36.632812 74.488281 35.457031 75.3125 34.4375 C 76.046875 33.507812 76.996094 32.765625 78.03125 32.199219 C 79.019531 31.640625 80.121094 31.316406 81.238281 31.121094 Z M 96.984375 31.78125 C 98.421875 31.164062 99.996094 30.878906 101.5625 30.921875 C 103 30.953125 104.472656 31.195312 105.753906 31.886719 C 106.925781 32.476562 107.929688 33.390625 108.617188 34.511719 C 109.710938 36.265625 110.023438 38.390625 109.996094 40.425781 C 109.976562 41.148438 109.964844 41.878906 109.867188 42.597656 C 105.675781 42.597656 101.484375 42.597656 97.289062 42.597656 C 97.386719 44.078125 97.886719 45.578125 98.90625 46.679688 C 99.621094 47.464844 100.671875 47.859375 101.707031 47.992188 C 102.574219 48.089844 103.457031 48.101562 104.3125 47.921875 C 105.335938 47.683594 106.328125 47.25 107.152344 46.589844 C 107.484375 46.324219 107.796875 46.039062 108.113281 45.761719 C 108.511719 46.269531 108.855469 46.820312 109.167969 47.382812 C 109.410156 47.835938 109.640625 48.308594 109.722656 48.820312 C 109.8125 49.410156 109.527344 49.996094 109.101562 50.390625 C 108.320312 51.132812 107.304688 51.5625 106.292969 51.878906 C 104.664062 52.378906 102.9375 52.472656 101.246094 52.378906 C 99.664062 52.257812 98.066406 51.96875 96.632812 51.265625 C 95.5625 50.71875 94.585938 49.976562 93.828125 49.039062 C 93.148438 48.191406 92.621094 47.222656 92.238281 46.207031 C 91.722656 44.78125 91.527344 43.257812 91.496094 41.746094 C 91.453125 40.113281 91.605469 38.449219 92.199219 36.917969 C 92.65625 35.78125 93.277344 34.699219 94.121094 33.808594 C 94.925781 32.949219 95.90625 32.257812 96.984375 31.78125 M 99.75 35.015625 C 99.066406 35.25 98.476562 35.71875 98.0625 36.308594 C 97.445312 37.207031 97.242188 38.328125 97.246094 39.40625 C 99.746094 39.40625 102.246094 39.402344 104.75 39.40625 C 104.726562 38.46875 104.625 37.511719 104.242188 36.644531 C 104.070312 36.28125 103.890625 35.914062 103.597656 35.628906 C 103.152344 35.183594 102.535156 34.949219 101.921875 34.855469 C 101.199219 34.753906 100.445312 34.773438 99.75 35.015625 Z M 172.386719 31.210938 C 173.714844 30.847656 175.136719 30.828125 176.488281 31.085938 C 177.777344 31.339844 179.007812 31.933594 179.957031 32.855469 C 180.980469 33.816406 181.628906 35.109375 182.074219 36.425781 C 182.507812 37.777344 182.660156 39.203125 182.695312 40.621094 C 182.714844 42.265625 182.636719 43.929688 182.257812 45.539062 C 181.976562 46.671875 181.546875 47.777344 180.933594 48.777344 C 180.21875 49.953125 179.171875 50.925781 177.941406 51.542969 C 176.664062 52.128906 175.242188 52.375 173.84375 52.324219 C 172.605469 52.28125 171.390625 51.902344 170.320312 51.285156 C 169.875 51.039062 169.503906 50.675781 169.179688 50.292969 C 169.195312 53.859375 169.183594 57.429688 169.1875 60.996094 C 167.253906 61 165.320312 60.996094 163.386719 61 C 163.382812 51.167969 163.386719 41.339844 163.382812 31.511719 C 164.429688 31.3125 165.515625 31.273438 166.570312 31.449219 C 167.261719 31.585938 167.988281 31.824219 168.460938 32.375 C 168.71875 32.652344 168.855469 33.011719 168.964844 33.367188 C 169.289062 33.074219 169.582031 32.742188 169.949219 32.496094 C 170.695312 31.957031 171.488281 31.449219 172.386719 31.210938 M 170.660156 35.507812 C 170.054688 35.703125 169.582031 36.210938 169.351562 36.796875 C 169.207031 37.171875 169.226562 37.578125 169.226562 37.972656 C 169.230469 40.8125 169.222656 43.65625 169.230469 46.496094 C 169.871094 47.023438 170.613281 47.46875 171.429688 47.65625 C 172.472656 47.867188 173.628906 47.789062 174.542969 47.207031 C 175.222656 46.769531 175.6875 46.066406 175.988281 45.328125 C 176.570312 43.882812 176.667969 42.296875 176.632812 40.753906 C 176.570312 39.453125 176.40625 38.097656 175.726562 36.957031 C 175.1875 36.039062 174.191406 35.4375 173.144531 35.3125 C 172.316406 35.222656 171.457031 35.238281 170.660156 35.507812 Z M 190.65625 31.191406 C 192.453125 30.867188 194.296875 30.832031 196.109375 31.054688 C 197.558594 31.246094 199.050781 31.683594 200.160156 32.683594 C 201.070312 33.480469 201.628906 34.617188 201.882812 35.789062 C 202.28125 37.480469 202.164062 39.226562 202.183594 40.949219 C 202.1875 43.066406 202.167969 45.1875 202.195312 47.304688 C 202.246094 48.792969 202.394531 50.351562 203.167969 51.660156 C 202.472656 51.90625 201.757812 52.121094 201.019531 52.171875 C 200.113281 52.234375 199.148438 52.21875 198.324219 51.789062 C 197.613281 51.417969 197.171875 50.675781 197.027344 49.902344 C 195.570312 51.359375 193.53125 52.164062 191.484375 52.222656 C 189.882812 52.324219 188.199219 52.058594 186.828125 51.175781 C 185.949219 50.632812 185.277344 49.796875 184.839844 48.871094 C 184.457031 48.050781 184.308594 47.140625 184.285156 46.246094 C 184.238281 44.996094 184.472656 43.6875 185.195312 42.644531 C 185.859375 41.726562 186.734375 40.957031 187.738281 40.433594 C 188.988281 39.765625 190.363281 39.367188 191.761719 39.167969 C 193.375 38.921875 195.007812 38.78125 196.640625 38.800781 C 196.640625 38.101562 196.683594 37.382812 196.453125 36.714844 C 196.289062 36.191406 195.917969 35.730469 195.429688 35.480469 C 194.75 35.128906 193.96875 35.039062 193.214844 35.015625 C 192.394531 35.003906 191.566406 35.058594 190.769531 35.257812 C 190.082031 35.410156 189.4375 35.703125 188.804688 36 C 188.140625 36.28125 187.519531 36.644531 186.878906 36.964844 C 186.378906 36.363281 186.007812 35.664062 185.746094 34.929688 C 185.597656 34.507812 185.457031 34.023438 185.667969 33.597656 C 185.945312 33.035156 186.496094 32.679688 187.027344 32.378906 C 188.15625 31.773438 189.40625 31.433594 190.65625 31.191406 M 194.609375 41.929688 C 193.648438 42.050781 192.667969 42.164062 191.785156 42.585938 C 190.914062 42.992188 190.097656 43.695312 189.847656 44.65625 C 189.625 45.570312 189.730469 46.605469 190.285156 47.386719 C 190.605469 47.90625 191.183594 48.203125 191.765625 48.316406 C 192.984375 48.542969 194.277344 48.332031 195.359375 47.734375 C 195.804688 47.503906 196.207031 47.171875 196.503906 46.761719 C 196.652344 46.554688 196.734375 46.296875 196.726562 46.039062 C 196.722656 44.625 196.726562 43.210938 196.726562 41.796875 C 196.015625 41.769531 195.3125 41.859375 194.609375 41.929688 Z M 213.90625 31.015625 C 215.425781 30.816406 216.984375 30.921875 218.476562 31.277344 C 219.710938 31.582031 220.933594 32.09375 221.878906 32.96875 C 222.417969 33.449219 222.585938 34.238281 222.421875 34.925781 C 222.199219 35.863281 221.71875 36.730469 221.121094 37.480469 C 220.789062 37.152344 220.429688 36.851562 220.039062 36.597656 C 219.382812 36.15625 218.683594 35.757812 217.917969 35.550781 C 216.957031 35.277344 215.9375 35.257812 214.957031 35.402344 C 214.027344 35.550781 213.105469 35.953125 212.464844 36.65625 C 211.640625 37.613281 211.222656 38.859375 211.054688 40.09375 C 210.929688 41.125 210.949219 42.171875 211.085938 43.199219 C 211.222656 44.273438 211.542969 45.355469 212.199219 46.230469 C 212.886719 47.1875 213.996094 47.808594 215.160156 47.953125 C 217.226562 48.273438 219.457031 47.550781 220.859375 45.976562 C 221.285156 46.457031 221.601562 47.019531 221.882812 47.59375 C 222.105469 48.085938 222.3125 48.605469 222.308594 49.152344 C 222.300781 49.65625 222.128906 50.175781 221.742188 50.515625 C 221.152344 51.074219 220.390625 51.410156 219.648438 51.714844 C 218.582031 52.148438 217.433594 52.335938 216.289062 52.390625 C 214.582031 52.496094 212.855469 52.277344 211.222656 51.765625 C 210.066406 51.359375 208.996094 50.710938 208.097656 49.878906 C 207.230469 49.046875 206.5625 48.03125 206.054688 46.949219 C 205.5 45.730469 205.246094 44.394531 205.144531 43.0625 C 205.023438 41.324219 205.070312 39.546875 205.53125 37.859375 C 205.871094 36.585938 206.53125 35.417969 207.359375 34.402344 C 208.089844 33.488281 209.027344 32.757812 210.050781 32.199219 C 211.230469 31.527344 212.574219 31.203125 213.90625 31.015625 Z M 267.320312 31.210938 C 268.878906 30.855469 270.503906 30.832031 272.082031 31.089844 C 273.433594 31.324219 274.785156 31.742188 275.90625 32.5625 C 276.285156 32.835938 276.660156 33.160156 276.84375 33.605469 C 277.097656 34.179688 277.007812 34.84375 276.804688 35.417969 C 276.539062 36.167969 276.136719 36.863281 275.640625 37.480469 C 275.078125 36.910156 274.40625 36.472656 273.714844 36.078125 C 272.488281 35.382812 271.027344 35.191406 269.640625 35.378906 C 268.640625 35.507812 267.636719 35.917969 266.960938 36.6875 C 266.144531 37.644531 265.734375 38.882812 265.574219 40.117188 C 265.441406 41.199219 265.476562 42.300781 265.632812 43.378906 C 265.777344 44.429688 266.121094 45.476562 266.785156 46.316406 C 267.472656 47.21875 268.53125 47.804688 269.648438 47.949219 C 271.726562 48.277344 273.972656 47.558594 275.382812 45.976562 C 275.859375 46.527344 276.214844 47.171875 276.511719 47.835938 C 276.761719 48.417969 276.933594 49.082031 276.746094 49.707031 C 276.65625 50.09375 276.402344 50.417969 276.101562 50.664062 C 275.488281 51.15625 274.757812 51.484375 274.027344 51.765625 C 272.738281 52.273438 271.339844 52.40625 269.96875 52.414062 C 269.074219 52.425781 268.1875 52.320312 267.308594 52.160156 C 265.980469 51.925781 264.679688 51.449219 263.585938 50.652344 C 262.546875 49.957031 261.714844 48.992188 261.089844 47.921875 C 260.363281 46.730469 259.941406 45.375 259.761719 43.996094 C 259.574219 42.503906 259.546875 40.984375 259.730469 39.488281 C 259.898438 38.085938 260.328125 36.699219 261.089844 35.503906 C 261.769531 34.414062 262.644531 33.425781 263.726562 32.722656 C 264.796875 31.964844 266.035156 31.464844 267.320312 31.210938 Z M 134.773438 31.46875 C 135.304688 31.457031 135.828125 31.351562 136.363281 31.34375 C 137.339844 31.320312 138.355469 31.445312 139.222656 31.929688 C 139.640625 32.128906 139.980469 32.476562 140.195312 32.882812 C 140.46875 33.40625 140.558594 34.011719 140.566406 34.597656 C 140.578125 37.617188 140.554688 40.640625 140.578125 43.660156 C 140.613281 44.445312 140.597656 45.261719 140.890625 46.003906 C 141.027344 46.382812 141.277344 46.722656 141.609375 46.945312 C 142.082031 47.28125 142.671875 47.386719 143.234375 47.414062 C 144.390625 47.46875 145.597656 47.257812 146.566406 46.597656 C 147.046875 46.265625 147.449219 45.730469 147.433594 45.121094 C 147.433594 40.570312 147.441406 36.019531 147.433594 31.46875 C 148.703125 31.339844 150.03125 31.203125 151.257812 31.65625 C 152.019531 31.929688 152.652344 32.519531 152.964844 33.269531 C 153.199219 33.8125 153.242188 34.414062 153.238281 34.996094 C 153.238281 40.5625 153.238281 46.128906 153.234375 51.695312 C 151.972656 51.695312 150.710938 51.695312 149.449219 51.695312 C 149.054688 51.683594 148.628906 51.664062 148.292969 51.433594 C 148.0625 51.273438 147.941406 51 147.878906 50.738281 C 147.765625 50.3125 147.738281 49.867188 147.734375 49.429688 C 147.203125 50.113281 146.511719 50.65625 145.761719 51.085938 C 144.976562 51.582031 144.0625 51.839844 143.148438 51.96875 C 128.808594 51.96875 117.183594 40.332031 117.1875 25.980469 C 117.1875 11.632812 128.816406 0 143.15625 0 C 142.183594 -0.128906 141.203125 -0.402344 140.410156 -0.996094 C 139.433594 -1.730469 138.753906 -2.824219 138.464844 -4.007812 C 138.140625 -5.351562 138.089844 -6.738281 138.070312 -8.113281 C 138.054688 -12.246094 138.066406 -16.375 138.0625 -20.507812 Z M 224.363281 31.492188 C 225.164062 31.351562 225.984375 31.316406 226.800781 31.359375 C 227.5 31.410156 228.230469 31.515625 228.832031 31.902344 C 229.414062 32.253906 229.835938 32.84375 230.011719 33.5 C 230.15625 34.007812 230.160156 34.539062 230.160156 35.0625 C 230.15625 40.699219 230.171875 46.332031 230.152344 51.96875 C 229.246094 52.148438 228.3125 52.136719 227.390625 52.089844 C 226.828125 52.023438 226.246094 51.949219 225.753906 51.65625 C 225.097656 51.28125 224.664062 50.597656 224.496094 49.875 C 224.371094 49.359375 224.359375 48.828125 224.359375 48.300781 C 224.363281 42.699219 224.355469 37.09375 224.363281 31.492188 Z M 250.90625 31.492188 C 251.722656 31.355469 252.550781 31.3125 253.375 31.359375 C 254.007812 31.410156 254.660156 31.5 255.226562 31.8125 C 255.890625 32.160156 256.378906 32.808594 256.566406 33.53125 C 256.71875 34.09375 256.703125 34.683594 256.703125 35.261719 C 256.703125 40.828125 256.703125 46.394531 256.707031 51.957031 C 256.09375 52.117188 255.457031 52.097656 254.832031 52.121094 C 254.074219 52.113281 253.292969 52.082031 252.582031 51.796875 C 252.003906 51.558594 251.535156 51.089844 251.273438 50.523438 C 250.957031 49.871094 250.90625 49.136719 250.90625 48.425781 C 250.90625 42.78125 250.90625 37.136719 250.90625 31.492188 Z M 250.90625 31.492188 "/>
</g>
</svg>
