<?xml version="1.0" encoding="UTF-8"?>
<svg xmlns="http://www.w3.org/2000/svg" xmlns:xlink="http://www.w3.org/1999/xlink" width="279px" height="76px" viewBox="0 0 279 76" version="1.1">
<g id="surface1">
<path style=" stroke:none;fill-rule:evenodd;fill:rgb(0%,10.588235%,58.039216%);fill-opacity:1;" d="M 206.242188 66.824219 C 199.070312 72.941406 190.625 76 180.925781 76 C 170.519531 76 161.507812 72.335938 153.917969 65.027344 C 146.394531 57.644531 142.625 48.660156 142.625 38.109375 C 142.625 27.558594 146.394531 18.570312 153.917969 11.183594 C 161.503906 3.734375 170.515625 0 180.925781 0 C 187.085938 0 192.5 1.011719 197.160156 3.0625 C 201.820312 5.039062 206.519531 8.414062 211.265625 13.167969 L 211.65625 13.554688 L 204.363281 21.425781 L 203.945312 21.078125 C 199.3125 17.199219 195.746094 14.601562 193.234375 13.242188 C 189.511719 11.277344 185.414062 10.292969 180.925781 10.292969 C 173.179688 10.292969 166.746094 13.007812 161.59375 18.433594 C 156.429688 23.871094 153.851562 30.414062 153.851562 38.109375 C 153.851562 45.726562 156.429688 52.238281 161.59375 57.675781 C 166.746094 63.105469 173.179688 65.8125 180.925781 65.8125 C 188.085938 65.816406 194.117188 63.742188 199.0625 59.609375 C 204.191406 55.335938 206.820312 49.859375 206.957031 43.152344 L 181.703125 43.152344 L 181.703125 32.960938 L 218.296875 32.957031 L 218.296875 39.664062 C 218.296875 50.910156 214.285156 59.980469 206.242188 66.824219 Z M 269.238281 68.359375 C 264.070312 73.3125 257.863281 75.792969 250.648438 75.792969 C 243.503906 75.792969 237.332031 73.308594 232.167969 68.359375 C 226.992188 63.390625 224.402344 57.070312 224.402344 49.4375 C 224.402344 41.878906 226.957031 35.59375 232.0625 30.628906 C 237.226562 25.601562 243.433594 23.082031 250.648438 23.082031 C 257.796875 23.082031 263.964844 25.597656 269.132812 30.625 C 274.378906 35.589844 277 41.875 277 49.4375 C 277 57.070312 274.417969 63.390625 269.238281 68.359375 Z M 261.878906 37.464844 C 258.945312 34.394531 255.21875 32.855469 250.648438 32.855469 C 246.011719 32.855469 242.25 34.394531 239.320312 37.464844 C 236.457031 40.453125 235.007812 44.429688 235.007812 49.4375 C 235.007812 54.378906 236.492188 58.351562 239.421875 61.417969 C 242.355469 64.484375 246.082031 66.023438 250.648438 66.023438 C 255.21875 66.023438 258.945312 64.484375 261.878906 61.417969 C 264.808594 58.351562 266.292969 54.375 266.292969 49.4375 C 266.292969 44.503906 264.808594 40.53125 261.878906 37.464844 Z M 134.90625 17.808594 C 133.863281 18.996094 132.339844 19.550781 130.433594 19.546875 C 128.640625 19.550781 127.125 18.96875 125.964844 17.808594 C 124.894531 16.589844 124.351562 15.121094 124.351562 13.464844 C 124.351562 11.808594 124.886719 10.378906 125.960938 9.230469 C 127.0625 8.046875 128.578125 7.484375 130.433594 7.484375 C 132.230469 7.484375 133.707031 8.089844 134.800781 9.332031 C 135.933594 10.472656 136.515625 11.859375 136.515625 13.464844 C 136.515625 15.183594 135.984375 16.644531 134.90625 17.808594 Z M 125.289062 74.757812 L 125.289062 24.121094 L 135.578125 24.121094 L 135.578125 74.757812 Z M 111.019531 68.128906 C 106.261719 73.242188 100.113281 75.792969 92.621094 75.792969 C 84.710938 75.792969 78.28125 73.070312 73.382812 67.597656 C 68.769531 62.421875 66.476562 55.9375 66.476562 48.1875 C 66.476562 41.1875 68.855469 35.25 73.609375 30.429688 C 78.425781 25.539062 84.179688 23.082031 90.851562 23.082031 C 96.136719 23.082031 100.914062 24.246094 105.160156 26.582031 L 105.457031 26.75 L 105.457031 37.730469 L 104.566406 37.125 C 102.878906 35.980469 100.871094 34.988281 98.554688 34.167969 C 96.316406 33.289062 94.265625 32.855469 92.414062 32.855469 C 87.625 32.855469 83.832031 34.371094 80.976562 37.359375 C 78.117188 40.355469 76.667969 44.320312 76.667969 49.335938 C 76.667969 54.269531 78.144531 58.285156 81.085938 61.421875 C 84.085938 64.484375 87.914062 66.023438 92.621094 66.023438 C 97.027344 66.023438 100.648438 64.359375 103.519531 61.023438 C 106.441406 57.695312 107.949219 52.824219 107.949219 46.320312 L 107.949219 1.246094 L 118.238281 1.246094 L 118.238281 47.984375 C 118.238281 56.207031 115.847656 62.945312 111.019531 68.128906 Z M 50.078125 74.753906 L 50.078125 45.28125 C 50.078125 41.667969 48.941406 38.726562 46.695312 36.417969 C 44.523438 34.042969 41.828125 32.855469 38.589844 32.855469 C 35.5 32.855469 32.804688 34.03125 30.476562 36.425781 C 28.238281 38.734375 27.105469 41.667969 27.105469 45.28125 L 27.105469 74.753906 L 16.921875 74.753906 L 16.921875 45.28125 C 16.921875 38.777344 18.941406 33.425781 23.007812 29.285156 C 27.078125 25.140625 32.289062 23.082031 38.589844 23.082031 C 44.828125 23.082031 50.039062 25.144531 54.171875 29.28125 C 58.3125 33.421875 60.367188 38.773438 60.367188 45.28125 L 60.367188 74.753906 Z M 0 74.753906 L 0 1.246094 L 10.808594 1.246094 L 10.808594 74.753906 Z M 0 74.753906 "/>
</g>
</svg>
