<?xml version="1.0" encoding="UTF-8"?>
<svg xmlns="http://www.w3.org/2000/svg" xmlns:xlink="http://www.w3.org/1999/xlink" width="279px" height="51px" viewBox="0 0 279 51" version="1.1">
<g id="surface1">
<path style=" stroke:none;fill-rule:nonzero;fill:rgb(0%,65.490196%,88.235294%);fill-opacity:1;" d="M 229.757812 11.449219 L 250.984375 0.136719 L 234.300781 0.0898438 Z M 229.757812 11.449219 "/>
<path style=" stroke:none;fill-rule:nonzero;fill:rgb(94.509804%,35.294118%,13.333333%);fill-opacity:1;" d="M 77.851562 40.015625 L 58.019531 40.015625 L 61.449219 31.390625 L 79.152344 31.390625 L 82.859375 21.742188 L 65.0625 21.742188 L 68.816406 12.238281 L 86.519531 12.238281 L 90.550781 1.941406 L 57.136719 1.941406 L 39.066406 50.402344 L 73.820312 50.402344 Z M 77.851562 40.015625 "/>
<path style=" stroke:none;fill-rule:nonzero;fill:rgb(94.509804%,35.294118%,13.333333%);fill-opacity:1;" d="M 83.273438 40.015625 L 79.152344 50.449219 C 88.324219 51.421875 96.15625 50.355469 96.15625 50.355469 C 101.578125 49.84375 110.707031 48.082031 115.621094 36.257812 L 129.335938 1.941406 L 113.675781 1.941406 L 101.671875 31.621094 C 101.671875 31.621094 99.773438 38.066406 92.914062 39.78125 C 90.457031 40.429688 86.007812 40.152344 83.273438 40.015625 "/>
<path style=" stroke:none;fill-rule:nonzero;fill:rgb(94.509804%,35.294118%,13.333333%);fill-opacity:1;" d="M 4.125 40.015625 L 0 50.449219 C 9.175781 51.421875 16.960938 50.355469 16.960938 50.355469 C 22.382812 49.84375 31.511719 48.082031 36.425781 36.257812 L 50.140625 1.941406 L 34.429688 1.941406 L 22.429688 31.621094 C 22.429688 31.621094 20.527344 38.066406 13.671875 39.78125 C 11.308594 40.429688 6.8125 40.152344 4.125 40.015625 "/>
<path style=" stroke:none;fill-rule:nonzero;fill:rgb(94.509804%,35.294118%,13.333333%);fill-opacity:1;" d="M 162.84375 1.941406 L 151.351562 33.011719 C 148.617188 39.96875 146.113281 40.339844 142.3125 40.339844 C 137.863281 40.339844 138.976562 36.675781 139.578125 34.542969 L 151.859375 1.941406 L 136.335938 1.941406 L 123.683594 36.027344 C 119.28125 48.175781 129.335938 50.726562 134.296875 50.726562 L 142.40625 50.726562 C 146.855469 50.726562 160.851562 49.519531 165.113281 38.066406 L 178.460938 1.988281 L 162.84375 1.988281 Z M 162.84375 1.941406 "/>
<path style=" stroke:none;fill-rule:nonzero;fill:rgb(94.509804%,35.294118%,13.333333%);fill-opacity:1;" d="M 243.335938 12.332031 L 229.296875 12.332031 L 214.929688 50.863281 L 229.015625 50.863281 Z M 243.335938 12.332031 "/>
<path style=" stroke:none;fill-rule:nonzero;fill:rgb(94.509804%,35.294118%,13.333333%);fill-opacity:1;" d="M 275.035156 12.332031 C 267.480469 12.332031 263.078125 16.6875 260.761719 19.472656 L 263.589844 12.332031 L 249.546875 12.332031 L 235.179688 50.863281 L 249.269531 50.863281 L 256.128906 32.59375 C 259.648438 24.386719 267.15625 23.878906 268.453125 23.878906 L 273.78125 23.878906 L 278 12.332031 Z M 275.035156 12.332031 "/>
<path style=" stroke:none;fill-rule:nonzero;fill:rgb(94.509804%,35.294118%,13.333333%);fill-opacity:1;" d="M 200.238281 37 C 200.238281 37 198.386719 42.703125 190.414062 42.703125 C 189.210938 42.703125 187.542969 42.007812 187.820312 39.828125 C 188.097656 37.417969 189.675781 36.488281 191.667969 36.074219 L 201.257812 34.265625 Z M 189.628906 29.117188 C 180.683594 30.089844 173.5 34.171875 172.574219 41.824219 C 172.109375 45.625 173.964844 50.863281 184.019531 50.863281 C 184.019531 50.863281 191.574219 51.144531 196.253906 47.945312 L 195.140625 50.910156 L 208.90625 50.910156 L 218.359375 25.035156 L 218.867188 23.691406 C 220.167969 20.167969 220.121094 12.375 203.53125 12.007812 C 196.53125 11.867188 185.085938 13.210938 178.320312 25.035156 L 192.039062 25.035156 C 192.039062 25.035156 193.984375 19.980469 200.285156 19.980469 C 200.285156 19.980469 204.226562 19.796875 204.550781 22.394531 C 204.550781 22.394531 205.011719 26.195312 199.21875 27.632812 C 195.835938 28.421875 189.628906 29.117188 189.628906 29.117188 "/>
</g>
</svg>
