<?xml version="1.0" encoding="UTF-8"?>
<svg xmlns="http://www.w3.org/2000/svg" xmlns:xlink="http://www.w3.org/1999/xlink" width="279px" height="24px" viewBox="0 0 279 24" version="1.1">
<defs>
<linearGradient id="linear0" gradientUnits="userSpaceOnUse" x1="374.749" y1="0.2959" x2="374.749" y2="34.1284" gradientTransform="matrix(0.6966,0,0,0.697472,1.681428,-0.206452)">
<stop offset="0.3352" style="stop-color:rgb(100%,11.764706%,15.294118%);stop-opacity:1;"/>
<stop offset="0.6915" style="stop-color:rgb(90.980392%,10.588235%,13.72549%);stop-opacity:1;"/>
<stop offset="0.7841" style="stop-color:rgb(65.098039%,7.45098%,9.803922%);stop-opacity:1;"/>
<stop offset="0.8719" style="stop-color:rgb(61.568627%,7.058824%,9.411765%);stop-opacity:1;"/>
<stop offset="0.9551" style="stop-color:rgb(57.647059%,6.666667%,8.627451%);stop-opacity:1;"/>
<stop offset="1" style="stop-color:rgb(50.196078%,5.882353%,7.843137%);stop-opacity:1;"/>
</linearGradient>
</defs>
<g id="surface1">
<path style=" stroke:none;fill-rule:nonzero;fill:rgb(92.941176%,10.980392%,14.117647%);fill-opacity:1;" d="M 265.300781 0 L 252.796875 18.117188 C 251.148438 20.5 248.476562 22.792969 245.25 23.042969 L 245.25 23.597656 L 259.160156 23.597656 C 262.851562 23.597656 265.546875 21.191406 267.371094 18.539062 L 280.210938 0 Z M 265.300781 0 "/>
<path style=" stroke:none;fill-rule:nonzero;fill:url(#linear0);" d="M 265.300781 0 L 252.796875 18.113281 C 251.148438 20.5 248.476562 22.792969 245.25 23.039062 L 245.25 23.597656 L 259.160156 23.597656 C 262.851562 23.597656 265.546875 21.191406 267.371094 18.539062 L 280.210938 0 Z M 265.300781 0 "/>
<path style=" stroke:none;fill-rule:nonzero;fill:rgb(0%,12.941176%,34.117647%);fill-opacity:1;" d="M 34.984375 23.597656 L 34.984375 1.992188 L 41.28125 1.992188 L 41.28125 23.597656 Z M 180.199219 23.597656 L 165.066406 10.765625 L 165.066406 23.597656 L 159.75 23.597656 L 159.75 1.992188 L 164.269531 1.992188 L 179.195312 14.621094 L 179.195312 1.992188 L 184.515625 1.992188 L 184.515625 23.597656 Z M 213.101562 8.960938 C 210.253906 7.558594 207.050781 6.421875 202.800781 6.421875 C 197.726562 6.421875 193.945312 9.050781 193.945312 12.703125 C 193.945312 16.449219 197.792969 19.097656 202.753906 19.097656 C 206.847656 19.097656 210.097656 18.050781 213.304688 16.203125 L 213.304688 21.546875 C 210.476562 22.953125 206.714844 23.996094 202.492188 23.996094 C 193.855469 23.996094 187.070312 19.585938 187.070312 12.703125 C 187.070312 5.933594 193.992188 1.589844 202.46875 1.589844 C 206.472656 1.589844 210.097656 2.34375 213.101562 3.570312 Z M 76.320312 23.597656 L 76.320312 1.992188 L 97.367188 1.992188 L 97.367188 6.621094 L 82.617188 6.621094 L 82.617188 11.992188 L 97.035156 11.992188 L 97.035156 16.625 L 82.617188 16.625 L 82.617188 23.597656 Z M 216.90625 23.597656 L 216.90625 1.992188 L 238.753906 1.992188 L 238.753906 6.621094 L 223.203125 6.621094 L 223.203125 10.367188 L 238.507812 10.367188 L 238.507812 15 L 223.203125 15 L 223.203125 18.960938 L 238.6875 18.960938 L 238.6875 23.597656 Z M 119.238281 15.488281 L 127.9375 23.597656 L 121.21875 23.597656 C 119.726562 23.597656 118.75 23.128906 117.96875 22.371094 L 112.050781 16.625 C 111.9375 16.511719 111.761719 16.449219 111.539062 16.449219 L 107.511719 16.449219 L 107.511719 23.597656 L 101.214844 23.597656 L 101.214844 1.992188 L 114.855469 1.992188 C 121.929688 1.992188 124.914062 5.175781 124.914062 8.695312 C 124.910156 12.792969 121.261719 14.753906 119.238281 15.488281 Z M 114.207031 11.925781 C 116.703125 11.925781 117.902344 10.652344 117.902344 9.230469 C 117.902344 7.804688 116.835938 6.621094 114.207031 6.621094 L 107.511719 6.621094 L 107.511719 11.925781 Z M 65.199219 15.488281 L 73.898438 23.597656 L 67.179688 23.597656 C 65.6875 23.597656 64.707031 23.128906 63.929688 22.371094 L 58.011719 16.625 C 57.902344 16.511719 57.722656 16.449219 57.5 16.449219 L 53.472656 16.449219 L 53.472656 23.597656 L 47.175781 23.597656 L 47.175781 1.992188 L 60.816406 1.992188 C 67.890625 1.992188 70.871094 5.175781 70.871094 8.695312 C 70.871094 12.792969 67.222656 14.753906 65.199219 15.488281 Z M 60.171875 11.925781 C 62.660156 11.925781 63.863281 10.652344 63.863281 9.230469 C 63.863281 7.804688 62.792969 6.621094 60.171875 6.621094 L 53.472656 6.621094 L 53.472656 11.925781 Z M 25.132812 23.597656 L 22.371094 18.851562 L 10.3125 18.851562 L 7.800781 23.597656 L 1.792969 23.597656 L 13.804688 2.011719 L 19.277344 2.011719 L 32.894531 23.597656 Z M 12.714844 14.355469 L 19.742188 14.355469 L 16.09375 7.757812 Z M 150.851562 23.597656 L 148.160156 18.851562 L 136.414062 18.851562 L 133.988281 23.597656 L 128.136719 23.597656 L 139.839844 2.011719 L 145.15625 2.011719 L 158.394531 23.597656 Z M 138.773438 14.355469 L 145.625 14.355469 L 142.0625 7.757812 Z M 138.773438 14.355469 "/>
</g>
</svg>
