<?xml version="1.0" encoding="UTF-8"?>
<svg xmlns="http://www.w3.org/2000/svg" xmlns:xlink="http://www.w3.org/1999/xlink" width="279px" height="64px" viewBox="0 0 279 64" version="1.1">
<defs>
<linearGradient id="linear0" gradientUnits="userSpaceOnUse" x1="828.8245" y1="149.5761" x2="659.707" y2="379.6303" gradientTransform="matrix(0.396449,0,0,-0.397413,-28.863523,150.91273)">
<stop offset="0.1805" style="stop-color:rgb(47%,47%,47%);stop-opacity:1;"/>
<stop offset="0.3124" style="stop-color:rgb(40%,40%,40%);stop-opacity:1;"/>
<stop offset="0.5738" style="stop-color:rgb(31%,31%,31%);stop-opacity:1;"/>
<stop offset="0.7464" style="stop-color:rgb(25%,25%,25%);stop-opacity:1;"/>
</linearGradient>
</defs>
<g id="surface1">
<path style=" stroke:none;fill-rule:nonzero;fill:rgb(0%,0%,0%);fill-opacity:1;" d="M 82.851562 45.734375 C 85.441406 44.246094 87.097656 41.445312 87.097656 38.03125 C 87.097656 30.464844 81.671875 27.964844 72.070312 27.964844 L 55.390625 27.964844 L 55.390625 53.597656 L 63.578125 53.597656 L 63.578125 48.226562 L 72.101562 48.226562 C 73.382812 48.226562 74.597656 48.160156 75.707031 48.027344 C 77.21875 49.511719 78.535156 51.910156 79.074219 53.566406 L 87.566406 53.566406 C 86.65625 50.835938 84.871094 47.59375 82.851562 45.734375 Z M 72.472656 42.324219 L 63.574219 42.324219 L 63.574219 33.878906 L 72.472656 33.878906 C 76.785156 33.878906 79.242188 34.652344 79.242188 38.03125 C 79.210938 41.445312 76.785156 42.324219 72.472656 42.324219 Z M 72.472656 42.324219 "/>
<path style=" stroke:none;fill-rule:nonzero;fill:rgb(0%,0%,0%);fill-opacity:1;" d="M 48.785156 27.96875 L 40.601562 27.96875 L 40.601562 53.601562 L 48.785156 53.601562 Z M 48.785156 27.96875 "/>
<path style=" stroke:none;fill-rule:nonzero;fill:rgb(0%,0%,0%);fill-opacity:1;" d="M 114.757812 27.96875 L 106.570312 27.96875 L 106.570312 53.601562 L 114.757812 53.601562 Z M 114.757812 27.96875 "/>
<path style=" stroke:none;fill-rule:nonzero;fill:rgb(0%,0%,0%);fill-opacity:1;" d="M 206.503906 27.96875 L 198.316406 27.96875 L 198.316406 53.601562 L 206.503906 53.601562 Z M 206.503906 27.96875 "/>
<path style=" stroke:none;fill-rule:nonzero;fill:rgb(0%,0%,0%);fill-opacity:1;" d="M 176.988281 27.96875 L 160.816406 27.96875 L 160.816406 53.601562 L 176.988281 53.601562 C 186.488281 53.601562 193.496094 49.3125 193.496094 40.769531 C 193.496094 32.222656 186.484375 27.96875 176.988281 27.96875 Z M 176.011719 47.488281 L 169.003906 47.488281 L 169.003906 34.082031 L 176.011719 34.082031 C 182.109375 34.082031 185.34375 36.242188 185.34375 40.769531 C 185.34375 45.296875 182.109375 47.488281 176.011719 47.488281 Z M 176.011719 47.488281 "/>
<path style=" stroke:none;fill-rule:nonzero;fill:rgb(0%,0%,0%);fill-opacity:1;" d="M 146.359375 39.65625 C 141.476562 34.183594 135.578125 30.234375 128.265625 27.972656 L 121.324219 27.972656 L 121.324219 53.605469 L 129.175781 53.605469 L 129.175781 36.277344 C 136.65625 38.710938 143.5625 46.34375 146.964844 53.605469 L 154.175781 53.605469 L 154.175781 27.972656 L 146.324219 27.972656 L 146.324219 39.65625 Z M 146.359375 39.65625 "/>
<path style=" stroke:none;fill-rule:nonzero;fill:rgb(0%,0%,0%);fill-opacity:1;" d="M 12.972656 27.96875 C 7.582031 34.082031 0 44.382812 0 53.601562 L 8.15625 53.601562 C 8.15625 52.21875 8.324219 50.800781 8.660156 49.414062 L 27.222656 49.414062 C 27.5625 50.832031 27.730469 52.214844 27.730469 53.601562 L 35.886719 53.601562 C 35.886719 44.382812 28.304688 34.082031 22.914062 27.96875 Z M 10.515625 44.011719 C 12.5 39.65625 15.398438 35.601562 17.925781 32.664062 C 20.453125 35.601562 23.351562 39.65625 25.339844 44.011719 Z M 10.515625 44.011719 "/>
<path style=" stroke:none;fill-rule:nonzero;fill:rgb(0%,0%,0%);fill-opacity:1;" d="M 234.128906 27.96875 L 224.1875 27.96875 C 218.796875 34.082031 211.214844 44.382812 211.214844 53.601562 L 219.371094 53.601562 C 219.371094 52.21875 219.539062 50.800781 219.875 49.414062 L 238.441406 49.414062 C 238.777344 50.832031 238.945312 52.214844 238.945312 53.601562 L 247.097656 53.601562 C 247.097656 44.347656 239.519531 34.082031 234.128906 27.96875 Z M 221.730469 44.011719 C 223.714844 39.65625 226.613281 35.601562 229.144531 32.664062 C 231.667969 35.601562 234.566406 39.65625 236.554688 44.011719 Z M 221.730469 44.011719 "/>
<path style=" stroke:none;fill-rule:nonzero;fill:url(#linear0);" d="M 275.804688 44.179688 C 276.480469 39.179688 275.265625 34.855469 274.253906 32.019531 C 273.550781 30.027344 272.976562 28.4375 272.472656 27.019531 C 270.179688 20.570312 269.742188 19.382812 268.160156 12.933594 L 267.617188 10.808594 L 265.53125 10.132812 C 259.195312 8.074219 258.085938 7.566406 251.816406 4.761719 C 250.4375 4.15625 248.886719 3.449219 246.964844 2.601562 C 244.703125 1.625 241.269531 0.273438 237.128906 0.136719 C 230.761719 -0.0976562 224.664062 2.503906 218.96875 7.839844 L 219.070312 7.808594 C 217.617188 9.089844 216.140625 10.578125 214.621094 12.296875 C 214.621094 12.296875 214.65625 12.402344 214.992188 12.132812 C 216.980469 10.511719 223.480469 4.429688 241.171875 12.402344 C 249.863281 16.320312 258.21875 19.796875 258.21875 19.796875 C 258.21875 19.796875 260.949219 28.410156 264.082031 37.460938 C 270.449219 55.804688 263.84375 61.78125 262.0625 63.605469 C 261.792969 63.910156 261.890625 63.941406 261.890625 63.941406 C 264.453125 62.085938 266.503906 60.226562 268.226562 58.402344 C 272.535156 54.042969 275.101562 49.28125 275.804688 44.179688 Z M 275.804688 44.179688 "/>
<path style=" stroke:none;fill-rule:nonzero;fill:rgb(37%,37%,37%);fill-opacity:1;" d="M 267.652344 10.746094 L 265.5625 10.070312 C 259.226562 8.011719 258.117188 7.5 251.847656 4.699219 C 250.464844 4.089844 248.917969 3.382812 246.996094 2.539062 C 244.734375 1.558594 241.304688 0.207031 237.15625 0.0742188 C 230.789062 -0.160156 224.691406 2.4375 219 7.777344 L 219.097656 7.742188 C 217.652344 9.027344 216.167969 10.515625 214.648438 12.234375 C 214.648438 12.234375 214.679688 12.339844 215.019531 12.066406 C 217.003906 10.445312 223.511719 4.367188 241.195312 12.339844 C 249.890625 16.257812 258.242188 19.734375 258.242188 19.734375 Z M 267.652344 10.746094 "/>
</g>
</svg>
