<?xml version="1.0" encoding="UTF-8"?>
<svg xmlns="http://www.w3.org/2000/svg" xmlns:xlink="http://www.w3.org/1999/xlink" width="279px" height="150px" viewBox="0 0 279 150" version="1.1">
<g id="surface1">
<path style=" stroke:none;fill-rule:evenodd;fill:rgb(85.490196%,14.509804%,11.372549%);fill-opacity:1;" d="M 72.296875 59.496094 C 72.296875 59.496094 74.789062 60.175781 78.871094 54.273438 C 78.871094 54.273438 81.136719 51.777344 77.960938 49.050781 C 77.960938 49.050781 75.242188 45.644531 71.390625 47.007812 C 70.9375 47.007812 67.082031 48.824219 67.308594 54.5 C 67.308594 54.5 67.535156 58.8125 72.296875 59.496094 Z M 72.296875 59.496094 "/>
<path style=" stroke:none;fill-rule:evenodd;fill:rgb(85.490196%,14.509804%,11.372549%);fill-opacity:1;" d="M 227.324219 12.5 C 227.324219 12.5 229.816406 14.542969 232.082031 11.363281 C 232.082031 11.363281 235.257812 8.640625 233.894531 4.78125 C 233.894531 4.324219 232.082031 0.464844 226.871094 0.917969 C 226.871094 0.917969 222.789062 1.148438 222.335938 5.914062 C 222.335938 5.914062 221.65625 8.640625 227.324219 12.5 Z M 227.324219 12.5 "/>
<path style=" stroke:none;fill-rule:evenodd;fill:rgb(85.490196%,14.509804%,11.372549%);fill-opacity:1;" d="M 183.355469 39.289062 C 185.394531 35.429688 183.355469 34.976562 181.769531 35.203125 L 177.6875 36.335938 L 175.875 36.792969 L 175.875 35.65625 C 175.875 35.65625 176.101562 35.65625 176.101562 35.65625 L 177.460938 10.226562 L 177.914062 7.277344 C 177.914062 7.277344 179.953125 0.691406 174.742188 0.0117188 C 174.742188 0.0117188 168.621094 -0.667969 169.074219 9.09375 L 152.984375 43.375 L 152.757812 43.375 L 152.53125 43.601562 L 141.199219 46.78125 C 141.199219 46.78125 134.851562 47.6875 134.171875 54.5 C 134.171875 54.5 133.039062 58.359375 138.703125 56.996094 L 146.410156 54.5 L 147.996094 54.046875 L 145.957031 58.132812 L 123.746094 105.582031 C 123.746094 105.582031 121.027344 110.804688 124.425781 112.847656 C 124.425781 112.847656 128.957031 114.890625 131 110.578125 L 155.703125 54.953125 L 157.289062 51.09375 L 168.621094 47.6875 L 168.394531 49.277344 L 165.675781 87.875 C 165.675781 87.875 164.769531 93.777344 167.488281 94.230469 C 167.488281 94.230469 172.25 96.046875 173.382812 83.332031 L 175.195312 51.777344 L 175.421875 45.644531 L 176.554688 45.191406 L 178.59375 44.511719 C 181.3125 43.375 183.355469 39.289062 183.355469 39.289062 Z M 169.300781 38.835938 L 162.277344 40.878906 L 162.277344 40.652344 L 161.824219 40.878906 L 163.183594 37.472656 L 170.660156 20.671875 Z M 169.300781 38.835938 "/>
<path style=" stroke:none;fill-rule:evenodd;fill:rgb(85.490196%,14.509804%,11.372549%);fill-opacity:1;" d="M 203.300781 36.566406 C 203.300781 36.566406 209.871094 37.699219 210.550781 33.160156 C 210.550781 33.160156 211.910156 29.753906 202.394531 29.527344 C 202.394531 29.527344 187.886719 28.390625 185.621094 46.554688 C 185.621094 46.554688 184.714844 52.683594 191.511719 51.09375 C 191.511719 51.09375 198.992188 49.050781 199.671875 50.640625 C 199.671875 50.640625 200.578125 52.457031 198.765625 55.179688 C 198.765625 55.179688 194.460938 61.992188 180.40625 61.765625 C 180.40625 61.765625 176.78125 61.085938 176.78125 64.945312 C 176.78125 64.945312 176.78125 69.484375 184.488281 69.03125 C 184.488281 69.03125 199.445312 68.804688 206.472656 55.863281 C 208.738281 52.003906 209.191406 49.960938 209.191406 49.277344 C 209.191406 48.597656 209.191406 47.917969 208.964844 47.234375 C 208.285156 45.644531 206.925781 44.511719 205.113281 44.058594 C 204.886719 44.058594 204.886719 44.058594 204.660156 44.058594 C 204.660156 44.058594 204.433594 44.058594 204.433594 44.058594 C 204.207031 44.058594 203.980469 44.058594 203.753906 44.058594 C 203.074219 44.058594 201.9375 44.058594 200.351562 44.511719 C 200.351562 44.511719 198.765625 44.964844 196.5 44.964844 C 195.367188 44.964844 194.6875 44.738281 194.007812 44.285156 C 193.78125 44.058594 193.328125 43.601562 193.328125 43.148438 C 193.328125 42.921875 193.328125 42.921875 193.328125 42.921875 C 193.328125 42.921875 193.78125 36.566406 203.300781 36.566406 Z M 203.300781 36.566406 "/>
<path style=" stroke:none;fill-rule:evenodd;fill:rgb(85.490196%,14.509804%,11.372549%);fill-opacity:1;" d="M 123.292969 74.707031 C 123.292969 74.707031 122.160156 73.117188 119.210938 75.160156 C 118.304688 75.839844 116.945312 77.882812 116.945312 77.882812 C 115.585938 79.703125 113.09375 81.972656 113.09375 81.972656 C 110.601562 84.46875 108.785156 85.148438 107.652344 85.378906 C 107.652344 85.378906 107.425781 85.378906 107.425781 85.378906 C 107.425781 85.378906 107.199219 85.378906 107.199219 85.378906 C 107.199219 85.378906 106.972656 85.378906 106.972656 85.378906 C 106.292969 85.378906 105.613281 85.148438 105.386719 84.46875 C 105.386719 84.46875 105.386719 84.242188 105.386719 84.015625 C 105.386719 83.789062 105.386719 83.789062 105.386719 83.789062 C 105.613281 83.105469 106.066406 82.199219 106.066406 82.199219 C 106.292969 81.746094 106.519531 81.289062 106.519531 80.835938 C 106.746094 80.609375 106.746094 80.609375 106.746094 80.609375 C 106.746094 80.609375 112.640625 62.445312 95.414062 69.257812 C 95.414062 69.257812 93.828125 59.039062 89.296875 63.355469 L 83.855469 68.578125 C 83.855469 68.578125 80.910156 71.074219 84.535156 74.707031 C 84.535156 74.707031 75.242188 96.730469 66.855469 94.230469 C 66.855469 94.230469 63.230469 93.777344 71.617188 76.75 C 71.617188 76.75 73.882812 72.4375 71.617188 69.710938 C 71.617188 69.710938 70.257812 68.351562 65.269531 69.710938 L 53.257812 73.570312 L 53.257812 71.753906 L 54.617188 47.007812 L 55.296875 43.828125 C 55.296875 43.828125 57.335938 37.472656 51.898438 36.566406 C 51.898438 36.566406 46.003906 36.109375 46.230469 45.871094 L 30.367188 80.15625 L 29.914062 80.15625 L 18.582031 83.332031 C 18.582031 83.332031 12.007812 84.46875 11.554688 91.28125 C 11.554688 91.28125 10.421875 95.140625 15.859375 93.550781 L 23.792969 91.28125 L 23.566406 91.28125 L 25.152344 90.824219 L 23.339844 94.914062 L 1.128906 142.363281 C 1.128906 142.363281 -1.816406 147.585938 1.808594 149.402344 C 1.808594 149.402344 6.113281 151.671875 8.382812 147.359375 L 32.859375 91.734375 L 34.671875 87.875 L 45.777344 84.242188 L 45.777344 86.058594 L 42.832031 124.65625 C 42.832031 124.65625 41.925781 130.332031 44.871094 131.011719 C 44.871094 131.011719 49.632812 132.601562 50.765625 120.113281 L 52.351562 88.554688 L 52.578125 82.878906 L 56.65625 81.519531 L 61.871094 79.246094 C 61.871094 79.246094 52.125 100.816406 60.964844 102.40625 C 60.964844 102.40625 71.84375 106.71875 80.230469 98.316406 C 80.230469 98.316406 89.066406 89.464844 94.734375 75.613281 C 94.734375 75.613281 100.175781 74.253906 100.175781 76.75 C 100.175781 76.75 100.628906 78.339844 98.8125 80.835938 C 98.8125 80.835938 97.90625 82.425781 97.453125 84.46875 C 97.453125 84.46875 95.640625 91.28125 101.082031 92.644531 C 101.082031 92.644531 109.011719 94.683594 117.851562 87.421875 C 117.851562 87.421875 123.972656 82.199219 124.652344 78.792969 C 124.878906 77.429688 124.652344 76.070312 123.292969 74.707031 Z M 46.457031 75.386719 L 39.433594 77.429688 L 39.207031 77.429688 L 40.566406 74.253906 L 47.820312 57.226562 Z M 46.457031 75.386719 "/>
<path style=" stroke:none;fill-rule:evenodd;fill:rgb(85.490196%,14.509804%,11.372549%);fill-opacity:1;" d="M 271.066406 34.066406 C 271.066406 34.066406 262.679688 36.566406 256.789062 39.742188 C 256.789062 39.742188 256.5625 39.96875 256.109375 40.195312 C 251.574219 42.011719 254.976562 36.566406 254.976562 36.566406 C 255.203125 36.335938 255.429688 36.109375 255.65625 35.65625 C 257.015625 33.160156 258.601562 29.527344 259.734375 27.253906 C 259.734375 27.027344 259.960938 27.027344 259.960938 26.800781 C 260.1875 26.347656 260.1875 26.121094 260.1875 25.894531 C 260.867188 24.984375 262.90625 20.21875 258.601562 19.535156 C 258.601562 19.535156 257.015625 18.855469 255.429688 20.21875 C 255.203125 20.21875 255.203125 20.445312 255.203125 20.445312 C 254.976562 20.445312 254.976562 20.671875 254.976562 20.671875 C 254.976562 20.671875 254.75 20.671875 254.75 20.671875 C 254.75 20.898438 254.75 20.898438 254.75 20.898438 C 254.75 20.445312 254.75 20.21875 254.75 19.765625 C 254.75 19.765625 254.519531 16.585938 251.121094 16.359375 C 251.121094 16.359375 242.054688 15.222656 233.667969 26.800781 C 229.136719 32.933594 225.511719 40.425781 226.644531 47.917969 C 226.644531 47.917969 224.152344 51.320312 219.84375 50.1875 C 219.84375 50.1875 217.351562 49.734375 218.484375 46.328125 C 218.484375 46.328125 220.523438 39.0625 223.015625 34.976562 C 223.015625 34.976562 228.910156 24.078125 222.789062 23.625 C 222.789062 23.625 218.710938 22.714844 217.125 26.574219 C 217.125 26.574219 204.660156 54.5 213.5 57.90625 C 213.5 57.90625 221.882812 61.992188 231.628906 53.136719 C 232.535156 53.820312 235.257812 55.179688 240.015625 53.136719 C 240.695312 52.910156 241.601562 52.457031 242.507812 51.777344 C 243.414062 51.320312 244.550781 50.640625 245.457031 49.960938 C 246.589844 50.640625 248.402344 51.09375 250.894531 50.1875 C 250.894531 50.1875 262.453125 44.511719 273.105469 43.375 C 273.105469 43.375 279 42.921875 279 36.792969 C 279 36.792969 278.773438 32.25 271.066406 34.066406 Z M 252.253906 25.667969 C 252.253906 25.667969 252.253906 26.121094 251.800781 27.257812 C 250.894531 29.753906 249.535156 32.933594 247.722656 36.109375 C 244.320312 42.011719 239.5625 47.6875 235.257812 45.871094 C 235.257812 45.871094 231.628906 44.738281 234.125 39.96875 C 234.125 39.96875 235.484375 37.699219 237.75 34.519531 C 237.75 34.519531 244.550781 25.894531 251.800781 23.851562 C 251.800781 23.851562 252.707031 23.625 253.386719 22.941406 C 252.933594 23.851562 252.707031 24.757812 252.253906 25.667969 Z M 252.253906 25.667969 "/>
</g>
</svg>
