<?xml version="1.0" encoding="UTF-8"?>
<svg xmlns="http://www.w3.org/2000/svg" xmlns:xlink="http://www.w3.org/1999/xlink" width="279px" height="85px" viewBox="0 0 279 85" version="1.1">
<g id="surface1">
<path style=" stroke:none;fill-rule:nonzero;fill:rgb(0%,21.960784%,37.254902%);fill-opacity:1;" d="M 137.3125 3.367188 L 105.355469 57.074219 C 102.023438 62.597656 100.199219 68.183594 99.695312 73.5625 L 87.183594 73.5625 C 88.03125 66.765625 90.722656 60.328125 96.160156 51.054688 L 118.5 13.558594 C 122.960938 6.132812 127.414062 3.433594 135.480469 3.433594 L 137.3125 3.433594 Z M 146.644531 32.238281 C 130.457031 32.238281 120.484375 41.722656 111.722656 62.386719 C 109.527344 67.550781 108.253906 73.984375 115.75 73.921875 C 119.988281 73.851562 127.132812 71.507812 132.152344 68.039062 C 131.730469 69.738281 131.511719 72.078125 131.65625 73.488281 L 143.039062 73.488281 C 143.464844 69.03125 145.160156 63.515625 148.902344 56.792969 L 163.117188 33.097656 C 157.746094 32.527344 152.234375 32.238281 146.644531 32.238281 M 134.835938 59.695312 C 132.507812 61.890625 127.980469 65.136719 124.167969 65.207031 C 121.542969 65.070312 121.40625 62.59375 123.167969 59.195312 C 129.894531 46.25 137.03125 39.390625 145.722656 39.453125 L 147.285156 39.453125 Z M 263.589844 32.238281 C 247.402344 32.238281 237.4375 41.722656 228.667969 62.386719 C 226.472656 67.550781 225.199219 73.984375 232.695312 73.921875 C 236.941406 73.851562 244.078125 71.507812 249.097656 68.039062 C 248.675781 69.738281 248.457031 72.078125 248.601562 73.488281 L 259.992188 73.488281 C 260.410156 69.03125 262.105469 63.515625 265.855469 56.792969 L 280 33.097656 C 274.625 32.527344 269.105469 32.238281 263.589844 32.238281 M 251.78125 59.695312 C 249.453125 61.890625 244.925781 65.136719 241.113281 65.207031 C 238.488281 65.070312 238.351562 62.59375 240.121094 59.195312 C 246.839844 46.25 253.976562 39.390625 262.675781 39.453125 L 264.238281 39.453125 Z M 251.78125 59.695312 "/>
<path style=" stroke:none;fill-rule:nonzero;fill:rgb(0%,21.960784%,37.254902%);fill-opacity:1;" d="M 226.613281 84.953125 L 222.863281 84.953125 C 218.058594 84.953125 213.8125 81.699219 212.546875 77.097656 L 206.894531 55.734375 L 196.351562 73.492188 L 184.257812 73.492188 L 218.058594 16.179688 C 222.4375 8.746094 226.964844 6.054688 235.03125 6.054688 L 236.304688 6.054688 L 213.8125 44.058594 L 230.640625 32.449219 L 244.152344 32.449219 L 215.800781 52.058594 Z M 115.042969 0.0429688 C 103.660156 0.0429688 97.714844 3.089844 86.542969 11.152344 L 48.648438 38.46875 L 24.398438 38.46875 C 17.390625 38.46875 11.742188 38.75 7.351562 42.917969 L 1.066406 48.730469 C 1.066406 48.730469 19.304688 48.015625 36.273438 47.375 L 0 73.570312 L 15.699219 73.570312 L 52.824219 46.75 C 60.03125 46.460938 64.972656 46.324219 65.054688 46.324219 C 73.679688 46.101562 78.484375 38.46875 78.484375 38.46875 L 64.277344 38.46875 L 94.25 16.8125 L 71.980469 52.898438 C 67.242188 61.179688 64.910156 67.128906 64.132812 73.492188 L 77.003906 73.492188 C 77.492188 68.113281 79.335938 62.527344 82.652344 57.003906 L 112.992188 6.34375 C 115.105469 2.871094 116.949219 0.0429688 116.949219 0.0429688 Z M 175.421875 43.84375 C 175.277344 44.910156 175.710938 45.613281 177.894531 47.023438 L 181.363281 49.285156 C 185.113281 51.769531 186.65625 55.519531 186.175781 58.558594 C 184.894531 67.046875 178.671875 73.910156 165.386719 73.910156 C 159.578125 73.910156 156.964844 73.710938 150.039062 72.570312 L 155.195312 63.867188 C 160.011719 64.714844 162.695312 65.148438 166.296875 65.148438 C 171.328125 65.148438 173.304688 62.878906 173.585938 61.035156 C 173.722656 59.976562 173.226562 58.703125 170.832031 57.066406 L 168.066406 55.097656 C 163.6875 51.914062 162.484375 49.4375 163.054688 45.542969 C 164.183594 38.046875 172.875 32.234375 184.894531 32.234375 C 188.714844 32.234375 192.816406 32.453125 197.34375 32.949219 L 192.464844 41.164062 C 189.484375 40.941406 184.6875 40.660156 181.292969 40.804688 C 177.894531 40.875 175.636719 42.070312 175.421875 43.84375 "/>
</g>
</svg>
