<?xml version="1.0" encoding="UTF-8"?>
<svg xmlns="http://www.w3.org/2000/svg" xmlns:xlink="http://www.w3.org/1999/xlink" width="279px" height="31px" viewBox="0 0 279 31" version="1.1">
<g id="surface1">
<path style=" stroke:none;fill-rule:nonzero;fill:rgb(4.313725%,8.235294%,37.647059%);fill-opacity:1;" d="M 25.269531 1.210938 C 26.679688 0.464844 28.265625 0.0742188 29.859375 0.113281 C 36.984375 0.109375 44.113281 0.136719 51.238281 0.105469 C 50.308594 2.171875 49.320312 4.898438 46.675781 5.136719 C 40.054688 5.320312 33.417969 5.121094 26.789062 5.230469 C 25.148438 5.203125 23.515625 6.066406 22.824219 7.59375 C 21.394531 10.398438 20.113281 13.28125 18.710938 16.101562 C 24.390625 16.097656 30.074219 16.105469 35.757812 16.09375 C 35.261719 17.0625 34.886719 18.140625 34.105469 18.925781 C 33.152344 19.679688 31.855469 19.539062 30.726562 19.574219 C 26.328125 19.515625 21.921875 19.621094 17.523438 19.511719 C 15.9375 22.492188 14.597656 25.59375 13.066406 28.605469 C 12.367188 30.023438 10.839844 30.941406 9.261719 30.886719 C 6.175781 30.886719 3.082031 31 0 30.785156 L 0 30.617188 C 0.0546875 30.628906 0.164062 30.660156 0.21875 30.675781 C 2.890625 24.890625 5.671875 19.167969 8.429688 13.425781 C 9.785156 10.550781 12.105469 8.175781 14.898438 6.667969 C 18.332031 4.808594 21.8125 3.03125 25.269531 1.210938 Z M 25.269531 1.210938 "/>
<path style=" stroke:none;fill-rule:nonzero;fill:rgb(4.313725%,8.235294%,37.647059%);fill-opacity:1;" d="M 54.789062 2.621094 C 55.503906 1.101562 57.144531 0.15625 58.796875 0.128906 C 61.828125 0.0820312 64.855469 0.148438 67.886719 0.0976562 C 63.425781 9.503906 58.859375 18.867188 54.371094 28.257812 C 53.742188 29.796875 52.203125 30.902344 50.527344 30.878906 C 47.414062 30.921875 44.300781 30.886719 41.191406 30.890625 C 45.71875 21.46875 50.253906 12.046875 54.789062 2.621094 Z M 54.789062 2.621094 "/>
<path style=" stroke:none;fill-rule:nonzero;fill:rgb(4.313725%,8.235294%,37.647059%);fill-opacity:1;" d="M 80.035156 0.277344 C 81.027344 -0.21875 82.179688 0.34375 82.71875 1.234375 C 87.15625 7.355469 91.621094 13.457031 96.101562 19.542969 C 96.597656 20.214844 96.96875 20.960938 97.332031 21.707031 C 100.171875 16.074219 102.8125 10.339844 105.558594 4.660156 C 106.265625 3.257812 106.785156 1.566406 108.269531 0.777344 C 110.324219 -0.324219 112.746094 0.25 114.972656 0.125 C 110.019531 10.382812 105.078125 20.644531 100.132812 30.902344 C 97.625 30.867188 95.113281 30.957031 92.609375 30.867188 C 91.050781 30.816406 89.851562 29.660156 88.964844 28.488281 C 85.503906 23.863281 82.035156 19.242188 78.570312 14.628906 C 77.824219 13.683594 77.097656 12.71875 76.582031 11.625 C 73.765625 17.25 71.171875 22.992188 68.386719 28.636719 C 67.746094 29.878906 66.460938 30.789062 65.054688 30.867188 C 63.417969 30.960938 61.777344 30.878906 60.140625 30.898438 C 63.625 23.40625 67.195312 15.941406 70.757812 8.480469 C 71.910156 6.023438 73.628906 3.769531 76 2.394531 C 77.3125 1.628906 78.644531 0.890625 80.035156 0.277344 Z M 80.035156 0.277344 "/>
<path style=" stroke:none;fill-rule:nonzero;fill:rgb(4.313725%,8.235294%,37.647059%);fill-opacity:1;" d="M 128.359375 0.277344 C 129.332031 -0.207031 130.464844 0.316406 131.015625 1.183594 C 135.464844 7.308594 139.933594 13.425781 144.425781 19.523438 C 144.925781 20.203125 145.296875 20.964844 145.671875 21.71875 C 148.832031 15.40625 151.785156 8.988281 154.878906 2.644531 C 155.527344 1.257812 156.945312 0.34375 158.441406 0.183594 C 160.050781 0.0429688 161.667969 0.152344 163.277344 0.109375 C 158.390625 10.398438 153.398438 20.640625 148.453125 30.90625 C 145.933594 30.867188 143.410156 30.960938 140.886719 30.867188 C 139.21875 30.777344 137.996094 29.464844 137.074219 28.199219 C 133.144531 22.890625 129.105469 17.664062 125.21875 12.316406 C 125.09375 12.214844 124.839844 12.003906 124.714844 11.902344 C 122.183594 17.324219 119.546875 22.695312 116.996094 28.109375 C 116.417969 29.4375 115.261719 30.617188 113.777344 30.816406 C 112.023438 31 110.261719 30.851562 108.507812 30.917969 C 111.347656 24.605469 114.394531 18.375 117.355469 12.113281 C 118.617188 9.621094 119.585938 6.90625 121.460938 4.777344 C 123.300781 2.667969 125.894531 1.472656 128.359375 0.277344 Z M 128.359375 0.277344 "/>
<path style=" stroke:none;fill-rule:nonzero;fill:rgb(4.313725%,8.235294%,37.647059%);fill-opacity:1;" d="M 181.15625 1.257812 C 182.550781 0.5 184.121094 0.0898438 185.714844 0.113281 C 189.082031 0.113281 192.457031 0.113281 195.832031 0.113281 C 198.28125 0.105469 200.691406 1.015625 202.574219 2.582031 C 204.730469 4.246094 206.949219 5.832031 209.082031 7.523438 C 210.042969 8.183594 210.113281 9.472656 209.566406 10.4375 C 206.328125 17.269531 202.992188 24.054688 199.757812 30.886719 C 196.960938 30.886719 194.160156 30.925781 191.363281 30.878906 C 189.859375 30.984375 188.617188 29.226562 189.351562 27.859375 C 190.550781 25.046875 192.035156 22.359375 193.273438 19.558594 C 186.65625 19.542969 180.042969 19.554688 173.425781 19.554688 C 171.980469 22.496094 170.59375 25.472656 169.148438 28.414062 C 168.496094 29.785156 167.125 30.839844 165.582031 30.867188 C 162.402344 30.949219 159.21875 30.847656 156.039062 30.914062 C 158.800781 25.085938 161.597656 19.277344 164.386719 13.464844 C 165.738281 10.601562 168.015625 8.210938 170.792969 6.707031 C 174.242188 4.875 177.703125 3.070312 181.15625 1.257812 M 179.207031 7.601562 C 177.78125 10.402344 176.5 13.277344 175.09375 16.09375 C 181.71875 16.109375 188.339844 16.097656 194.964844 16.097656 C 196.296875 13.296875 197.648438 10.503906 199.011719 7.71875 C 199.222656 7.125 199.738281 6.488281 199.421875 5.847656 C 198.902344 5.089844 197.929688 5.234375 197.148438 5.199219 C 192.460938 5.234375 187.777344 5.167969 183.097656 5.230469 C 181.457031 5.1875 179.894531 6.105469 179.207031 7.601562 Z M 179.207031 7.601562 "/>
<path style=" stroke:none;fill-rule:nonzero;fill:rgb(4.313725%,8.235294%,37.647059%);fill-opacity:1;" d="M 220.828125 3.621094 C 221.449219 1.898438 222.828125 0.371094 224.734375 0.183594 C 227.9375 0.0078125 231.15625 0.1875 234.363281 0.0976562 C 230.039062 9.464844 225.4375 18.707031 221.011719 28.027344 C 220.410156 29.527344 219.039062 30.78125 217.375 30.867188 C 214.15625 30.953125 210.933594 30.878906 207.710938 30.898438 C 212.085938 21.804688 216.46875 12.71875 220.828125 3.621094 Z M 220.828125 3.621094 "/>
<path style=" stroke:none;fill-rule:nonzero;fill:rgb(4.313725%,8.235294%,37.647059%);fill-opacity:1;" d="M 248.691406 3.359375 C 251.328125 2.128906 253.804688 0.160156 256.832031 0.128906 C 260.359375 0.105469 263.886719 0.0898438 267.414062 0.140625 C 270.613281 0.25 273.34375 2.09375 275.726562 4.074219 C 277.460938 5.566406 279.613281 6.621094 281 8.480469 L 281 9.621094 C 280.1875 11.722656 279.238281 13.777344 278.1875 15.765625 C 277.007812 17.890625 274.429688 18.5625 272.191406 18.789062 C 268.488281 19.085938 264.769531 18.710938 261.070312 19 C 261.171875 19.140625 261.386719 19.429688 261.488281 19.566406 C 263.617188 20.355469 266.703125 19.605469 267.988281 21.933594 C 269.789062 24.933594 271.589844 27.933594 273.414062 30.921875 C 269.796875 30.851562 266.175781 30.949219 262.554688 30.878906 C 261.171875 30.933594 259.878906 30.175781 259.183594 28.996094 C 257.519531 26.386719 256.03125 23.675781 254.414062 21.046875 C 253.796875 20.023438 252.839844 19.113281 251.605469 18.984375 C 249.523438 18.777344 247.429688 18.953125 245.34375 18.886719 C 243.816406 21.941406 242.371094 25.03125 240.863281 28.089844 C 240.226562 29.585938 238.832031 30.847656 237.144531 30.863281 C 233.957031 30.96875 230.777344 30.851562 227.59375 30.914062 C 230.566406 24.714844 233.4375 18.457031 236.539062 12.328125 C 239.039062 7.613281 244.316406 5.804688 248.691406 3.359375 M 250.5 7.386719 C 249.140625 10.035156 247.914062 12.757812 246.585938 15.421875 C 251.910156 15.414062 257.238281 15.4375 262.5625 15.40625 C 264.347656 15.414062 266.488281 15.042969 267.4375 13.324219 C 268.40625 11.492188 269.203125 9.574219 270.140625 7.726562 C 270.371094 7.128906 270.898438 6.464844 270.542969 5.808594 C 269.992188 5.117188 269.058594 5.203125 268.28125 5.195312 C 263.601562 5.230469 258.921875 5.164062 254.242188 5.226562 C 252.726562 5.234375 251.203125 6.007812 250.5 7.386719 Z M 250.5 7.386719 "/>
</g>
</svg>
