<?xml version="1.0" encoding="UTF-8"?>
<svg xmlns="http://www.w3.org/2000/svg" xmlns:xlink="http://www.w3.org/1999/xlink" width="279px" height="64px" viewBox="0 0 279 64" version="1.1">
<defs>
<clipPath id="clip1">
  <path d="M 0.300781 0 L 279.699219 0 L 279.699219 63.859375 L 0.300781 63.859375 Z M 0.300781 0 "/>
</clipPath>
</defs>
<g id="surface1">
<g clip-path="url(#clip1)" clip-rule="nonzero">
<path style=" stroke:none;fill-rule:nonzero;fill:rgb(8.235294%,14.901961%,28.627451%);fill-opacity:1;" d="M 43.820312 11.347656 L 43.820312 0.152344 L 55 0.152344 L 55 11.347656 Z M 43.820312 62.945312 L 43.820312 15.734375 L 55 15.734375 L 55 62.945312 Z M 70.867188 62.945312 L 59.6875 62.945312 L 59.6875 15.734375 L 70.566406 15.734375 L 70.566406 24.511719 C 74.039062 19.367188 79.027344 14.828125 85.828125 14.828125 C 87.035156 14.828125 87.792969 14.980469 88.394531 15.132812 L 88.394531 25.722656 C 87.488281 25.570312 85.828125 25.570312 85.070312 25.570312 C 79.933594 25.570312 70.714844 30.414062 70.714844 39.796875 L 70.714844 62.945312 Z M 91.570312 62.945312 L 91.570312 0.152344 L 111.667969 0.152344 C 116.957031 0.152344 134.9375 0.152344 134.9375 15.433594 C 134.9375 26.027344 126.777344 28.75 122.546875 30.261719 C 127.382812 31.472656 136.449219 34.046875 136.449219 45.695312 C 136.449219 55.230469 129.347656 62.945312 113.175781 62.945312 Z M 103.355469 25.722656 L 111.667969 25.722656 C 122.394531 25.722656 123.304688 19.367188 123.304688 17.25 C 123.304688 9.382812 115.140625 9.382812 112.726562 9.382812 L 103.355469 9.382812 Z M 103.355469 53.714844 L 110.761719 53.714844 C 118.617188 53.714844 124.210938 51.144531 124.210938 44.335938 C 124.210938 39.945312 121.792969 34.800781 111.515625 34.800781 L 103.355469 34.800781 Z M 168.179688 62.945312 L 166.972656 57.953125 C 164.253906 60.375 159.71875 64.007812 152.769531 64.007812 C 144.304688 64.007812 138.261719 58.558594 138.261719 50.992188 C 138.261719 46.148438 140.074219 40.402344 150.351562 36.769531 L 163.800781 32.230469 C 165.765625 31.625 165.914062 31.472656 165.914062 30.113281 L 165.914062 28.144531 C 165.914062 24.210938 162.289062 23 157.90625 23 C 150.5 23 143.703125 27.539062 140.984375 29.355469 L 140.984375 19.519531 C 144.003906 17.855469 149.746094 14.527344 159.570312 14.527344 C 174.226562 14.527344 177.097656 21.941406 177.097656 30.867188 L 177.097656 62.796875 Z M 155.941406 42.667969 C 151.257812 44.335938 149.59375 46.605469 149.59375 49.933594 C 149.59375 54.625 153.675781 55.683594 155.640625 55.683594 C 157.453125 55.683594 161.382812 55.078125 165.914062 50.386719 L 165.914062 38.734375 C 165.308594 39.191406 165.007812 39.339844 163.042969 40.097656 Z M 30.066406 62.945312 L 28.859375 57.953125 C 26.140625 60.375 21.757812 64.007812 14.65625 64.007812 C 6.191406 64.007812 0.300781 58.558594 0.300781 50.992188 C 0.300781 46.148438 1.960938 40.402344 12.386719 36.769531 L 25.988281 32.230469 C 27.953125 31.625 28.101562 31.472656 28.101562 30.113281 L 28.101562 28.144531 C 28.101562 24.210938 24.476562 23 20.09375 23 C 12.691406 23 5.890625 27.539062 3.171875 29.355469 L 3.171875 19.519531 C 6.191406 17.855469 11.933594 14.527344 21.757812 14.527344 C 36.414062 14.527344 39.285156 21.941406 39.285156 30.867188 L 39.285156 62.796875 Z M 17.980469 42.667969 C 13.292969 44.335938 11.632812 46.605469 11.632812 49.933594 C 11.632812 54.625 15.710938 55.683594 17.675781 55.683594 C 19.488281 55.683594 23.417969 55.078125 27.953125 50.386719 L 27.953125 38.734375 C 27.347656 39.191406 27.046875 39.339844 25.082031 40.097656 Z M 181.78125 62.945312 L 181.78125 0.152344 L 192.964844 0.152344 L 192.964844 62.945312 Z M 202.484375 24.210938 L 195.683594 24.210938 L 195.683594 15.585938 L 202.484375 15.585938 L 202.484375 0 L 213.667969 0 L 213.667969 15.585938 L 222.128906 15.585938 L 222.128906 24.210938 L 213.667969 24.210938 L 213.667969 48.117188 C 213.667969 51.597656 214.117188 54.773438 219.257812 54.773438 C 220.617188 54.773438 221.675781 54.625 222.582031 54.472656 L 222.582031 62.945312 C 221.070312 63.097656 219.558594 63.25 217.292969 63.25 C 204.75 63.25 202.484375 57.046875 202.484375 48.722656 Z M 226.507812 11.347656 L 226.507812 0 L 237.691406 0 L 237.691406 11.347656 Z M 226.507812 62.945312 L 226.507812 15.734375 L 237.691406 15.734375 L 237.691406 62.945312 Z M 278.640625 28.445312 C 276.375 26.480469 272.75 23.605469 266.402344 23.605469 C 256.730469 23.605469 252.804688 31.625 252.804688 39.339844 C 252.804688 42.667969 253.710938 55.078125 266.101562 55.078125 C 272.597656 55.078125 276.679688 52.203125 279.699219 50.085938 L 279.699219 60.070312 C 277.433594 61.28125 272.296875 63.855469 264.289062 63.855469 C 248.269531 63.855469 241.46875 51.75 241.46875 39.191406 C 241.46875 26.175781 248.875 14.527344 264.742188 14.527344 C 272.445312 14.527344 276.679688 16.945312 278.640625 18.007812 Z M 278.640625 28.445312 "/>
</g>
</g>
</svg>
