<?xml version="1.0" encoding="UTF-8"?>
<svg xmlns="http://www.w3.org/2000/svg" xmlns:xlink="http://www.w3.org/1999/xlink" width="279px" height="122px" viewBox="0 0 279 122" version="1.1">
<g id="surface1">
<path style=" stroke:none;fill-rule:nonzero;fill:rgb(83.137255%,5.490196%,7.843137%);fill-opacity:1;" d="M 277.070312 105.46875 C 277.324219 105.265625 277.527344 105.007812 277.664062 104.710938 C 277.804688 104.304688 277.871094 103.875 277.847656 103.445312 L 277.847656 61.941406 C 277.867188 61.503906 277.804688 61.066406 277.664062 60.648438 C 277.53125 60.363281 277.328125 60.113281 277.070312 59.929688 C 276.445312 59.449219 274.992188 59.207031 272.710938 59.207031 C 270.429688 59.207031 268.953125 59.449219 268.28125 59.929688 C 268.023438 60.113281 267.820312 60.363281 267.691406 60.648438 C 267.558594 61.066406 267.507812 61.503906 267.539062 61.941406 L 267.539062 103.46875 C 267.464844 104.210938 267.730469 104.953125 268.257812 105.480469 C 268.886719 105.960938 270.363281 106.199219 272.6875 106.199219 C 275.015625 106.199219 276.476562 105.957031 277.070312 105.46875 Z M 246.203125 105.699219 C 248.355469 105 250.332031 103.839844 252 102.304688 C 253.515625 100.898438 254.675781 99.152344 255.386719 97.210938 C 256.113281 95.136719 256.472656 92.949219 256.453125 90.753906 L 256.453125 61.941406 C 256.542969 61.1875 256.277344 60.433594 255.734375 59.90625 C 255.054688 59.425781 253.601562 59.183594 251.375 59.183594 C 249.148438 59.183594 247.671875 59.425781 246.945312 59.90625 C 246.675781 60.078125 246.464844 60.332031 246.34375 60.625 C 246.1875 61.046875 246.109375 61.492188 246.109375 61.941406 L 246.109375 90.625 C 246.101562 91.8125 245.902344 92.992188 245.519531 94.113281 C 245.054688 95.386719 244.128906 96.441406 242.933594 97.070312 C 241.304688 97.914062 239.488281 98.316406 237.65625 98.234375 C 236.34375 98.261719 235.035156 98.074219 233.785156 97.6875 C 232.804688 97.378906 231.90625 96.847656 231.164062 96.140625 C 230.472656 95.464844 229.957031 94.636719 229.65625 93.71875 C 229.328125 92.71875 229.167969 91.667969 229.179688 90.613281 L 229.179688 61.941406 C 229.269531 61.1875 229.003906 60.433594 228.460938 59.90625 C 227.78125 59.425781 226.328125 59.183594 224.101562 59.183594 C 221.875 59.183594 220.398438 59.425781 219.671875 59.90625 C 219.402344 60.078125 219.191406 60.332031 219.066406 60.625 C 218.945312 61.050781 218.898438 61.496094 218.929688 61.941406 L 218.929688 90.742188 C 218.910156 92.9375 219.269531 95.125 219.996094 97.195312 C 220.6875 99.152344 221.832031 100.914062 223.335938 102.339844 C 225.007812 103.859375 226.984375 105 229.132812 105.6875 C 234.699219 107.316406 240.613281 107.316406 246.179688 105.6875 Z M 195.621094 105.46875 C 195.871094 105.265625 196.066406 105.007812 196.1875 104.710938 C 196.320312 104.304688 196.378906 103.875 196.363281 103.445312 L 196.363281 68.023438 L 206.683594 68.023438 C 207.308594 68.042969 207.933594 67.96875 208.539062 67.804688 C 209.019531 67.644531 209.417969 67.292969 209.640625 66.835938 C 210.011719 66.03125 210.253906 65.171875 210.359375 64.289062 C 210.507812 63.429688 210.59375 62.558594 210.613281 61.683594 C 210.628906 61.265625 210.582031 60.847656 210.476562 60.441406 C 210.386719 60.140625 210.191406 59.886719 209.929688 59.71875 C 209.707031 59.589844 209.464844 59.503906 209.210938 59.464844 C 208.761719 59.398438 208.308594 59.371094 207.855469 59.382812 L 175.722656 59.382812 C 175.09375 59.363281 174.46875 59.4375 173.867188 59.601562 C 173.363281 59.75 172.941406 60.101562 172.707031 60.566406 C 172.347656 61.269531 172.105469 62.023438 171.988281 62.800781 C 171.816406 63.75 171.730469 64.710938 171.730469 65.675781 C 171.734375 66.113281 171.800781 66.546875 171.929688 66.964844 C 172.019531 67.269531 172.222656 67.527344 172.496094 67.6875 C 173.148438 67.96875 173.855469 68.085938 174.5625 68.023438 L 186.054688 68.023438 L 186.054688 103.421875 C 185.960938 104.1875 186.25 104.949219 186.828125 105.457031 C 187.457031 105.9375 188.933594 106.175781 191.257812 106.175781 C 193.585938 106.175781 195.035156 105.945312 195.609375 105.480469 Z M 195.621094 105.46875 "/>
<path style=" stroke:none;fill-rule:nonzero;fill:rgb(83.137255%,5.490196%,7.843137%);fill-opacity:1;" d="M 152.164062 13.445312 C 152.164062 20.871094 146.160156 26.894531 138.757812 26.894531 C 131.355469 26.894531 125.351562 20.871094 125.351562 13.445312 C 125.351562 6.019531 131.355469 0 138.757812 0 C 146.160156 0 152.164062 6.019531 152.164062 13.445312 Z M 7.328125 33.976562 L 43.5 33.976562 C 47.070312 33.976562 49.714844 35.140625 50.757812 40.152344 C 51.917969 45.773438 51.476562 49.679688 45.144531 50.121094 L 33.78125 50.9375 C 42.152344 103.863281 90.972656 121.125 117.5625 64.089844 C 121.96875 54.660156 123.359375 52.9375 128.21875 54.136719 C 134.746094 55.761719 135.640625 59.160156 132.507812 68.640625 C 109.558594 138.941406 32.308594 145.996094 17.152344 52.132812 L 7.957031 52.796875 C 0.453125 53.332031 0.152344 46.980469 0.152344 43.492188 C 0.128906 36.476562 2.714844 33.976562 7.332031 33.976562 Z M 7.328125 33.976562 "/>
</g>
</svg>
