<?xml version="1.0" encoding="UTF-8"?>
<svg xmlns="http://www.w3.org/2000/svg" xmlns:xlink="http://www.w3.org/1999/xlink" width="279px" height="43px" viewBox="0 0 279 43" version="1.1">
<g id="surface1">
<path style=" stroke:none;fill-rule:nonzero;fill:rgb(59.607843%,0%,18.039216%);fill-opacity:1;" d="M 51.808594 38.421875 L 26.894531 26.414062 L 26.894531 0 Z M 53.792969 43 L 26.894531 31.636719 L 26.894531 43 Z M 53.792969 43 "/>
<path style=" stroke:none;fill-rule:nonzero;fill:rgb(89.019608%,9.411765%,21.568627%);fill-opacity:1;" d="M 1.980469 38.421875 L 26.894531 0 L 26.894531 26.414062 L 1.980469 38.421875 "/>
<path style=" stroke:none;fill-rule:nonzero;fill:rgb(89.019608%,9.411765%,21.568627%);fill-opacity:1;" d="M 0 43 L 26.894531 43 L 26.894531 31.636719 L 0 43 "/>
<path style=" stroke:none;fill-rule:nonzero;fill:rgb(59.607843%,0%,18.039216%);fill-opacity:1;" d="M 55.96875 35.125 C 56.945312 35.125 57.753906 35.90625 57.753906 36.886719 C 57.753906 37.863281 56.972656 38.671875 55.996094 38.671875 C 55.019531 38.671875 54.210938 37.890625 54.210938 36.914062 C 54.210938 35.90625 54.992188 35.125 55.96875 35.125 Z M 55.96875 38.394531 C 56.804688 38.394531 57.472656 37.722656 57.472656 36.886719 C 57.472656 36.046875 56.804688 35.378906 55.96875 35.378906 C 55.128906 35.378906 54.460938 36.046875 54.460938 36.886719 C 54.460938 37.722656 55.128906 38.394531 55.96875 38.394531 Z M 55.578125 37.917969 L 55.324219 37.917969 L 55.324219 35.878906 L 56.105469 35.878906 C 56.582031 35.878906 56.75 36.074219 56.75 36.4375 C 56.777344 36.746094 56.527344 36.996094 56.246094 37.023438 L 56.859375 37.917969 L 56.582031 37.917969 L 55.96875 37.023438 L 55.605469 37.023438 Z M 55.578125 36.773438 L 55.910156 36.773438 C 56.191406 36.773438 56.496094 36.746094 56.496094 36.410156 C 56.496094 36.160156 56.246094 36.074219 56.050781 36.074219 L 55.605469 36.074219 L 55.605469 36.773438 Z M 55.578125 36.773438 "/>
<path style=" stroke:none;fill-rule:nonzero;fill:rgb(0%,23.921569%,47.45098%);fill-opacity:1;" d="M 74.800781 38.421875 L 86.878906 38.421875 C 99.324219 38.421875 106.71875 31.972656 106.71875 21.277344 C 106.71875 10.582031 99.324219 4.160156 86.878906 4.160156 L 74.800781 4.160156 Z M 82.445312 10.109375 L 86.878906 10.109375 C 94.945312 10.109375 98.988281 14.101562 98.988281 21.277344 C 98.988281 28.453125 94.945312 32.445312 86.878906 32.445312 L 82.445312 32.445312 Z M 82.445312 10.109375 "/>
<path style=" stroke:none;fill-rule:nonzero;fill:rgb(0%,23.921569%,47.45098%);fill-opacity:1;" d="M 147.257812 17.617188 L 132.71875 17.617188 L 132.71875 10.109375 L 149.152344 10.109375 L 149.152344 4.160156 L 125.046875 4.160156 L 125.046875 38.421875 L 149.683594 38.421875 L 149.683594 32.472656 L 132.71875 32.472656 L 132.71875 23.566406 L 147.257812 23.566406 Z M 147.257812 17.617188 "/>
<path style=" stroke:none;fill-rule:nonzero;fill:rgb(0%,23.921569%,47.45098%);fill-opacity:1;" d="M 178.503906 4.160156 L 170.832031 4.160156 L 170.832031 38.421875 L 193.261719 38.421875 L 193.261719 32.472656 L 178.503906 32.472656 Z M 178.503906 4.160156 "/>
<path style=" stroke:none;fill-rule:nonzero;fill:rgb(0%,23.921569%,47.45098%);fill-opacity:1;" d="M 203.835938 10.109375 L 215.332031 10.109375 L 215.332031 38.421875 L 223.03125 38.421875 L 223.03125 10.109375 L 234.554688 10.109375 L 234.554688 4.160156 L 203.835938 4.160156 Z M 203.835938 10.109375 "/>
<path style=" stroke:none;fill-rule:nonzero;fill:rgb(0%,23.921569%,47.45098%);fill-opacity:1;" d="M 279 38.421875 L 270.992188 38.421875 L 267.644531 29.847656 L 253.722656 29.847656 L 250.375 38.421875 L 242.898438 38.421875 L 257.210938 4.019531 L 264.9375 4.019531 Z M 265.46875 24.097656 L 260.699219 11.921875 L 255.898438 24.097656 Z M 265.46875 24.097656 "/>
</g>
</svg>
