<?xml version="1.0" encoding="UTF-8"?>
<svg xmlns="http://www.w3.org/2000/svg" xmlns:xlink="http://www.w3.org/1999/xlink" width="279px" height="295px" viewBox="0 0 279 295" version="1.1">
<g id="surface1">
<path style=" stroke:none;fill-rule:nonzero;fill:rgb(84.313725%,10.196078%,12.941176%);fill-opacity:1;" d="M 0.0117188 0 L 278.984375 0 L 278.984375 295 L 0.0117188 295 Z M 0.0117188 0 "/>
<path style=" stroke:none;fill-rule:nonzero;fill:rgb(100%,100%,100%);fill-opacity:1;" d="M 151.796875 73.148438 C 150.039062 75.425781 149.066406 78.21875 149.066406 81.078125 C 149.066406 82.054688 149.066406 105.125 149.066406 105.972656 C 148.933594 107.855469 148.21875 109.613281 147.046875 111.105469 C 146.398438 111.757812 142.558594 115.199219 142.234375 115.589844 L 144.378906 115.65625 C 145.097656 115.007812 152.511719 108.441406 153.226562 107.53125 C 155.375 105.191406 156.609375 102.136719 156.609375 98.953125 C 156.609375 97.914062 156.609375 76.007812 156.609375 75.035156 C 156.546875 72.628906 157.457031 70.222656 159.148438 68.46875 C 160.058594 67.496094 162.921875 65.089844 163.441406 64.503906 L 161.164062 64.441406 C 160.710938 65.023438 152.578125 72.371094 151.796875 73.148438 Z M 151.796875 73.148438 "/>
<path style=" stroke:none;fill-rule:nonzero;fill:rgb(100%,100%,100%);fill-opacity:1;" d="M 133.515625 163.6875 L 142.558594 171.550781 L 148.609375 171.550781 C 154.398438 171.550781 159.992188 169.277344 164.09375 165.183594 C 167.800781 161.476562 169.167969 156.472656 169.167969 151.792969 L 169.167969 138.859375 C 169.101562 135.933594 167.867188 133.140625 165.652344 131.191406 C 165.261719 130.800781 162.597656 128.265625 162.597656 128.265625 L 162.597656 138.210938 C 162.597656 138.210938 165.523438 141.199219 166.042969 141.785156 C 168.710938 144.644531 168.710938 149.84375 160.1875 158.097656 C 158.691406 159.527344 154.464844 163.558594 148.609375 163.558594 Z M 133.515625 163.6875 "/>
<path style=" stroke:none;fill-rule:nonzero;fill:rgb(100%,100%,100%);fill-opacity:1;" d="M 158.691406 110.585938 C 157.71875 111.625 156.742188 114.226562 156.742188 116.566406 L 156.742188 121.441406 L 161.6875 121.441406 C 163.636719 121.441406 166.175781 119.6875 166.695312 118.777344 C 166.695312 118.710938 166.695312 113.902344 166.695312 113.902344 C 167.410156 114.941406 168.320312 115.914062 169.363281 116.695312 C 169.882812 116.046875 174.4375 110.585938 178.210938 110.519531 C 184.519531 110.457031 183.089844 118.449219 180.550781 120.984375 C 179.707031 121.832031 175.996094 125.210938 174.828125 126.316406 C 171.835938 129.175781 166.695312 127.808594 166.695312 120.464844 C 166.695312 120.464844 161.230469 125.664062 160.382812 126.378906 C 159.539062 127.09375 156.742188 130.085938 156.742188 130.085938 L 156.742188 143.019531 C 156.742188 149.191406 154.726562 151.273438 153.03125 153.15625 C 152.382812 153.871094 145.421875 160.242188 144.445312 160.957031 L 142.167969 161.023438 C 142.167969 161.023438 146.265625 157.316406 147.046875 156.472656 C 147.957031 155.496094 149.066406 153.546875 149.066406 150.296875 C 149.066406 149.453125 148.933594 130.019531 148.933594 130.019531 L 117.1875 130.019531 C 106.128906 130.019531 103.785156 117.800781 103.722656 114.484375 C 103.722656 113.511719 103.722656 103.761719 103.722656 102.203125 C 103.722656 100.1875 102.421875 96.808594 100.402344 95.765625 L 103.527344 95.765625 C 103.917969 95.898438 105.867188 96.675781 105.867188 104.21875 C 105.867188 104.21875 105.738281 112.925781 105.738281 113.445312 C 105.738281 117.28125 108.796875 121.636719 113.152344 121.636719 L 149.066406 121.570312 C 149.066406 120.59375 150.039062 116.957031 151.796875 115.007812 C 152.773438 113.902344 160.515625 106.882812 161.359375 106.167969 L 163.636719 106.167969 C 163.3125 106.492188 159.539062 109.804688 158.757812 110.714844 Z M 170.46875 117.929688 C 171.378906 119.164062 172.417969 120.402344 173.527344 121.503906 C 177.429688 124.625 179.25 121.246094 176.648438 117.734375 C 175.609375 116.304688 171.640625 116.695312 170.46875 117.929688 Z M 170.46875 117.929688 "/>
<path style=" stroke:none;fill-rule:nonzero;fill:rgb(100%,100%,100%);fill-opacity:1;" d="M 131.957031 141.070312 C 131.957031 142.824219 126.425781 147.4375 126.101562 147.699219 C 125.710938 145.8125 124.277344 143.796875 120.179688 139.640625 L 126.230469 133.59375 C 130.328125 137.6875 131.957031 138.597656 131.957031 141.070312 Z M 131.957031 141.070312 "/>
<path style=" stroke:none;fill-rule:nonzero;fill:rgb(100%,100%,100%);fill-opacity:1;" d="M 142.496094 71.589844 C 143.730469 72.824219 146.332031 76.074219 144.769531 77.699219 C 143.40625 79.0625 141.257812 81.273438 141.257812 81.273438 C 141.128906 80.492188 139.109375 78.542969 139.109375 78.542969 C 139.109375 78.542969 139.109375 84.394531 139.109375 85.109375 C 139.046875 87.773438 138.070312 88.488281 138.070312 88.488281 C 138.070312 88.488281 142.949219 93.296875 142.949219 99.539062 C 142.949219 102.527344 142.949219 105.320312 142.949219 105.90625 C 143.015625 107.078125 142.558594 108.3125 141.714844 109.15625 C 141.257812 109.675781 136.769531 114.226562 136.054688 114.8125 C 135.011719 115.722656 133.710938 116.242188 132.34375 116.175781 L 115.496094 116.175781 C 112.828125 116.175781 110.097656 114.097656 110.097656 112.015625 C 110.097656 111.496094 110.160156 105.777344 110.160156 105.777344 C 111.007812 106.75 111.917969 107.921875 114 107.921875 C 115.691406 107.921875 117.382812 106.621094 117.839844 106.101562 C 118.292969 105.582031 130.589844 92.84375 130.589844 92.84375 C 130.589844 92.84375 124.863281 87.511719 121.089844 84.976562 C 119.269531 83.742188 116.796875 85.304688 116.40625 86.929688 C 115.234375 91.996094 116.40625 99.667969 116.40625 99.667969 L 111.789062 95.050781 C 109.902344 93.167969 109.964844 88.941406 112.242188 86.734375 C 112.570312 86.34375 116.015625 82.574219 120.308594 82.574219 L 127.011719 82.574219 C 131.5 82.574219 136.445312 87.058594 136.445312 87.058594 C 136.835938 86.601562 137.09375 86.082031 137.160156 85.5 C 137.160156 83.160156 137.09375 76.984375 137.09375 76.984375 C 133.710938 73.605469 133.257812 70.09375 134.882812 68.46875 C 137.941406 65.414062 139.046875 64.375 139.046875 64.375 C 139.046875 64.375 138.917969 68.078125 142.496094 71.589844 Z M 121.351562 105.386719 C 119.660156 107.140625 119.398438 107.53125 117.839844 108.507812 L 136.835938 108.507812 C 141.972656 108.507812 140.933594 105.320312 140.023438 103.695312 C 138.136719 100.382812 132.148438 94.273438 132.148438 94.273438 C 132.148438 94.273438 121.675781 105.0625 121.351562 105.386719 Z M 121.351562 105.386719 "/>
<path style=" stroke:none;fill-rule:nonzero;fill:rgb(100%,100%,100%);fill-opacity:1;" d="M 99.6875 122.675781 L 96.566406 122.675781 C 96.566406 122.675781 99.882812 124.496094 99.882812 129.238281 L 99.882812 144.382812 C 99.882812 154.199219 108.015625 163.296875 117.902344 163.296875 L 126.164062 163.296875 C 131.109375 163.296875 132.867188 162.128906 135.859375 159.460938 C 136.964844 158.488281 138.394531 156.863281 138.917969 156.277344 C 140.609375 154.328125 142.496094 152.769531 142.496094 147.699219 L 142.496094 142.757812 C 142.496094 138.46875 140.023438 136.714844 138.785156 135.480469 C 138.003906 134.699219 135.921875 132.683594 135.921875 132.683594 L 135.921875 142.824219 C 135.921875 142.824219 138.003906 145.035156 138.917969 145.75 C 143.210938 149.128906 139.828125 154.976562 135.792969 154.976562 C 135.011719 154.976562 118.8125 154.976562 117.644531 154.976562 C 111.007812 155.109375 101.964844 149.191406 101.964844 139.183594 L 101.964844 130.996094 C 102.03125 122.675781 99.6875 122.675781 99.6875 122.675781 Z M 99.6875 122.675781 "/>
<path style=" stroke:none;fill-rule:nonzero;fill:rgb(100%,100%,100%);fill-opacity:1;" d="M 119.59375 141.132812 C 119.59375 142.890625 114.066406 147.503906 113.738281 147.761719 C 113.347656 145.878906 111.917969 143.863281 107.820312 139.703125 L 113.871094 133.660156 C 117.902344 137.6875 119.59375 138.597656 119.59375 141.132812 Z M 119.59375 141.132812 "/>
<path style=" stroke:none;fill-rule:nonzero;fill:rgb(100%,100%,100%);fill-opacity:1;" d="M 56.164062 208.402344 L 46.40625 208.402344 C 43.351562 208.402344 43.609375 205.867188 43.285156 203.722656 L 43.285156 189.816406 C 43.285156 189.816406 45.429688 189.75 47.839844 189.75 C 50.503906 189.75 53.886719 189.359375 57.140625 191.179688 C 55.449219 187.605469 51.808594 185.394531 47.839844 185.527344 L 43.351562 185.527344 L 43.351562 181.039062 C 43.351562 181.039062 43.351562 177.140625 42.375 176.035156 L 48.8125 176.035156 C 54.34375 176.035156 58.636719 175.972656 63.125 178.894531 C 63.125 178.894531 62.28125 171.550781 51.546875 171.550781 L 30.597656 171.550781 C 30.597656 171.550781 34.242188 174.671875 34.113281 180.976562 L 34.242188 206.324219 C 34.242188 212.691406 36.777344 212.886719 36.777344 212.886719 L 57.402344 212.886719 C 62.085938 212.886719 63.710938 209.574219 63.710938 207.753906 L 63.777344 205.347656 C 63.777344 205.347656 62.28125 208.402344 56.164062 208.402344 Z M 56.164062 208.402344 "/>
<path style=" stroke:none;fill-rule:nonzero;fill:rgb(100%,100%,100%);fill-opacity:1;" d="M 111.074219 206.257812 L 111.074219 188.515625 C 111.074219 181.625 105.476562 179.804688 101.25 179.804688 C 95.71875 179.804688 94.027344 184.421875 93.3125 186.046875 C 92.078125 181.753906 87.71875 179.804688 84.203125 179.804688 C 77.503906 179.804688 75.8125 186.175781 75.8125 186.175781 C 75.8125 186.175781 75.683594 180 70.28125 180 L 65.011719 180 C 65.011719 180 68.070312 181.234375 68.070312 186.566406 L 68.070312 206.257812 C 68.070312 212.757812 70.671875 212.886719 70.671875 212.886719 L 79.390625 212.886719 C 77.308594 211.328125 76.074219 208.859375 76.074219 206.195312 L 76.074219 188.710938 C 76.203125 187.929688 77.503906 185.332031 81.210938 185.332031 C 83.359375 185.332031 85.699219 187.539062 85.636719 190.011719 L 85.636719 206.257812 C 85.636719 212.824219 88.238281 212.886719 88.238281 212.886719 L 96.957031 212.886719 C 94.875 211.261719 93.636719 208.859375 93.636719 206.195312 L 93.636719 188.710938 C 94.484375 186.175781 97.214844 184.746094 99.816406 185.589844 C 101.769531 186.242188 103.136719 187.996094 103.199219 190.074219 C 103.199219 190.074219 103.199219 204.894531 103.199219 206.257812 C 103.265625 212.886719 105.804688 212.824219 105.804688 212.824219 C 110.355469 212.824219 114.519531 212.824219 114.519531 212.824219 C 112.375 211.261719 111.136719 208.859375 111.074219 206.257812 Z M 111.074219 206.257812 "/>
<path style=" stroke:none;fill-rule:nonzero;fill:rgb(100%,100%,100%);fill-opacity:1;" d="M 126.296875 206.257812 C 126.296875 208.859375 127.53125 211.328125 129.613281 212.886719 C 129.613281 212.886719 125.449219 212.886719 120.894531 212.886719 C 120.894531 212.886719 118.226562 212.953125 118.226562 206.324219 L 118.226562 186.5 C 118.226562 181.300781 115.234375 179.9375 115.234375 179.9375 L 120.503906 179.9375 C 122.390625 179.9375 126.230469 179.9375 126.230469 187.28125 L 126.230469 206.128906 Z M 126.296875 206.257812 "/>
<path style=" stroke:none;fill-rule:nonzero;fill:rgb(100%,100%,100%);fill-opacity:1;" d="M 153.097656 182.46875 C 153.097656 182.46875 152.253906 180.128906 148.675781 180.128906 C 143.210938 180.128906 141.910156 186.628906 141.910156 186.628906 C 141.453125 181.496094 140.085938 180 136.25 180 L 130.980469 180 C 130.980469 180 134.035156 181.234375 134.035156 186.566406 L 134.035156 206.257812 C 134.035156 212.757812 136.640625 212.886719 136.640625 212.886719 L 145.355469 212.886719 C 143.273438 211.328125 142.039062 208.859375 142.039062 206.257812 L 142.039062 190.074219 C 142.234375 188.710938 143.015625 187.476562 144.1875 186.761719 C 147.113281 184.808594 150.953125 185.394531 153.226562 188.058594 Z M 153.097656 182.46875 "/>
<path style=" stroke:none;fill-rule:nonzero;fill:rgb(100%,100%,100%);fill-opacity:1;" d="M 193.628906 183.640625 C 195.449219 183.640625 197.207031 184.09375 198.765625 184.941406 L 198.765625 180 L 191.480469 180 L 191.480469 172.460938 C 189.917969 174.929688 187.902344 177.140625 185.625 179.027344 C 183.152344 181.039062 177.949219 183.574219 177.949219 183.574219 L 183.480469 183.640625 L 183.480469 206.519531 C 183.480469 212.886719 186.144531 212.886719 186.144531 212.886719 C 190.894531 212.886719 194.796875 212.886719 194.796875 212.886719 C 192.71875 211.394531 191.480469 208.988281 191.414062 206.453125 L 191.414062 183.640625 C 193.757812 183.640625 192.195312 183.640625 193.628906 183.640625 Z M 193.628906 183.640625 "/>
<path style=" stroke:none;fill-rule:nonzero;fill:rgb(100%,100%,100%);fill-opacity:1;" d="M 220.039062 193.585938 C 215.160156 198.65625 211.324219 197.875 208.265625 201.644531 C 208.265625 201.644531 208.785156 206.714844 212.625 208.46875 C 213.925781 209.054688 219.324219 211.003906 222.773438 205.023438 L 222.773438 210.351562 C 222.773438 210.351562 220.5625 212.953125 213.46875 212.953125 C 204.949219 212.953125 199.09375 206.257812 199.09375 197.160156 C 199.09375 188.191406 203.839844 179.9375 212.882812 179.871094 C 221.667969 179.742188 226.480469 186.890625 220.039062 193.585938 Z M 214.707031 191.503906 C 216.136719 188.839844 217.308594 182.082031 212.363281 182.46875 C 206.640625 182.925781 207.746094 198.070312 207.746094 198.070312 C 209.632812 195.988281 212.492188 195.535156 214.707031 191.503906 Z M 214.707031 191.503906 "/>
<path style=" stroke:none;fill-rule:nonzero;fill:rgb(100%,100%,100%);fill-opacity:1;" d="M 122.261719 177.335938 C 124.472656 177.269531 126.164062 175.453125 126.164062 173.304688 C 126.101562 171.097656 124.277344 169.40625 122.132812 169.40625 C 119.984375 169.472656 118.226562 171.226562 118.226562 173.371094 C 118.226562 175.582031 120.050781 177.335938 122.261719 177.335938 Z M 122.261719 177.335938 "/>
<path style=" stroke:none;fill-rule:nonzero;fill:rgb(100%,100%,100%);fill-opacity:1;" d="M 162.140625 209.117188 C 160.1875 209.117188 158.757812 207.039062 158.757812 204.957031 C 158.757812 196.769531 165.457031 195.601562 167.28125 193.453125 L 167.28125 207.296875 C 166.433594 207.949219 165.652344 209.117188 162.140625 209.117188 Z M 167.28125 190.269531 C 165.261719 193.78125 149.519531 194.558594 151.925781 206.714844 C 152.902344 211.523438 156.089844 212.953125 160.125 212.953125 C 164.027344 212.953125 166.433594 210.9375 167.410156 208.988281 C 167.996094 212.628906 169.882812 212.886719 169.882812 212.886719 C 174.4375 212.886719 178.601562 212.886719 178.601562 212.886719 C 176.519531 211.328125 175.21875 208.921875 175.21875 206.324219 L 175.21875 187.800781 C 175.21875 183.378906 170.339844 179.9375 165.132812 179.9375 C 162.207031 179.871094 159.410156 180.714844 157 182.339844 L 157 188.058594 C 157 188.058594 158.824219 183.511719 163.3125 183.511719 C 167.734375 183.511719 168.0625 185.71875 168.0625 186.824219 C 168.125 187.996094 167.929688 189.230469 167.28125 190.269531 Z M 167.28125 190.269531 "/>
<path style=" stroke:none;fill-rule:nonzero;fill:rgb(100%,100%,100%);fill-opacity:1;" d="M 239.296875 203.917969 C 239.363281 206.257812 237.28125 209.3125 232.855469 209.3125 C 228.300781 209.3125 226.480469 204.699219 226.480469 204.699219 L 226.480469 210.546875 C 228.953125 212.109375 231.816406 212.886719 234.742188 212.886719 C 240.664062 212.886719 246.714844 208.402344 246.582031 202.097656 C 246.519531 200.019531 245.800781 198.003906 244.566406 196.378906 C 242.550781 193.714844 238.90625 191.828125 236.042969 190.074219 C 234.417969 189.101562 233.570312 187.28125 233.570312 186.695312 C 233.507812 185.589844 234.09375 183.378906 238.449219 183.378906 C 242.746094 183.378906 244.632812 187.929688 244.632812 187.929688 L 244.632812 182.40625 C 242.222656 180.714844 239.296875 179.804688 236.304688 179.804688 C 231.101562 179.804688 226.351562 183.25 226.480469 187.671875 C 226.546875 191.570312 228.171875 194.039062 231.359375 196.445312 C 232.792969 197.484375 234.289062 198.394531 235.847656 199.238281 C 238.320312 200.605469 239.230469 202.292969 239.296875 203.917969 Z M 239.296875 203.917969 "/>
</g>
</svg>
