<?xml version="1.0" encoding="UTF-8"?>
<svg xmlns="http://www.w3.org/2000/svg" xmlns:xlink="http://www.w3.org/1999/xlink" width="279px" height="62px" viewBox="0 0 279 62" version="1.1">
<g id="surface1">
<path style=" stroke:none;fill-rule:nonzero;fill:rgb(100%,40%,0%);fill-opacity:1;" d="M 33 33.539062 L 16.195312 33.539062 C 15.433594 33.539062 15.085938 33.886719 15.085938 34.515625 C 15.085938 36.042969 15.917969 37.507812 17.585938 38.898438 C 19.25 40.289062 21.058594 40.984375 23 40.984375 C 24.113281 40.984375 25.433594 40.777344 26.820312 40.359375 C 28.210938 39.941406 29.390625 39.386719 30.292969 38.757812 C 31.125 38.203125 31.75 37.921875 32.238281 37.921875 C 32.863281 37.921875 33.488281 38.273438 34.042969 39.035156 C 34.667969 39.800781 34.945312 40.566406 34.945312 41.402344 C 34.945312 43.140625 33.90625 44.742188 31.75 46.34375 C 28 49.195312 23.625 50.589844 18.695312 50.589844 C 13.695312 50.589844 9.53125 49.125 6.128906 46.203125 C 4.460938 44.742188 3.140625 43.074219 2.097656 41.054688 C 0.710938 38.339844 0.015625 35.558594 0.015625 32.566406 C 0.015625 28.597656 1.195312 24.980469 3.628906 21.78125 C 5.710938 18.996094 8.347656 16.980469 11.613281 15.585938 C 14.042969 14.542969 16.683594 14.054688 19.460938 14.054688 C 23.972656 14.054688 27.792969 15.308594 30.988281 17.882812 C 32.585938 19.136719 33.835938 20.667969 34.808594 22.476562 C 35.917969 24.492188 36.472656 26.441406 36.472656 28.320312 C 36.472656 29.851562 36.125 31.105469 35.5 32.148438 C 34.808594 33.054688 33.972656 33.539062 33 33.539062 Z M 17.167969 26.859375 L 20.78125 26.859375 C 22.308594 26.859375 23.070312 26.164062 23.070312 24.773438 C 23.070312 23.519531 22.722656 22.40625 21.960938 21.640625 C 21.195312 20.804688 20.292969 20.457031 19.042969 20.457031 C 17.722656 20.457031 16.683594 21.015625 15.917969 22.058594 C 15.222656 23.03125 14.875 24.007812 14.875 25.050781 C 14.875 25.746094 15.015625 26.234375 15.363281 26.582031 C 15.710938 26.71875 16.265625 26.859375 17.167969 26.859375 Z M 17.167969 26.859375 "/>
<path style=" stroke:none;fill-rule:nonzero;fill:rgb(100%,40%,0%);fill-opacity:1;" d="M 59.113281 13.917969 C 63.277344 13.917969 66.75 14.960938 69.597656 17.046875 C 71.125 18.160156 72.167969 19.414062 72.792969 20.875 C 73.417969 22.335938 73.695312 24.285156 73.695312 26.789062 L 73.625 32.078125 C 73.625 35.765625 73.902344 38.132812 74.390625 39.246094 C 74.667969 39.800781 74.875 40.082031 75.152344 40.21875 C 75.363281 40.359375 75.917969 40.5 76.679688 40.636719 C 77.445312 40.777344 77.792969 41.265625 77.792969 42.167969 C 77.792969 43.28125 77.304688 44.535156 76.402344 45.71875 C 75.5 46.96875 74.320312 48.011719 72.863281 48.847656 C 71.054688 49.890625 69.179688 50.449219 67.238281 50.449219 C 64.738281 50.449219 62.792969 49.613281 61.335938 47.875 C 60.847656 47.246094 60.363281 46.96875 59.945312 46.96875 C 59.460938 46.96875 58.835938 47.246094 58.070312 47.875 C 55.710938 49.613281 53 50.449219 50.015625 50.449219 C 46.890625 50.449219 44.390625 49.753906 42.445312 48.429688 C 41.195312 47.527344 40.222656 46.414062 39.460938 44.953125 C 38.695312 43.558594 38.347656 42.027344 38.347656 40.5 C 38.347656 37.992188 39.320312 35.835938 41.335938 33.957031 C 44.460938 30.964844 49.113281 29.433594 55.292969 29.433594 C 56.683594 29.433594 57.515625 29.296875 57.863281 29.015625 C 58.210938 28.738281 58.417969 28.113281 58.417969 27.136719 C 58.417969 24.632812 58.140625 22.753906 57.652344 21.640625 C 57.097656 20.527344 56.265625 19.972656 55.085938 19.972656 C 54.390625 19.972656 53.765625 20.179688 53.210938 20.597656 C 52.652344 21.015625 51.960938 21.78125 51.125 22.964844 C 49.042969 25.957031 46.820312 27.484375 44.527344 27.484375 C 43.347656 27.484375 42.445312 27.136719 41.683594 26.441406 C 40.917969 25.746094 40.570312 24.839844 40.570312 23.726562 C 40.570312 22.613281 41.058594 21.433594 41.960938 20.320312 C 42.863281 19.207031 44.113281 18.160156 45.710938 17.328125 C 49.945312 15.03125 54.390625 13.917969 59.113281 13.917969 Z M 56.683594 34.582031 C 55.640625 34.582031 54.738281 35 53.972656 35.835938 C 53.210938 36.671875 52.792969 37.714844 52.792969 38.898438 C 52.792969 40.011719 53.070312 40.984375 53.625 41.679688 C 54.183594 42.378906 54.875 42.726562 55.777344 42.726562 C 57.652344 42.726562 58.625 41.125 58.625 37.921875 C 58.625 36.601562 58.488281 35.765625 58.210938 35.28125 C 58 34.863281 57.445312 34.582031 56.683594 34.582031 Z M 56.683594 34.582031 "/>
<path style=" stroke:none;fill-rule:nonzero;fill:rgb(100%,40%,0%);fill-opacity:1;" d="M 94.390625 13.917969 C 95.570312 13.917969 97.515625 14.195312 100.222656 14.683594 C 100.777344 14.753906 101.195312 14.820312 101.542969 14.820312 C 101.957031 14.820312 102.722656 14.613281 103.902344 14.195312 C 104.457031 13.988281 104.945312 13.847656 105.292969 13.847656 C 106.402344 13.847656 107.515625 14.542969 108.625 15.933594 C 109.527344 17.046875 110.292969 18.300781 110.847656 19.621094 C 111.402344 20.945312 111.679688 22.128906 111.679688 23.101562 C 111.679688 24.078125 111.332031 24.839844 110.707031 25.46875 C 110.015625 26.09375 109.179688 26.441406 108.207031 26.441406 C 107.375 26.441406 106.613281 26.234375 105.988281 25.816406 C 105.363281 25.398438 104.25 24.492188 102.863281 23.171875 C 101.332031 21.710938 100.082031 20.945312 99.113281 20.945312 C 98.417969 20.945312 97.863281 21.222656 97.375 21.710938 C 96.890625 22.199219 96.613281 22.753906 96.613281 23.449219 C 96.613281 24.632812 97.722656 25.675781 99.945312 26.71875 C 103.972656 28.53125 107.027344 30.476562 109.179688 32.636719 C 110.988281 34.445312 111.890625 36.671875 111.890625 39.246094 C 111.890625 42.585938 110.429688 45.300781 107.515625 47.527344 C 105.015625 49.476562 101.957031 50.449219 98.347656 50.449219 C 97.445312 50.449219 95.707031 50.308594 93.277344 49.960938 C 90.988281 49.683594 89.667969 49.542969 89.390625 49.542969 C 89.113281 49.542969 88.695312 49.613281 88.347656 49.683594 C 87.652344 49.753906 87.167969 49.824219 86.820312 49.824219 C 85.710938 49.824219 84.804688 49.542969 84.179688 48.988281 C 83.210938 48.082031 82.304688 46.691406 81.472656 44.8125 C 80.640625 42.933594 80.222656 41.265625 80.222656 39.941406 C 80.222656 37.785156 81.054688 36.671875 82.792969 36.671875 C 83.488281 36.671875 84.042969 36.878906 84.597656 37.296875 C 85.152344 37.714844 86.335938 38.898438 88.140625 40.847656 C 89.113281 41.890625 89.945312 42.585938 90.570312 43.003906 C 91.195312 43.421875 91.890625 43.558594 92.652344 43.558594 C 93.417969 43.558594 94.042969 43.351562 94.527344 42.933594 C 95.015625 42.515625 95.222656 41.960938 95.222656 41.265625 C 95.222656 40.21875 94.320312 39.246094 92.445312 38.339844 C 88.625 36.460938 85.847656 34.515625 84.179688 32.496094 C 82.515625 30.476562 81.613281 28.183594 81.613281 25.539062 C 81.613281 22.683594 82.445312 20.25 84.179688 18.230469 C 86.679688 15.449219 90.085938 13.917969 94.390625 13.917969 Z M 94.390625 13.917969 "/>
<path style=" stroke:none;fill-rule:nonzero;fill:rgb(100%,40%,0%);fill-opacity:1;" d="M 148.832031 31.523438 L 144.109375 44.464844 C 142.929688 47.664062 141.75 50.308594 140.570312 52.328125 C 139.390625 54.34375 138.070312 56.085938 136.542969 57.546875 C 133.484375 60.46875 129.734375 62 125.359375 62 C 121.820312 62 118.972656 61.09375 116.820312 59.214844 C 115.152344 57.753906 114.320312 55.945312 114.320312 53.789062 C 114.320312 51.980469 114.875 50.449219 116.054688 49.195312 C 117.238281 47.945312 118.695312 47.316406 120.363281 47.316406 C 122.097656 47.316406 123.417969 47.875 124.527344 49.058594 C 125.015625 49.613281 125.359375 50.03125 125.5 50.449219 C 125.640625 50.867188 125.917969 51.769531 126.265625 53.09375 C 126.542969 54.136719 127.097656 54.695312 128.070312 54.695312 C 128.832031 54.695312 129.390625 54.34375 129.945312 53.71875 C 130.5 53.09375 130.707031 52.257812 130.707031 51.355469 C 130.707031 50.238281 130.082031 48.363281 128.832031 45.71875 L 120.222656 27.417969 C 119.320312 25.539062 118.625 24.355469 118.207031 23.867188 C 117.722656 23.378906 116.75 22.824219 115.222656 22.128906 C 114.738281 21.917969 114.320312 21.570312 113.972656 21.015625 C 113.625 20.457031 113.488281 19.902344 113.488281 19.414062 C 113.488281 17.328125 115.570312 15.867188 119.804688 15.101562 C 122.582031 14.613281 125.777344 14.335938 129.390625 14.335938 C 131.890625 14.335938 133.902344 14.613281 135.359375 15.101562 C 137.304688 15.796875 138.277344 16.980469 138.277344 18.648438 C 138.277344 19.273438 138 19.972656 137.445312 20.734375 C 136.890625 21.5 136.679688 22.199219 136.679688 22.753906 C 136.679688 23.3125 136.820312 23.9375 137.027344 24.5625 C 137.304688 25.191406 137.792969 26.234375 138.625 27.695312 C 139.527344 29.363281 140.292969 30.199219 140.984375 30.199219 C 141.75 30.199219 142.515625 29.433594 143.277344 27.972656 C 144.042969 26.511719 144.457031 25.121094 144.457031 23.726562 C 144.457031 22.613281 144.179688 21.710938 143.554688 21.085938 C 142.652344 20.039062 142.167969 19.066406 142.167969 18.300781 C 142.167969 17.117188 143 16.144531 144.597656 15.378906 C 146.195312 14.683594 148.347656 14.265625 151.054688 14.265625 C 156.125 14.265625 158.625 15.449219 158.625 17.882812 C 158.625 18.789062 158.347656 19.484375 157.859375 20.039062 C 157.375 20.597656 156.402344 21.085938 155.082031 21.570312 C 153.972656 21.988281 153.070312 22.683594 152.375 23.726562 C 151.402344 25.191406 150.222656 27.832031 148.832031 31.523438 Z M 148.832031 31.523438 "/>
<path style=" stroke:none;fill-rule:nonzero;fill:rgb(100%,40%,0%);fill-opacity:1;" d="M 189.527344 0 C 192.164062 0 194.875 0.207031 197.652344 0.695312 C 199.875 1.042969 201.539062 1.601562 202.511719 2.296875 C 203.484375 2.992188 203.972656 3.898438 203.972656 5.078125 C 203.972656 5.84375 203.761719 6.402344 203.414062 6.820312 C 203.070312 7.238281 202.304688 7.722656 201.125 8.351562 C 199.734375 9.046875 198.972656 9.882812 198.761719 10.855469 C 198.554688 11.828125 198.347656 15.585938 198.207031 22.058594 C 198.136719 28.390625 198.070312 32.148438 198 33.402344 C 197.929688 34.652344 197.789062 35.90625 197.582031 37.089844 C 196.886719 40.566406 195.5 43.28125 193.414062 45.300781 C 191.679688 46.898438 189.527344 48.222656 186.820312 49.125 C 184.109375 50.03125 181.332031 50.519531 178.347656 50.519531 C 175.707031 50.519531 173.070312 50.171875 170.429688 49.476562 C 167.792969 48.777344 165.5 47.804688 163.554688 46.621094 C 161.957031 45.648438 160.636719 44.257812 159.734375 42.585938 C 158.761719 40.914062 158.277344 39.035156 158.277344 37.160156 C 158.277344 34.792969 159.042969 32.773438 160.5 31.242188 C 162.027344 29.710938 163.902344 28.878906 166.125 28.878906 C 168.347656 28.878906 170.222656 29.503906 171.75 30.824219 C 173.277344 32.148438 174.042969 33.816406 174.042969 35.765625 C 174.042969 36.253906 173.902344 37.089844 173.625 38.273438 C 173.554688 38.480469 173.554688 38.757812 173.554688 39.035156 C 173.554688 39.800781 173.832031 40.429688 174.386719 40.914062 C 174.945312 41.402344 175.636719 41.613281 176.542969 41.613281 C 178.136719 41.613281 179.386719 40.914062 180.359375 39.453125 C 181.332031 37.992188 181.820312 36.113281 181.820312 33.816406 L 181.75 30.546875 L 181.679688 21.78125 C 181.472656 16.492188 181.332031 13.359375 181.195312 12.386719 C 181.054688 11.410156 180.847656 10.644531 180.359375 10.089844 C 180.011719 9.601562 179.667969 9.324219 179.386719 9.183594 C 179.109375 9.046875 178.347656 8.835938 177.167969 8.488281 C 176.609375 8.351562 176.125 8.070312 175.707031 7.515625 C 175.292969 6.957031 175.082031 6.402344 175.082031 5.777344 C 175.082031 4.523438 175.570312 3.480469 176.609375 2.714844 C 177.652344 1.949219 179.25 1.320312 181.539062 0.835938 C 184.179688 0.277344 186.820312 0 189.527344 0 Z M 189.527344 0 "/>
<path style=" stroke:none;fill-rule:nonzero;fill:rgb(100%,40%,0%);fill-opacity:1;" d="M 238.761719 33.539062 L 222.027344 33.539062 C 221.261719 33.539062 220.914062 33.886719 220.914062 34.515625 C 220.914062 36.042969 221.75 37.507812 223.414062 38.898438 C 225.082031 40.289062 226.886719 40.984375 228.832031 40.984375 C 229.941406 40.984375 231.261719 40.777344 232.652344 40.359375 C 234.039062 39.941406 235.222656 39.386719 236.125 38.757812 C 236.957031 38.203125 237.582031 37.921875 238.066406 37.921875 C 238.691406 37.921875 239.316406 38.273438 239.875 39.035156 C 240.5 39.800781 240.777344 40.566406 240.777344 41.402344 C 240.777344 43.140625 239.734375 44.742188 237.582031 46.34375 C 233.832031 49.195312 229.457031 50.589844 224.527344 50.589844 C 219.527344 50.589844 215.359375 49.125 211.957031 46.203125 C 210.289062 44.742188 208.972656 43.074219 207.929688 41.054688 C 206.539062 38.339844 205.847656 35.558594 205.847656 32.566406 C 205.847656 28.597656 207.027344 24.980469 209.457031 21.78125 C 211.539062 18.996094 214.179688 16.980469 217.441406 15.585938 C 219.875 14.542969 222.511719 14.054688 225.289062 14.054688 C 229.804688 14.054688 233.625 15.308594 236.816406 17.882812 C 238.414062 19.136719 239.664062 20.667969 240.636719 22.476562 C 241.75 24.492188 242.304688 26.441406 242.304688 28.320312 C 242.304688 29.851562 241.957031 31.105469 241.332031 32.148438 C 240.636719 33.054688 239.804688 33.539062 238.761719 33.539062 Z M 222.929688 26.859375 L 226.539062 26.859375 C 228.066406 26.859375 228.832031 26.164062 228.832031 24.773438 C 228.832031 23.519531 228.484375 22.40625 227.722656 21.640625 C 226.957031 20.804688 226.054688 20.457031 224.804688 20.457031 C 223.484375 20.457031 222.441406 21.015625 221.679688 22.058594 C 220.984375 23.03125 220.636719 24.007812 220.636719 25.050781 C 220.636719 25.746094 220.777344 26.234375 221.125 26.582031 C 221.472656 26.71875 222.097656 26.859375 222.929688 26.859375 Z M 222.929688 26.859375 "/>
<path style=" stroke:none;fill-rule:nonzero;fill:rgb(100%,40%,0%);fill-opacity:1;" d="M 265.21875 23.3125 L 265.21875 35.347656 C 265.21875 36.808594 265.566406 37.921875 266.261719 38.828125 C 266.957031 39.734375 267.859375 40.21875 268.96875 40.21875 C 269.871094 40.21875 271.121094 39.800781 272.652344 38.96875 C 272.996094 38.757812 273.34375 38.621094 273.691406 38.621094 C 274.246094 38.621094 274.804688 38.96875 275.289062 39.664062 C 275.777344 40.359375 275.984375 41.125 275.984375 41.890625 C 275.984375 43.351562 275.152344 44.8125 273.554688 46.132812 C 270.152344 48.988281 266.121094 50.449219 261.261719 50.449219 C 257.441406 50.449219 254.386719 49.40625 252.09375 47.246094 C 249.804688 45.089844 248.625 42.238281 248.625 38.757812 L 248.625 22.265625 C 248.625 21.710938 248.554688 21.363281 248.414062 21.222656 C 248.277344 21.085938 247.929688 21.015625 247.375 21.015625 L 243.832031 21.015625 C 243.136719 21.015625 242.71875 20.875 242.511719 20.667969 C 242.304688 20.457031 242.234375 19.902344 242.234375 19.066406 L 242.234375 17.464844 C 242.234375 16.769531 242.511719 16.214844 243.066406 15.867188 L 259.386719 5.566406 C 259.804688 5.359375 260.289062 5.21875 260.914062 5.21875 L 263.832031 5.21875 C 264.457031 5.21875 264.804688 5.359375 265.011719 5.636719 C 265.21875 5.914062 265.289062 6.472656 265.289062 7.238281 L 265.289062 12.039062 C 265.289062 12.734375 265.429688 13.222656 265.636719 13.429688 C 265.84375 13.636719 266.332031 13.777344 267.09375 13.777344 L 273.691406 13.777344 C 274.59375 13.777344 275.152344 13.917969 275.429688 14.265625 C 275.707031 14.613281 275.84375 15.238281 275.84375 16.351562 L 275.84375 18.441406 C 275.84375 19.554688 275.707031 20.386719 275.359375 20.804688 C 275.011719 21.222656 274.386719 21.433594 273.554688 21.433594 L 267.09375 21.433594 C 266.402344 21.433594 265.984375 21.570312 265.777344 21.78125 C 265.359375 22.199219 265.21875 22.613281 265.21875 23.3125 Z M 265.21875 23.3125 "/>
</g>
</svg>
