<?xml version="1.0" encoding="UTF-8"?>
<svg xmlns="http://www.w3.org/2000/svg" xmlns:xlink="http://www.w3.org/1999/xlink" width="279px" height="33px" viewBox="0 0 279 33" version="1.1">
<g id="surface1">
<path style=" stroke:none;fill-rule:nonzero;fill:rgb(16.862745%,27.843137%,47.45098%);fill-opacity:1;" d="M 60.804688 32.746094 L 51.984375 21.398438 L 48.667969 21.398438 L 48.667969 32.746094 L 38.554688 32.746094 L 38.554688 2.875 L 53.601562 2.875 C 64.605469 2.875 71.644531 5.992188 71.644531 12.179688 C 71.644531 16.359375 67.601562 18.960938 62.101562 20.324219 L 71.808594 32.746094 Z M 53.117188 8.082031 L 48.667969 8.082031 L 48.667969 16.402344 L 53.683594 16.402344 C 58.863281 16.402344 61.53125 14.992188 61.53125 12.261719 C 61.53125 9.574219 59.1875 8.082031 53.117188 8.082031 Z M 96.980469 21.476562 L 96.980469 32.742188 L 86.867188 32.742188 L 86.867188 21.5625 L 72.300781 2.875 L 83.46875 2.875 L 87.835938 8.933594 C 89.699219 11.535156 91.558594 14.480469 92.046875 15.886719 C 92.609375 14.480469 94.472656 11.40625 96.253906 8.933594 L 100.621094 2.875 L 111.625 2.875 Z M 135.214844 32.746094 L 132.546875 26.515625 L 119.847656 26.515625 L 117.179688 32.746094 L 106.820312 32.746094 L 121.304688 2.875 L 131.175781 2.875 L 145.652344 32.746094 Z M 128.828125 17.984375 C 127.855469 15.679688 126.5625 12.21875 126.160156 10.730469 C 125.753906 12.261719 124.621094 15.464844 123.570312 17.894531 L 122.03125 21.527344 L 130.363281 21.527344 Z M 173.167969 32.746094 L 162.734375 19.433594 C 161.273438 17.554688 159.496094 15.121094 158.445312 13.375 C 158.523438 15.210938 158.605469 18.28125 158.605469 20.15625 L 158.605469 32.746094 L 149.382812 32.746094 L 149.382812 2.878906 L 159.574219 2.878906 L 169.527344 15.980469 C 170.902344 17.769531 172.925781 20.546875 173.976562 22.210938 C 173.894531 20.375 173.652344 17.132812 173.652344 15.25 L 173.652344 2.878906 L 182.878906 2.878906 L 182.878906 32.746094 Z M 215.527344 32.746094 L 212.855469 26.515625 L 200.152344 26.515625 L 197.484375 32.746094 L 187.128906 32.746094 L 201.609375 2.875 L 211.480469 2.875 L 225.960938 32.746094 Z M 209.132812 17.984375 C 208.164062 15.679688 206.871094 12.21875 206.464844 10.730469 C 206.058594 12.261719 204.925781 15.464844 203.875 17.894531 L 202.335938 21.527344 L 210.671875 21.527344 Z M 229.929688 2.871094 L 240.039062 2.871094 L 240.039062 32.742188 L 229.929688 32.742188 Z M 271 32.746094 L 262.179688 21.398438 L 258.863281 21.398438 L 258.863281 32.746094 L 248.75 32.746094 L 248.75 2.875 L 263.796875 2.875 C 274.800781 2.875 281.839844 5.992188 281.839844 12.179688 C 281.839844 16.359375 277.796875 18.960938 272.292969 20.324219 L 282 32.746094 Z M 263.3125 8.082031 L 258.863281 8.082031 L 258.863281 16.402344 L 263.878906 16.402344 C 269.054688 16.402344 271.726562 14.992188 271.726562 12.261719 C 271.726562 9.574219 269.382812 8.082031 263.3125 8.082031 Z M 263.3125 8.082031 "/>
<path style=" stroke:none;fill-rule:nonzero;fill:rgb(95.686275%,79.215686%,20.784314%);fill-opacity:1;" d="M 22 1.8125 C 24.097656 2.511719 26.316406 3.050781 28.574219 3.308594 L 30.152344 3.324219 L 30.199219 3.28125 C 31.144531 3.304688 31.839844 2.890625 32.757812 2.6875 C 32.855469 2.664062 33.09375 2.605469 33.195312 2.738281 C 33.238281 2.914062 33.167969 3.105469 32.96875 3.238281 C 31.847656 4.097656 30.507812 4.742188 29.246094 5.203125 L 29.246094 5.175781 C 28.832031 5.253906 28.386719 5.433594 27.957031 5.578125 C 26.402344 6.046875 24.632812 6.34375 22.960938 6.222656 C 19.757812 6.058594 17.035156 4.910156 14.207031 5.046875 C 11.425781 4.882812 8.785156 5.949219 7.308594 8.050781 C 6.550781 9.148438 5.945312 10.308594 5.757812 11.582031 C 5.839844 12.738281 7.457031 13.179688 8.0625 14.136719 C 8.410156 14.714844 8.582031 15.347656 8.84375 15.949219 C 9.515625 17.15625 10.179688 18.363281 11.003906 19.5 L 10.984375 19.523438 C 11.464844 20.28125 12.234375 20.941406 13.144531 21.386719 C 14.324219 22.230469 15.367188 23.292969 15.988281 24.433594 L 15.953125 24.449219 C 16.652344 25.5625 17.042969 26.71875 17.582031 27.882812 C 17.824219 28.59375 18.089844 29.222656 18.296875 29.917969 C 18.367188 29.980469 18.367188 30.085938 18.410156 30.175781 C 18.601562 30.726562 18.761719 31.3125 18.996094 31.820312 C 18.894531 31.898438 19.074219 31.925781 19.054688 32 C 19.066406 32.308594 19.367188 32.773438 18.964844 32.980469 C 18.382812 32.460938 18.078125 31.707031 17.761719 31.15625 C 17.074219 29.953125 16.289062 28.789062 15.4375 27.644531 L 15.464844 27.621094 C 14.945312 26.964844 14.367188 26.226562 13.773438 25.546875 C 11.261719 22.761719 7.574219 21.085938 4.878906 18.433594 L 4.851562 18.457031 C 4.625 18.25 4.476562 17.976562 4.289062 17.738281 L 4.308594 17.714844 C 3.980469 17.253906 3.785156 16.726562 3.464844 16.253906 L 3.484375 16.230469 C 2.648438 14.984375 1.847656 13.660156 1.308594 12.351562 C 1.195312 11.769531 0.996094 11.269531 0.953125 10.601562 L 0.890625 10.382812 C 0.925781 9.777344 -0.578125 9.421875 0.25 8.257812 C 0.769531 7.695312 2.78125 7.003906 3.464844 5.945312 C 3.480469 5.789062 3.515625 5.601562 3.378906 5.457031 C 3.378906 5.34375 3.261719 5.226562 3.183594 5.109375 C 2.800781 4.636719 1.769531 5.011719 1.785156 4.308594 C 1.890625 4.304688 1.792969 4.210938 1.863281 4.171875 C 1.804688 3.828125 1.78125 3.597656 1.878906 3.304688 C 2.085938 2.730469 2.289062 2.070312 2.246094 1.492188 C 2.289062 1.273438 2.507812 1.144531 2.726562 1.058594 C 3.152344 0.953125 3.527344 0.894531 3.949219 0.835938 L 4 0.878906 C 4.972656 0.800781 6.136719 0.871094 6.78125 1.636719 C 7.058594 2.214844 6.84375 2.902344 6.6875 3.488281 C 6.636719 3.824219 6.269531 4.097656 6.355469 4.453125 C 6.484375 4.585938 6.75 4.578125 6.921875 4.503906 C 8.386719 3.613281 9.664062 2.375 10.734375 1.128906 C 11.714844 0.203125 13.164062 -0.113281 14.496094 0.078125 C 17.195312 0.285156 19.476562 1.191406 21.992188 1.808594 Z M 22 1.8125 "/>
<path style=" stroke:none;fill-rule:nonzero;fill:rgb(95.686275%,79.215686%,20.784314%);fill-opacity:1;" d="M 15.042969 6.695312 C 15.425781 7.203125 14.917969 7.648438 14.765625 8.097656 C 13.179688 10.480469 12.628906 13.183594 11.578125 15.738281 C 11.5 15.828125 11.34375 15.855469 11.230469 15.820312 C 10.949219 15.617188 10.949219 15.289062 10.980469 15 C 11.191406 12.230469 11.921875 9.628906 13.097656 7.152344 C 13.375 6.757812 13.84375 6.308594 14.445312 6.402344 C 14.675781 6.449219 14.878906 6.527344 15.042969 6.695312 Z M 19.21875 7.417969 C 19.421875 8.328125 18.769531 9.078125 18.480469 9.890625 C 16.941406 12.976562 15.089844 15.996094 14.175781 19.296875 C 14.132812 19.398438 14.074219 19.542969 13.949219 19.589844 C 13.820312 19.625 13.710938 19.558594 13.675781 19.464844 C 13.367188 18.15625 13.722656 16.789062 14.058594 15.542969 C 14.9375 12.777344 16 9.941406 17.484375 7.367188 C 17.65625 7.234375 17.683594 7.125 17.898438 7.0625 C 18.414062 7.007812 18.933594 7.046875 19.21875 7.417969 Z M 23.675781 7.574219 C 24.089844 7.886719 23.878906 8.480469 23.714844 8.847656 C 21.910156 12.859375 18.984375 16.320312 17.773438 20.527344 C 17.4375 21.417969 17.222656 22.339844 16.945312 23.238281 C 16.894531 23.398438 16.660156 23.40625 16.492188 23.363281 C 16.328125 22.984375 16.378906 22.5 16.378906 22.085938 C 16.757812 18.707031 17.5625 15.421875 19.210938 12.480469 C 19.960938 11.007812 20.683594 9.6875 21.46875 8.253906 C 21.691406 7.847656 22.0625 7.480469 22.601562 7.347656 C 23 7.324219 23.382812 7.417969 23.675781 7.574219 Z M 28.625 7.78125 C 28.914062 8.265625 28.632812 8.800781 28.503906 9.269531 C 27.351562 12.492188 25.203125 15.160156 23.480469 18.097656 C 22 20.507812 21.035156 23.1875 20.050781 25.808594 C 19.710938 26.59375 19.589844 27.46875 19.175781 28.214844 C 19.140625 28.296875 19.035156 28.25 18.964844 28.269531 C 18.710938 28.054688 18.742188 27.746094 18.683594 27.476562 C 18.878906 24.195312 20.136719 21.234375 21.320312 18.273438 C 22.804688 14.972656 24.789062 11.824219 26.140625 8.410156 C 26.328125 7.980469 26.699219 7.453125 27.273438 7.289062 C 27.847656 7.203125 28.28125 7.410156 28.625 7.78125 Z M 28.625 7.78125 "/>
</g>
</svg>
