<?xml version="1.0" encoding="UTF-8"?>
<svg xmlns="http://www.w3.org/2000/svg" xmlns:xlink="http://www.w3.org/1999/xlink" width="279px" height="91px" viewBox="0 0 279 91" version="1.1">
<g id="surface1">
<path style=" stroke:none;fill-rule:nonzero;fill:rgb(100%,39.215686%,13.72549%);fill-opacity:1;" d="M 73.191406 63.105469 C 75.875 67.691406 79.335938 68.988281 82.625 68.988281 C 84.351562 69.027344 86.074219 68.792969 87.730469 68.292969 L 87.730469 75.398438 C 85.832031 75.851562 83.886719 76.085938 81.9375 76.09375 C 74.925781 76.09375 71.296875 73.5 67.136719 67.257812 L 66.789062 66.734375 L 70.339844 58.683594 L 70.601562 58.683594 L 73.191406 63.097656 M 67.136719 41.707031 L 66.789062 42.230469 L 70.339844 50.195312 L 70.601562 50.195312 L 73.191406 45.957031 C 75.960938 41.453125 79.335938 39.894531 82.625 39.894531 C 84.351562 39.859375 86.074219 40.09375 87.730469 40.59375 L 87.730469 33.402344 C 85.828125 32.976562 83.886719 32.769531 81.9375 32.792969 C 74.925781 32.792969 71.296875 35.472656 67.136719 41.714844 M 62.988281 43.097656 C 59.261719 34.867188 54.589844 32.789062 48.015625 32.789062 C 46.058594 32.816406 44.113281 33.074219 42.21875 33.566406 L 42.21875 40.496094 C 43.617188 40.054688 45.078125 39.847656 46.542969 39.886719 C 50.359375 39.886719 53.121094 41.355469 55.628906 46.378906 L 59.644531 54.472656 L 55.628906 62.574219 C 53.125 67.59375 50.347656 68.980469 46.542969 68.980469 C 45.074219 68.992188 43.613281 68.753906 42.21875 68.285156 L 42.21875 75.300781 C 44.101562 75.851562 46.054688 76.117188 48.015625 76.085938 C 54.59375 76.085938 59.351562 73.917969 62.988281 65.863281 L 68.179688 54.433594 L 62.988281 43.089844 Z M 19.195312 51.414062 C 22.34375 51.414062 26.296875 51.347656 30.792969 51.0625 L 30.792969 49.59375 C 30.792969 41.890625 28.289062 39.199219 20.578125 39.199219 L 19.195312 39.199219 C 11.410156 39.199219 8.207031 42.574219 8.207031 49.933594 L 8.207031 51.121094 C 11.84375 51.328125 15.589844 51.40625 19.195312 51.40625 M 20.929688 32.097656 C 33.386719 32.097656 38.84375 36.863281 38.84375 49.242188 L 38.84375 57.03125 C 32.351562 57.640625 25.949219 57.808594 20.058594 57.808594 C 16.183594 57.808594 12.167969 57.808594 8.199219 57.539062 L 8.199219 59.019531 C 8.199219 67.769531 13.132812 69.5 23 69.5 L 23.695312 69.5 C 28.4375 69.402344 33.128906 68.464844 37.546875 66.730469 L 37.546875 73.835938 C 35.148438 74.800781 32.65625 75.511719 30.109375 75.957031 C 27.683594 76.417969 25.222656 76.664062 22.753906 76.691406 L 21.632812 76.691406 C 6.488281 76.691406 -0.0078125 71.582031 -0.0078125 58.15625 L -0.0078125 50.625 C -0.0078125 37.464844 6.222656 32.09375 19.464844 32.09375 L 20.9375 32.09375 M 235.660156 51.316406 L 230.8125 50.453125 C 223.625 49.15625 221.980469 48.808594 221.980469 44.828125 L 221.980469 44.480469 C 221.980469 39.804688 226.394531 39.195312 232.109375 39.195312 L 232.632812 39.195312 C 237.800781 39.304688 242.933594 40.144531 247.863281 41.703125 L 247.863281 34.683594 C 242.8125 33 237.527344 32.125 232.203125 32.089844 L 231.683594 32.089844 C 221.730469 32.089844 213.859375 34.683594 213.859375 44.300781 L 213.859375 45.859375 C 213.859375 53.914062 218.53125 56.253906 226.925781 57.289062 L 231.859375 57.898438 C 239.472656 58.855469 240.941406 60.066406 240.941406 63.871094 L 240.941406 64.394531 C 240.941406 69.15625 236.878906 69.679688 230.726562 69.679688 L 230.117188 69.679688 C 224.824219 69.496094 219.59375 68.472656 214.617188 66.648438 L 214.617188 74.089844 C 219.757812 75.789062 225.128906 76.691406 230.539062 76.773438 L 230.976562 76.773438 C 242.140625 76.773438 248.980469 74.179688 248.980469 64.734375 L 248.980469 63.261719 C 248.980469 54.859375 244.742188 52.953125 235.652344 51.308594 M 274.683594 51.308594 L 269.835938 50.445312 C 262.648438 49.148438 261.003906 48.800781 261.003906 44.824219 L 261.003906 44.472656 C 261.003906 39.796875 265.417969 39.191406 271.132812 39.191406 L 271.65625 39.191406 C 276.824219 39.296875 281.957031 40.140625 286.886719 41.695312 L 286.886719 34.683594 C 281.835938 33 276.550781 32.125 271.226562 32.089844 L 270.707031 32.089844 C 260.753906 32.089844 252.878906 34.683594 252.878906 44.300781 L 252.878906 45.859375 C 252.878906 53.914062 257.550781 56.253906 265.945312 57.289062 L 270.878906 57.898438 C 278.492188 58.855469 279.960938 60.066406 279.960938 63.871094 L 279.960938 64.394531 C 279.960938 69.15625 275.898438 69.679688 269.746094 69.679688 L 269.136719 69.679688 C 263.84375 69.496094 258.613281 68.472656 253.636719 66.648438 L 253.636719 74.089844 C 258.78125 75.789062 264.148438 76.691406 269.558594 76.773438 L 269.996094 76.773438 C 281.160156 76.773438 288 74.179688 288 64.734375 L 288 63.261719 C 288 54.859375 283.761719 52.953125 274.671875 51.308594 M 125.289062 49.925781 C 125.289062 42.132812 122.949219 39.617188 115.25 39.617188 L 115.074219 39.617188 C 109.914062 39.796875 105.003906 41.898438 101.3125 45.511719 L 101.3125 66.984375 C 105.3125 68.414062 109.523438 69.175781 113.769531 69.230469 C 122.855469 69.230469 125.28125 66.890625 125.28125 58.410156 L 125.28125 49.921875 Z M 117.851562 32.347656 C 128.929688 32.347656 133.425781 37.109375 133.425781 48.542969 L 133.425781 57.804688 C 133.425781 70.878906 128.492188 76.511719 115.683594 76.511719 L 114.988281 76.511719 C 110.332031 76.441406 105.710938 75.621094 101.3125 74.082031 L 101.3125 89.234375 L 93.179688 89.234375 L 93.179688 32.777344 L 101.226562 32.777344 L 101.226562 38.144531 C 105.859375 34.40625 111.628906 32.359375 117.578125 32.339844 L 117.839844 32.339844 M 189.160156 51.390625 C 192.304688 51.390625 196.257812 51.324219 200.757812 51.039062 L 200.757812 49.570312 C 200.757812 41.863281 198.253906 39.175781 190.542969 39.175781 L 189.160156 39.175781 C 181.375 39.175781 178.171875 42.550781 178.171875 49.910156 L 178.171875 51.097656 C 181.808594 51.304688 185.554688 51.382812 189.160156 51.382812 M 190.890625 32.074219 C 203.351562 32.074219 208.804688 36.835938 208.804688 49.21875 L 208.804688 57.007812 C 202.316406 57.617188 195.910156 57.785156 190.023438 57.785156 C 186.148438 57.785156 182.132812 57.785156 178.164062 57.515625 L 178.164062 58.996094 C 178.164062 67.742188 183.097656 69.476562 192.960938 69.476562 L 193.65625 69.476562 C 198.402344 69.378906 203.089844 68.441406 207.507812 66.707031 L 207.507812 73.8125 C 205.109375 74.777344 202.617188 75.488281 200.070312 75.929688 C 197.644531 76.394531 195.183594 76.640625 192.71875 76.667969 L 191.59375 76.667969 C 176.453125 76.667969 169.957031 71.558594 169.957031 58.132812 L 169.957031 50.601562 C 169.957031 37.441406 176.1875 32.070312 189.429688 32.070312 L 190.90625 32.070312 M 148.761719 38.238281 L 148.761719 32.761719 L 140.710938 32.761719 L 140.710938 76.066406 L 148.847656 76.066406 L 148.847656 45.582031 C 152.648438 42.035156 157.664062 40.078125 162.863281 40.125 C 164.492188 40.121094 166.117188 40.296875 167.710938 40.648438 L 167.710938 32.941406 C 166.324219 32.59375 164.902344 32.417969 163.472656 32.417969 C 159.203125 32.417969 154.617188 33.675781 148.757812 38.242188 "/>
<path style=" stroke:none;fill-rule:nonzero;fill:rgb(86.27451%,0%,19.607843%);fill-opacity:1;" d="M 69.671875 16.273438 C 70.753906 15.632812 71.644531 14.714844 72.253906 13.613281 C 72.859375 12.511719 73.164062 11.269531 73.128906 10.011719 C 73.128906 3.839844 68.710938 1.796875 60.875 1.796875 L 47.257812 1.796875 L 47.257812 22.6875 L 53.933594 22.6875 L 53.933594 18.320312 L 60.882812 18.320312 C 61.863281 18.324219 62.847656 18.269531 63.824219 18.164062 C 65.050781 19.457031 65.988281 21 66.566406 22.6875 L 73.507812 22.6875 C 72.753906 20.277344 71.4375 18.078125 69.671875 16.273438 Z M 61.195312 13.515625 L 53.933594 13.515625 L 53.933594 6.617188 L 61.199219 6.617188 C 64.726562 6.617188 66.726562 7.25 66.726562 10.015625 C 66.726562 12.785156 64.726562 13.515625 61.195312 13.515625 Z M 61.195312 13.515625 "/>
<path style=" stroke:none;fill-rule:nonzero;fill:rgb(86.27451%,0%,19.607843%);fill-opacity:1;" d="M 41.957031 1.796875 L 35.285156 1.796875 L 35.285156 22.691406 L 41.957031 22.691406 Z M 41.957031 1.796875 "/>
<path style=" stroke:none;fill-rule:nonzero;fill:rgb(86.27451%,0%,19.607843%);fill-opacity:1;" d="M 95.828125 1.796875 L 89.15625 1.796875 L 89.15625 22.691406 L 95.828125 22.691406 Z M 95.828125 1.796875 "/>
<path style=" stroke:none;fill-rule:nonzero;fill:rgb(86.27451%,0%,19.607843%);fill-opacity:1;" d="M 170.644531 1.796875 L 163.972656 1.796875 L 163.972656 22.691406 L 170.644531 22.691406 Z M 170.644531 1.796875 "/>
<path style=" stroke:none;fill-rule:nonzero;fill:rgb(86.27451%,0%,19.607843%);fill-opacity:1;" d="M 146.675781 1.800781 L 133.464844 1.800781 L 133.464844 22.695312 L 146.675781 22.695312 C 154.425781 22.695312 160.152344 19.214844 160.152344 12.246094 C 160.152344 5.273438 154.417969 1.796875 146.675781 1.796875 Z M 145.867188 17.707031 L 140.144531 17.707031 L 140.144531 6.785156 L 145.867188 6.785156 C 150.847656 6.785156 153.480469 8.554688 153.480469 12.242188 C 153.480469 15.929688 150.847656 17.699219 145.867188 17.699219 Z M 145.867188 17.707031 "/>
<path style=" stroke:none;fill-rule:nonzero;fill:rgb(86.27451%,0%,19.607843%);fill-opacity:1;" d="M 121.539062 11.328125 C 117.597656 6.839844 112.484375 3.535156 106.773438 1.785156 L 101.113281 1.785156 L 101.113281 22.679688 L 107.527344 22.679688 L 107.527344 8.5625 C 113.621094 10.546875 119.265625 16.75 122.058594 22.679688 L 127.953125 22.679688 L 127.953125 1.789062 L 121.542969 1.789062 Z M 121.539062 11.328125 "/>
<path style=" stroke:none;fill-rule:nonzero;fill:rgb(86.27451%,0%,19.607843%);fill-opacity:1;" d="M 12.703125 1.796875 C 8.292969 6.78125 2.109375 15.171875 2.109375 22.6875 L 8.765625 22.6875 C 8.773438 21.535156 8.914062 20.390625 9.175781 19.269531 L 24.320312 19.269531 C 24.582031 20.390625 24.722656 21.535156 24.730469 22.6875 L 31.390625 22.6875 C 31.390625 15.164062 25.210938 6.777344 20.796875 1.796875 L 12.691406 1.796875 Z M 10.703125 14.871094 C 12.277344 11.523438 14.316406 8.414062 16.757812 5.632812 C 19.191406 8.417969 21.230469 11.527344 22.8125 14.871094 Z M 10.703125 14.871094 "/>
<path style=" stroke:none;fill-rule:nonzero;fill:rgb(86.27451%,0%,19.607843%);fill-opacity:1;" d="M 193.21875 1.796875 L 185.109375 1.796875 C 180.699219 6.78125 174.515625 15.167969 174.515625 22.691406 L 181.171875 22.691406 C 181.183594 21.539062 181.320312 20.394531 181.585938 19.273438 L 196.726562 19.273438 C 196.992188 20.394531 197.128906 21.539062 197.136719 22.691406 L 203.796875 22.691406 C 203.796875 15.167969 197.613281 6.78125 193.199219 1.796875 Z M 183.113281 14.875 C 184.691406 11.527344 186.730469 8.414062 189.167969 5.632812 C 191.601562 8.421875 193.640625 11.53125 195.222656 14.875 Z M 183.113281 14.875 "/>
<path style=" stroke:none;fill-rule:nonzero;fill:rgb(100%,39.215686%,13.72549%);fill-opacity:1;" d="M 73.191406 63.105469 C 75.875 67.691406 79.335938 68.988281 82.625 68.988281 C 84.351562 69.027344 86.074219 68.792969 87.730469 68.292969 L 87.730469 75.398438 C 85.832031 75.851562 83.886719 76.085938 81.9375 76.09375 C 74.925781 76.09375 71.296875 73.5 67.136719 67.257812 L 66.789062 66.734375 L 70.339844 58.683594 L 70.601562 58.683594 L 73.191406 63.097656 M 67.136719 41.707031 L 66.789062 42.230469 L 70.339844 50.195312 L 70.601562 50.195312 L 73.191406 45.957031 C 75.960938 41.453125 79.335938 39.894531 82.625 39.894531 C 84.351562 39.859375 86.074219 40.09375 87.730469 40.59375 L 87.730469 33.402344 C 85.828125 32.976562 83.886719 32.769531 81.9375 32.792969 C 74.925781 32.792969 71.296875 35.472656 67.136719 41.714844 M 62.988281 43.097656 C 59.261719 34.867188 54.589844 32.789062 48.015625 32.789062 C 46.058594 32.816406 44.113281 33.074219 42.21875 33.566406 L 42.21875 40.496094 C 43.617188 40.054688 45.078125 39.847656 46.542969 39.886719 C 50.359375 39.886719 53.121094 41.355469 55.628906 46.378906 L 59.644531 54.472656 L 55.628906 62.574219 C 53.125 67.59375 50.347656 68.980469 46.542969 68.980469 C 45.074219 68.992188 43.613281 68.753906 42.21875 68.285156 L 42.21875 75.300781 C 44.101562 75.851562 46.054688 76.117188 48.015625 76.085938 C 54.59375 76.085938 59.351562 73.917969 62.988281 65.863281 L 68.179688 54.433594 L 62.988281 43.089844 Z M 19.195312 51.414062 C 22.34375 51.414062 26.296875 51.347656 30.792969 51.0625 L 30.792969 49.59375 C 30.792969 41.890625 28.289062 39.199219 20.578125 39.199219 L 19.195312 39.199219 C 11.410156 39.199219 8.207031 42.574219 8.207031 49.933594 L 8.207031 51.121094 C 11.84375 51.328125 15.589844 51.40625 19.195312 51.40625 M 20.929688 32.097656 C 33.386719 32.097656 38.84375 36.863281 38.84375 49.242188 L 38.84375 57.03125 C 32.351562 57.640625 25.949219 57.808594 20.058594 57.808594 C 16.183594 57.808594 12.167969 57.808594 8.199219 57.539062 L 8.199219 59.019531 C 8.199219 67.769531 13.132812 69.5 23 69.5 L 23.695312 69.5 C 28.4375 69.402344 33.128906 68.464844 37.546875 66.730469 L 37.546875 73.835938 C 35.148438 74.800781 32.65625 75.511719 30.109375 75.957031 C 27.683594 76.417969 25.222656 76.664062 22.753906 76.691406 L 21.632812 76.691406 C 6.488281 76.691406 -0.0078125 71.582031 -0.0078125 58.15625 L -0.0078125 50.625 C -0.0078125 37.464844 6.222656 32.09375 19.464844 32.09375 L 20.9375 32.09375 M 235.660156 51.316406 L 230.8125 50.453125 C 223.625 49.15625 221.980469 48.808594 221.980469 44.828125 L 221.980469 44.480469 C 221.980469 39.804688 226.394531 39.195312 232.109375 39.195312 L 232.632812 39.195312 C 237.800781 39.304688 242.933594 40.144531 247.863281 41.703125 L 247.863281 34.683594 C 242.8125 33 237.527344 32.125 232.203125 32.089844 L 231.683594 32.089844 C 221.730469 32.089844 213.859375 34.683594 213.859375 44.300781 L 213.859375 45.859375 C 213.859375 53.914062 218.53125 56.253906 226.925781 57.289062 L 231.859375 57.898438 C 239.472656 58.855469 240.941406 60.066406 240.941406 63.871094 L 240.941406 64.394531 C 240.941406 69.15625 236.878906 69.679688 230.726562 69.679688 L 230.117188 69.679688 C 224.824219 69.496094 219.59375 68.472656 214.617188 66.648438 L 214.617188 74.089844 C 219.757812 75.789062 225.128906 76.691406 230.539062 76.773438 L 230.976562 76.773438 C 242.140625 76.773438 248.980469 74.179688 248.980469 64.734375 L 248.980469 63.261719 C 248.980469 54.859375 244.742188 52.953125 235.652344 51.308594 M 274.683594 51.308594 L 269.835938 50.445312 C 262.648438 49.148438 261.003906 48.800781 261.003906 44.824219 L 261.003906 44.472656 C 261.003906 39.796875 265.417969 39.191406 271.132812 39.191406 L 271.65625 39.191406 C 276.824219 39.296875 281.957031 40.140625 286.886719 41.695312 L 286.886719 34.683594 C 281.835938 33 276.550781 32.125 271.226562 32.089844 L 270.707031 32.089844 C 260.753906 32.089844 252.878906 34.683594 252.878906 44.300781 L 252.878906 45.859375 C 252.878906 53.914062 257.550781 56.253906 265.945312 57.289062 L 270.878906 57.898438 C 278.492188 58.855469 279.960938 60.066406 279.960938 63.871094 L 279.960938 64.394531 C 279.960938 69.15625 275.898438 69.679688 269.746094 69.679688 L 269.136719 69.679688 C 263.84375 69.496094 258.613281 68.472656 253.636719 66.648438 L 253.636719 74.089844 C 258.78125 75.789062 264.148438 76.691406 269.558594 76.773438 L 269.996094 76.773438 C 281.160156 76.773438 288 74.179688 288 64.734375 L 288 63.261719 C 288 54.859375 283.761719 52.953125 274.671875 51.308594 M 125.289062 49.925781 C 125.289062 42.132812 122.949219 39.617188 115.25 39.617188 L 115.074219 39.617188 C 109.914062 39.796875 105.003906 41.898438 101.3125 45.511719 L 101.3125 66.984375 C 105.3125 68.414062 109.523438 69.175781 113.769531 69.230469 C 122.855469 69.230469 125.28125 66.890625 125.28125 58.410156 L 125.28125 49.921875 Z M 117.851562 32.347656 C 128.929688 32.347656 133.425781 37.109375 133.425781 48.542969 L 133.425781 57.804688 C 133.425781 70.878906 128.492188 76.511719 115.683594 76.511719 L 114.988281 76.511719 C 110.332031 76.441406 105.710938 75.621094 101.3125 74.082031 L 101.3125 89.234375 L 93.179688 89.234375 L 93.179688 32.777344 L 101.226562 32.777344 L 101.226562 38.144531 C 105.859375 34.40625 111.628906 32.359375 117.578125 32.339844 L 117.839844 32.339844 M 189.160156 51.390625 C 192.304688 51.390625 196.257812 51.324219 200.757812 51.039062 L 200.757812 49.570312 C 200.757812 41.863281 198.253906 39.175781 190.542969 39.175781 L 189.160156 39.175781 C 181.375 39.175781 178.171875 42.550781 178.171875 49.910156 L 178.171875 51.097656 C 181.808594 51.304688 185.554688 51.382812 189.160156 51.382812 M 190.890625 32.074219 C 203.351562 32.074219 208.804688 36.835938 208.804688 49.21875 L 208.804688 57.007812 C 202.316406 57.617188 195.910156 57.785156 190.023438 57.785156 C 186.148438 57.785156 182.132812 57.785156 178.164062 57.515625 L 178.164062 58.996094 C 178.164062 67.742188 183.097656 69.476562 192.960938 69.476562 L 193.65625 69.476562 C 198.402344 69.378906 203.089844 68.441406 207.507812 66.707031 L 207.507812 73.8125 C 205.109375 74.777344 202.617188 75.488281 200.070312 75.929688 C 197.644531 76.394531 195.183594 76.640625 192.71875 76.667969 L 191.59375 76.667969 C 176.453125 76.667969 169.957031 71.558594 169.957031 58.132812 L 169.957031 50.601562 C 169.957031 37.441406 176.1875 32.070312 189.429688 32.070312 L 190.90625 32.070312 M 148.761719 38.238281 L 148.761719 32.761719 L 140.710938 32.761719 L 140.710938 76.066406 L 148.847656 76.066406 L 148.847656 45.582031 C 152.648438 42.035156 157.664062 40.078125 162.863281 40.125 C 164.492188 40.121094 166.117188 40.296875 167.710938 40.648438 L 167.710938 32.941406 C 166.324219 32.59375 164.902344 32.417969 163.472656 32.417969 C 159.203125 32.417969 154.617188 33.675781 148.757812 38.242188 "/>
</g>
</svg>
