<?xml version="1.0" encoding="UTF-8"?>
<svg xmlns="http://www.w3.org/2000/svg" xmlns:xlink="http://www.w3.org/1999/xlink" width="279px" height="147px" viewBox="0 0 279 147" version="1.1">
<g id="surface1">
<path style=" stroke:none;fill-rule:nonzero;fill:rgb(100%,100%,100%);fill-opacity:1;" d="M 172.980469 94.308594 L 113.988281 94.308594 L 120.390625 77.5625 L 179.382812 77.5625 "/>
<path style=" stroke:none;fill-rule:nonzero;fill:rgb(90.196078%,0%,7.45098%);fill-opacity:1;" d="M 141.609375 87.382812 L 145.734375 87.382812 L 145.558594 82.449219 "/>
<path style=" stroke:none;fill-rule:nonzero;fill:rgb(90.196078%,0%,7.45098%);fill-opacity:1;" d="M 165.15625 60.796875 C 154.160156 71.539062 137.707031 64.679688 139.382812 51.496094 C 140.671875 41.328125 153.101562 31.203125 162.507812 25.703125 L 162.515625 25.585938 C 161.285156 24.417969 158.730469 21.753906 157.082031 19.757812 C 152.519531 14.257812 144.542969 14.023438 139.78125 20.054688 L 112.714844 22.585938 L 112.714844 22.757812 L 141.730469 24.441406 C 146.878906 24.734375 148.558594 29.410156 143.589844 33.183594 C 125.164062 47.171875 121.882812 61.996094 126 73.738281 L 125.859375 73.804688 C 124.167969 71.402344 122.902344 68.457031 122.214844 65.375 C 113.359375 59.796875 106.179688 49.179688 106.179688 36.078125 C 106.179688 17.027344 121.660156 1.339844 140.816406 1.339844 C 159.972656 1.339844 175.457031 17.027344 175.457031 36.078125 C 175.457031 46.382812 170.957031 55.136719 165.15625 60.796875 M 171.925781 93.390625 L 155.269531 93.390625 L 161.179688 77.960938 L 168.519531 77.960938 L 163.847656 90.117188 L 173.175781 90.117188 Z M 145.957031 93.390625 L 145.84375 90.351562 L 139.21875 90.351562 L 136.777344 93.390625 L 130.722656 93.390625 L 143.011719 79.105469 C 143.597656 78.421875 144.464844 77.960938 145.269531 77.960938 L 151.828125 77.960938 L 153.296875 93.390625 Z M 120.84375 93.910156 C 118.875 93.910156 117.15625 93.703125 115.746094 93.390625 L 116.996094 90.113281 C 120.355469 90.507812 123.234375 90.214844 124.359375 87.273438 L 127.925781 77.960938 L 135.261719 77.960938 L 131.335938 88.222656 C 129.324219 93.472656 124.367188 93.910156 120.84375 93.910156 M 194.421875 58.710938 C 194.769531 55.292969 194.679688 50.394531 194.152344 46.777344 L 194.0625 46.777344 C 192.960938 52.03125 189.566406 59.152344 182.234375 64.960938 L 182.152344 64.855469 C 188.578125 57.976562 192.414062 49.496094 193.011719 40.757812 C 191.796875 35.953125 189.917969 31.296875 187.550781 27.191406 L 187.46875 27.226562 C 188.773438 36.050781 186.6875 47.707031 178.148438 57.160156 L 178.046875 57.078125 C 185.402344 46.464844 187.316406 33.535156 184.109375 21.910156 C 174.304688 8.617188 158.566406 -0.00390625 140.816406 -0.00390625 C 123.070312 -0.00390625 107.332031 8.617188 97.523438 21.910156 C 94.316406 33.535156 96.230469 46.464844 103.585938 57.078125 L 103.492188 57.160156 C 94.949219 47.707031 92.871094 36.050781 94.175781 27.226562 L 94.089844 27.191406 C 91.71875 31.296875 89.839844 35.953125 88.632812 40.757812 C 89.222656 49.496094 93.058594 57.976562 99.484375 64.855469 L 99.402344 64.960938 C 92.070312 59.152344 88.675781 52.03125 87.578125 46.777344 L 87.484375 46.777344 C 86.957031 50.394531 86.867188 55.292969 87.21875 58.710938 C 89.066406 64.523438 93.019531 69.398438 97.0625 72.910156 L 96.992188 73.023438 C 92.476562 70.199219 89.945312 67.445312 88.222656 65.011719 L 88.144531 65.042969 C 93.105469 89.273438 114.769531 107.921875 140.816406 107.921875 C 166.867188 107.921875 188.527344 89.273438 193.492188 65.042969 L 193.417969 65.011719 C 191.695312 67.445312 189.164062 70.199219 184.644531 73.023438 L 184.574219 72.910156 C 188.617188 69.398438 192.570312 64.523438 194.421875 58.710938 "/>
<path style=" stroke:none;fill-rule:nonzero;fill:rgb(13.72549%,9.803922%,8.627451%);fill-opacity:1;" d="M 276.460938 141.648438 C 274.914062 145.683594 269.574219 146.9375 263.808594 146.9375 C 258.035156 146.9375 254.332031 145.679688 255.199219 141.648438 L 262.53125 141.648438 C 262.339844 142.726562 262.992188 143.414062 265.160156 143.414062 C 267.324219 143.414062 268.726562 142.710938 269.125 141.648438 C 270.140625 139.015625 255.632812 141.589844 257.941406 135.554688 C 259.234375 132.175781 264.324219 130.589844 270.066406 130.589844 C 275.800781 130.589844 279.070312 131.835938 278.375 135.550781 L 271.191406 135.550781 C 271.304688 134.558594 270.996094 133.804688 268.835938 133.804688 C 266.675781 133.804688 265.519531 134.570312 265.148438 135.554688 C 264.105469 138.246094 278.765625 135.625 276.460938 141.648438 "/>
<path style=" stroke:none;fill-rule:nonzero;fill:rgb(13.72549%,9.803922%,8.627451%);fill-opacity:1;" d="M 148.148438 146.476562 L 140.816406 146.476562 L 146.71875 131.058594 L 154.058594 131.058594 "/>
<path style=" stroke:none;fill-rule:nonzero;fill:rgb(13.72549%,9.803922%,8.627451%);fill-opacity:1;" d="M 203.601562 146.476562 L 196.277344 146.476562 L 202.179688 131.058594 L 209.503906 131.058594 "/>
<path style=" stroke:none;fill-rule:nonzero;fill:rgb(13.72549%,9.803922%,8.627451%);fill-opacity:1;" d="M 250.839844 146.476562 L 233.019531 146.476562 L 238.917969 131.058594 L 256.746094 131.058594 L 255.613281 134.019531 L 245.117188 134.019531 L 243.925781 137.128906 L 252.652344 137.128906 L 251.523438 140.085938 L 242.792969 140.085938 L 241.601562 143.207031 L 252.089844 143.207031 "/>
<path style=" stroke:none;fill-rule:nonzero;fill:rgb(13.72549%,9.803922%,8.627451%);fill-opacity:1;" d="M 105.148438 146.476562 L 99.21875 146.476562 L 94.25 137.371094 L 90.757812 146.476562 L 84.84375 146.476562 L 90.742188 131.058594 L 97.628906 131.058594 L 102.023438 139.160156 L 105.117188 131.058594 L 111.050781 131.058594 "/>
<path style=" stroke:none;fill-rule:nonzero;fill:rgb(13.72549%,9.803922%,8.627451%);fill-opacity:1;" d="M 228.472656 146.476562 L 222.539062 146.476562 L 217.566406 137.371094 L 214.078125 146.476562 L 208.164062 146.476562 L 214.066406 131.058594 L 220.953125 131.058594 L 225.339844 139.160156 L 228.4375 131.058594 L 234.375 131.058594 "/>
<path style=" stroke:none;fill-rule:nonzero;fill:rgb(13.72549%,9.803922%,8.627451%);fill-opacity:1;" d="M 16.117188 141.316406 C 14.105469 146.558594 9.15625 146.996094 5.632812 146.996094 C 3.660156 146.996094 1.953125 146.796875 0.539062 146.476562 L 1.792969 143.207031 C 5.148438 143.601562 8.023438 143.304688 9.144531 140.367188 L 12.710938 131.0625 L 20.042969 131.0625 "/>
<path style=" stroke:none;fill-rule:nonzero;fill:rgb(13.72549%,9.803922%,8.627451%);fill-opacity:1;" d="M 58.183594 135.972656 C 57.75 137.101562 56.367188 137.921875 55.03125 137.921875 L 50.96875 137.921875 L 52.460938 134.023438 L 56.539062 134.023438 C 57.871094 134.023438 58.613281 134.851562 58.183594 135.972656 M 57.660156 131.0625 L 46.257812 131.0625 L 40.355469 146.476562 L 47.6875 146.476562 L 49.832031 140.882812 L 53.90625 140.882812 C 60.679688 140.882812 64.328125 139.0625 65.515625 135.972656 C 66.695312 132.886719 64.441406 131.0625 57.660156 131.0625 "/>
<path style=" stroke:none;fill-rule:nonzero;fill:rgb(13.72549%,9.803922%,8.627451%);fill-opacity:1;" d="M 170.523438 135.972656 C 170.085938 137.101562 168.703125 137.921875 167.375 137.921875 L 163.304688 137.921875 L 164.796875 134.023438 L 168.878906 134.023438 C 170.210938 134.023438 170.957031 134.851562 170.523438 135.972656 M 170 131.0625 L 158.597656 131.0625 L 152.699219 146.476562 L 160.03125 146.476562 L 162.171875 140.882812 L 164.382812 140.882812 L 165.835938 146.476562 L 173.839844 146.476562 L 171.878906 140.324219 C 175.128906 139.5625 177.058594 138.0625 177.851562 135.972656 C 179.042969 132.886719 176.78125 131.0625 170 131.0625 "/>
<path style=" stroke:none;fill-rule:nonzero;fill:rgb(13.72549%,9.803922%,8.627451%);fill-opacity:1;" d="M 186.0625 143.210938 L 190.71875 131.0625 L 183.390625 131.0625 L 177.492188 146.476562 L 194.132812 146.476562 L 195.386719 143.210938 "/>
<path style=" stroke:none;fill-rule:nonzero;fill:rgb(13.72549%,9.803922%,8.627451%);fill-opacity:1;" d="M 26.816406 140.484375 L 30.761719 135.550781 L 30.949219 140.484375 Z M 37.035156 131.0625 L 30.476562 131.0625 C 29.679688 131.0625 28.808594 131.53125 28.226562 132.203125 L 15.9375 146.476562 L 22 146.476562 L 24.433594 143.445312 L 31.058594 143.445312 L 31.171875 146.476562 L 38.503906 146.476562 "/>
<path style=" stroke:none;fill-rule:nonzero;fill:rgb(13.72549%,9.803922%,8.627451%);fill-opacity:1;" d="M 71.296875 140.484375 L 75.246094 135.550781 L 75.421875 140.484375 Z M 81.511719 131.0625 L 74.953125 131.0625 C 74.160156 131.0625 73.285156 131.53125 72.699219 132.203125 L 60.417969 146.476562 L 66.476562 146.476562 L 68.914062 143.445312 L 75.535156 143.445312 L 75.648438 146.476562 L 82.984375 146.476562 "/>
<path style=" stroke:none;fill-rule:nonzero;fill:rgb(13.72549%,9.803922%,8.627451%);fill-opacity:1;" d="M 127.269531 140.484375 L 131.21875 135.550781 L 131.402344 140.484375 Z M 137.488281 131.0625 L 130.929688 131.0625 C 130.128906 131.0625 129.261719 131.53125 128.675781 132.203125 L 116.390625 146.476562 L 122.453125 146.476562 L 124.882812 143.445312 L 131.507812 143.445312 L 131.625 146.476562 L 138.949219 146.476562 "/>
</g>
</svg>
