<?xml version="1.0" encoding="UTF-8"?>
<svg xmlns="http://www.w3.org/2000/svg" xmlns:xlink="http://www.w3.org/1999/xlink" width="279px" height="33px" viewBox="0 0 279 33" version="1.1">
<g id="surface1">
<path style=" stroke:none;fill-rule:nonzero;fill:rgb(0%,18.431373%,52.941176%);fill-opacity:1;" d="M 86.40625 2.308594 C 86.40625 2.308594 72.726562 3.332031 65.347656 2.648438 C 65.347656 2.648438 64.472656 2.40625 64.230469 3.425781 C 64.230469 3.425781 63.746094 4.207031 64.519531 4.742188 C 65.300781 5.277344 67.53125 6.589844 67.53125 11.453125 L 67.53125 20.835938 C 67.53125 20.835938 67.96875 25.992188 64.425781 27.9375 C 64.425781 27.9375 63.699219 28.179688 64.085938 29.199219 C 64.085938 29.199219 64.136719 30.125 65.152344 29.980469 C 66.171875 29.832031 71.898438 29.394531 79.761719 29.929688 C 79.761719 29.929688 80.441406 29.980469 80.632812 29.542969 C 80.824219 29.105469 80.875 29.058594 80.875 29.058594 C 80.875 29.058594 81.554688 28.375 80.535156 27.695312 C 79.515625 27.011719 77.820312 25.992188 77.671875 21.660156 C 77.523438 17.335938 77.671875 17.238281 77.671875 17.238281 L 78.304688 17.238281 C 78.304688 17.238281 80.488281 17.046875 81.945312 20.351562 C 81.945312 20.351562 84.761719 27.15625 85.195312 27.984375 C 85.632812 28.8125 86.457031 30.5625 89.515625 30.269531 C 92.570312 29.980469 106.839844 28.957031 121.980469 30.320312 C 121.980469 30.320312 123.632812 30.5625 124.261719 28.957031 C 124.261719 28.957031 126.882812 21.902344 127.511719 20.789062 C 127.511719 20.789062 133.046875 20.640625 136.054688 20.691406 C 136.054688 20.691406 137.171875 22.585938 137.171875 24.871094 C 137.171875 27.15625 135.179688 27.695312 135.179688 27.695312 C 135.179688 27.695312 134.355469 28.03125 134.746094 29.058594 C 134.746094 29.058594 134.890625 30.027344 135.859375 29.929688 C 136.832031 29.832031 145.519531 29.007812 158.621094 29.832031 C 158.621094 29.832031 159.496094 30.175781 159.785156 29.007812 C 159.785156 29.007812 160.320312 28.082031 159.394531 27.644531 C 159.394531 27.644531 155.949219 26.867188 155.949219 21.371094 C 155.949219 15.878906 156 11.988281 156 11.988281 C 156 11.988281 158.621094 15.730469 161.726562 21.324219 C 164.832031 26.914062 166.480469 29.300781 166.480469 29.300781 C 166.480469 29.300781 168.035156 32.3125 171.089844 30.710938 C 174.148438 29.105469 177.449219 27.253906 179.34375 25.941406 C 179.34375 25.941406 180.070312 25.601562 179.679688 24.679688 L 179.390625 24.09375 C 179.390625 24.09375 179.34375 23.753906 178.320312 23.660156 C 178.320312 23.660156 176.039062 24.191406 175.996094 20.933594 C 175.945312 17.675781 175.796875 13.054688 175.996094 8.339844 C 175.996094 8.339844 176.089844 5.421875 178.757812 4.59375 C 178.757812 4.59375 179.730469 4.5 179.292969 3.332031 L 179 2.746094 C 179 2.746094 179 2.261719 178.320312 2.359375 C 177.644531 2.457031 173.859375 2.796875 169.828125 2.457031 C 169.828125 2.457031 168.957031 2.457031 168.859375 3.425781 C 168.859375 3.425781 168.617188 4.304688 169.292969 4.59375 C 169.976562 4.886719 172.355469 5.761719 172.5 9.507812 C 172.644531 13.25 172.695312 18.453125 172.695312 18.453125 C 172.695312 18.453125 167.160156 10.285156 163.621094 4.011719 C 163.621094 4.011719 163.035156 2.308594 160.949219 2.457031 C 158.863281 2.601562 153.867188 2.84375 150.226562 2.503906 C 150.226562 2.503906 149.203125 2.359375 149.058594 3.527344 C 149.058594 3.527344 148.769531 4.546875 149.644531 4.984375 C 149.644531 4.984375 152.554688 6.832031 152.554688 7.464844 C 152.554688 8.097656 152.503906 21.03125 152.503906 21.03125 C 152.503906 21.03125 152.75 26.332031 151.339844 25.652344 C 151.339844 25.652344 150.515625 26.183594 148.527344 22.539062 C 146.535156 18.890625 143.964844 13.691406 139.789062 3.574219 C 139.789062 3.574219 138.917969 0.753906 137.121094 0.753906 C 137.121094 0.753906 136.054688 0.804688 134.9375 1.433594 C 133.824219 2.070312 130.277344 4.0625 126.59375 5.128906 C 126.59375 5.128906 125.617188 5.421875 125.914062 6.394531 C 125.914062 6.394531 125.765625 7.125 126.835938 7.515625 C 127.902344 7.902344 128.824219 8.339844 129.113281 8.875 C 129.113281 8.875 128 12.472656 125.957031 16.167969 C 123.921875 19.863281 121.300781 25.992188 113.78125 25.992188 L 110.816406 25.992188 C 110.816406 25.992188 110.042969 26.089844 110.042969 25.015625 L 110.042969 17.1875 L 111.980469 17.1875 C 111.980469 17.1875 115.140625 16.511719 116.640625 20.59375 C 116.640625 20.59375 116.933594 21.859375 118 21.371094 C 118 21.371094 119.210938 21.226562 119.117188 20.011719 C 119.019531 18.796875 118.921875 15.488281 119.167969 12.570312 C 119.167969 12.570312 119.261719 11.695312 118.292969 11.5 C 118.292969 11.5 117.515625 11.109375 116.933594 11.746094 C 116.351562 12.375 115.140625 13.882812 112.371094 13.882812 L 110.089844 13.882812 L 110.089844 6.589844 C 110.089844 6.589844 110.042969 6.105469 110.378906 6.054688 C 110.722656 6.003906 114.941406 4.984375 117.421875 6.980469 C 119.894531 8.972656 120.039062 9.800781 120.570312 10.527344 C 120.570312 10.527344 121.058594 11.746094 122.320312 10.917969 C 122.320312 10.917969 123.292969 10.769531 122.804688 9.265625 C 122.320312 7.757812 122.175781 7.222656 121.351562 3.425781 C 121.351562 3.425781 121.203125 1.824219 119.554688 1.972656 C 117.902344 2.113281 107.566406 3.332031 97.863281 2.550781 C 97.863281 2.550781 96.84375 2.308594 96.648438 3.382812 C 96.648438 3.382812 96.210938 4.109375 97.035156 4.792969 C 97.035156 4.792969 99.898438 6.105469 99.898438 11.160156 L 99.898438 19.617188 C 99.898438 19.617188 100.386719 26.332031 98.007812 26.332031 C 98.007812 26.332031 96.988281 26.769531 95.242188 23.320312 C 93.496094 19.863281 93.398438 19.769531 93.398438 19.769531 C 93.398438 19.769531 91.988281 15.242188 85.925781 15.050781 C 85.925781 15.050781 94.316406 13.640625 93.542969 7.320312 C 93.542969 7.320312 93.398438 2.503906 87.089844 2.308594 Z M 77.625 14.222656 L 77.625 9.460938 C 77.625 9.460938 77.671875 5.90625 80.488281 5.90625 C 83.300781 5.90625 82.949219 9.359375 82.972656 9.800781 C 82.996094 10.238281 82.816406 14.222656 77.625 14.222656 M 128.96875 17.429688 C 128.96875 17.429688 130.765625 13.203125 131.539062 11.988281 C 131.539062 11.988281 133.726562 15 134.503906 17.480469 C 134.503906 17.480469 132.027344 17.871094 128.96875 17.429688 "/>
<path style=" stroke:none;fill-rule:nonzero;fill:rgb(0%,18.431373%,52.941176%);fill-opacity:1;" d="M 222.824219 19.527344 C 222.824219 19.527344 223.019531 25.894531 220.640625 25.457031 C 220.640625 25.457031 219.816406 25.992188 217.824219 22.34375 C 215.835938 18.695312 213.261719 13.496094 209.089844 3.378906 C 209.089844 3.378906 208.214844 0.558594 206.421875 0.558594 C 206.421875 0.558594 205.355469 0.609375 204.238281 1.238281 C 203.121094 1.871094 199.582031 3.867188 195.886719 4.9375 C 195.886719 4.9375 194.921875 5.230469 195.210938 6.199219 C 195.210938 6.199219 195.066406 6.929688 196.132812 7.316406 C 197.199219 7.707031 198.125 8.144531 198.414062 8.679688 C 198.414062 8.679688 197.296875 12.277344 195.257812 15.972656 C 193.21875 19.667969 191.425781 25.066406 186.621094 27.5 C 186.621094 27.5 185.691406 27.695312 185.992188 28.8125 C 186.332031 30.078125 186.960938 29.734375 186.960938 29.734375 C 192.542969 29.152344 194.238281 29.636719 195.5 29.734375 C 196.765625 29.832031 196.570312 28.8125 196.570312 28.8125 C 196.910156 28.179688 196.472656 27.789062 196.472656 27.789062 L 195.941406 27.109375 C 195.941406 27.109375 193.851562 26.578125 196.8125 20.59375 C 196.8125 20.59375 202.34375 20.449219 205.355469 20.496094 C 205.355469 20.496094 206.472656 22.390625 206.472656 24.679688 C 206.472656 26.964844 204.480469 27.5 204.480469 27.5 C 204.480469 27.5 203.65625 27.839844 204.042969 28.863281 C 204.042969 28.863281 204.1875 29.832031 205.160156 29.734375 C 206.128906 29.636719 222.242188 28.957031 235.347656 29.785156 C 235.347656 29.785156 236.269531 29.832031 236.515625 29.007812 C 236.515625 29.007812 237.042969 27.984375 236.121094 27.398438 C 236.121094 27.398438 233.550781 26.234375 233.355469 22.101562 C 233.160156 17.96875 233.210938 10.136719 233.210938 10.136719 C 233.210938 10.136719 233.015625 5.761719 235.785156 4.402344 C 235.785156 4.402344 236.515625 4.0625 236.121094 3.085938 C 236.121094 3.085938 235.925781 2.164062 235.054688 2.261719 C 234.183594 2.359375 225.011719 2.84375 220.6875 2.308594 C 220.6875 2.308594 219.71875 2.261719 219.527344 3.085938 C 219.527344 3.085938 219.039062 3.867188 219.867188 4.496094 C 220.6875 5.128906 222.824219 6.589844 222.824219 11.113281 Z M 200.839844 11.644531 C 203.460938 15.390625 203.800781 17.140625 203.800781 17.140625 C 201.714844 17.480469 198.269531 17.09375 198.269531 17.09375 C 199.285156 14.371094 200.839844 11.644531 200.839844 11.644531 "/>
<path style=" stroke:none;fill-rule:nonzero;fill:rgb(0%,18.431373%,52.941176%);fill-opacity:1;" d="M 261.453125 1.921875 C 261.453125 1.921875 250.777344 3.183594 240.875 2.214844 C 240.875 2.214844 239.617188 1.871094 239.46875 3.183594 C 239.46875 3.183594 239.371094 4.0625 239.910156 4.402344 C 240.441406 4.742188 242.625 6.054688 242.769531 10.625 C 242.917969 15.199219 243.015625 13.882812 242.917969 20.105469 C 242.917969 20.105469 243.304688 26.089844 239.910156 27.546875 C 239.910156 27.546875 239.035156 27.742188 239.519531 29.007812 C 239.519531 29.007812 239.808594 29.980469 240.636719 29.636719 C 240.636719 29.636719 248.59375 29.101562 255.484375 29.6875 C 255.484375 29.6875 256.261719 29.980469 256.503906 28.957031 C 256.503906 28.957031 257.136719 28.277344 256.164062 27.546875 C 255.195312 26.816406 253.445312 25.554688 253.253906 22.488281 C 253.058594 19.425781 253.105469 16.996094 253.105469 16.996094 L 253.785156 16.996094 C 253.785156 16.996094 256.070312 16.699219 257.621094 20.304688 C 259.175781 23.902344 260.242188 26.527344 260.242188 26.527344 C 260.242188 26.527344 261.257812 29.394531 262.90625 30.320312 C 262.90625 30.320312 263.589844 30.949219 266.113281 30.660156 C 266.113281 30.660156 270.234375 30.414062 274.3125 28.519531 C 274.3125 28.519531 275.238281 28.324219 274.945312 27.253906 C 274.945312 27.253906 275.140625 26.429688 273.972656 26.183594 C 272.8125 25.941406 271.9375 24.824219 271.113281 23.171875 C 270.285156 21.515625 269.023438 19.085938 269.023438 19.085938 C 269.023438 19.085938 267.324219 14.855469 261.792969 14.808594 C 261.792969 14.808594 269.414062 13.496094 269.414062 7.757812 C 269.414062 2.019531 262.617188 1.921875 262.617188 1.921875 Z M 253.105469 14.03125 L 253.105469 9.261719 C 253.105469 9.261719 253.203125 5.71875 255.875 5.71875 C 258.542969 5.71875 258.589844 8.722656 258.449219 9.703125 C 258.3125 10.683594 258.058594 14.03125 253.105469 14.03125 "/>
<path style=" stroke:none;fill-rule:nonzero;fill:rgb(100%,100%,100%);fill-opacity:1;" d="M 63.882812 16.492188 C 63.882812 25.394531 56.675781 32.609375 47.796875 32.609375 C 38.910156 32.609375 31.710938 25.394531 31.710938 16.492188 C 31.710938 7.589844 38.910156 0.375 47.796875 0.375 C 56.675781 0.375 63.882812 7.589844 63.882812 16.492188 "/>
<path style=" stroke:none;fill-rule:nonzero;fill:rgb(88.235294%,14.509804%,10.588235%);fill-opacity:1;" d="M 54.707031 6.777344 C 59.605469 8.292969 63.167969 12.863281 63.167969 18.269531 C 63.167969 19.058594 63.089844 19.828125 62.949219 20.570312 L 62.929688 20.675781 C 62.554688 22.796875 61.695312 24.75 60.472656 26.417969 L 60.449219 26.445312 C 62.601562 23.703125 63.882812 20.242188 63.882812 16.488281 C 63.882812 7.582031 56.675781 0.359375 47.789062 0.359375 C 43.738281 0.359375 40.039062 1.859375 37.210938 4.332031 L 37.175781 4.367188 C 34.945312 6.414062 33.550781 9.359375 33.550781 12.625 C 33.550781 13.980469 33.789062 15.277344 34.226562 16.480469 L 34.25 16.535156 C 35.367188 18.996094 37.839844 20.703125 40.714844 20.703125 C 44.632812 20.703125 47.816406 17.519531 47.816406 13.59375 L 47.792969 10.53125 C 47.792969 9.125 48.578125 7.898438 49.730469 7.273438 L 49.742188 7.261719 C 50.644531 6.765625 51.679688 6.480469 52.78125 6.480469 C 53.453125 6.480469 54.09375 6.582031 54.699219 6.777344 Z M 54.707031 6.777344 "/>
<path style=" stroke:none;fill-rule:nonzero;fill:rgb(0%,18.431373%,52.941176%);fill-opacity:1;" d="M 35.472656 26.863281 C 38.425781 30.386719 42.851562 32.625 47.800781 32.625 C 51.851562 32.625 55.550781 31.125 58.378906 28.65625 L 58.414062 28.621094 C 60.644531 26.574219 62.042969 23.628906 62.042969 20.359375 C 62.042969 19.007812 61.800781 17.703125 61.359375 16.503906 L 61.339844 16.449219 C 60.222656 13.992188 57.746094 12.28125 54.875 12.28125 C 50.957031 12.28125 47.777344 15.46875 47.777344 19.394531 L 47.796875 22.453125 C 47.796875 23.863281 47.015625 25.085938 45.859375 25.714844 L 45.847656 25.726562 C 44.945312 26.222656 43.910156 26.507812 42.808594 26.507812 C 42.140625 26.507812 41.496094 26.402344 40.890625 26.207031 L 40.882812 26.207031 C 35.984375 24.695312 32.425781 20.121094 32.425781 14.71875 C 32.425781 13.929688 32.5 13.160156 32.644531 12.417969 L 32.660156 12.308594 C 33.035156 10.1875 33.894531 8.234375 35.117188 6.566406 L 35.140625 6.542969 C 32.988281 9.285156 31.707031 12.742188 31.707031 16.5 C 31.707031 19.089844 32.316406 21.535156 33.402344 23.703125 L 33.265625 23.804688 C 33.265625 23.804688 32.636719 24.289062 31.375 22.832031 C 30.113281 21.371094 22.6875 12.375 22.6875 12.375 C 22.6875 12.375 27.394531 7.320312 32.007812 5.277344 C 32.007812 5.277344 33.21875 4.890625 32.929688 3.816406 L 32.734375 3.1875 C 32.734375 3.1875 32.6875 2.507812 31.617188 2.652344 C 30.546875 2.796875 25.503906 3.1875 20.457031 2.699219 C 20.457031 2.699219 19.679688 2.699219 19.386719 3.332031 C 19.386719 3.332031 18.90625 4.15625 19.386719 4.644531 C 19.875 5.128906 21.625 6.347656 21.625 7.996094 C 21.625 7.996094 22.007812 9.214844 19.339844 11.160156 C 16.671875 13.105469 15.023438 14.371094 13.902344 14.953125 L 13.953125 10.382812 C 13.953125 10.382812 13.808594 6.542969 16.574219 4.742188 C 16.574219 4.742188 17.253906 4.449219 17.007812 3.816406 L 16.816406 3.332031 C 16.816406 3.332031 16.671875 2.554688 15.84375 2.652344 C 15.84375 2.652344 11.039062 3.1875 1.480469 2.75 C 1.480469 2.75 0.851562 2.699219 0.609375 3.1875 L 0.414062 3.574219 C 0.414062 3.574219 0.0742188 4.449219 0.609375 4.839844 C 1.140625 5.230469 3.375 6.542969 3.472656 10.578125 C 3.472656 10.578125 3.714844 18.210938 3.375 21.175781 C 3.035156 24.144531 2.792969 25.847656 0.414062 27.9375 C 0.414062 27.9375 -0.21875 28.421875 0.0742188 29.152344 L 0.414062 29.78125 C 0.414062 29.78125 0.65625 30.269531 1.480469 30.171875 C 2.304688 30.074219 8.277344 29.492188 15.84375 30.074219 C 15.84375 30.074219 16.378906 30.269531 16.621094 29.738281 L 16.964844 29.054688 C 16.964844 29.054688 17.347656 28.371094 16.621094 27.839844 C 15.894531 27.300781 13.953125 25.75 13.902344 22.734375 C 13.859375 19.71875 13.859375 17.820312 13.859375 17.820312 C 13.859375 17.820312 15.167969 18.355469 22.15625 28.714844 C 22.15625 28.714844 24.628906 33.1875 29.871094 30.417969 C 29.871094 30.417969 33.703125 28.328125 35.308594 26.964844 Z M 35.472656 26.863281 "/>
</g>
</svg>
