<?xml version="1.0" encoding="UTF-8"?>
<svg xmlns="http://www.w3.org/2000/svg" xmlns:xlink="http://www.w3.org/1999/xlink" width="279px" height="165px" viewBox="0 0 279 165" version="1.1">
<g id="surface1">
<path style=" stroke:none;fill-rule:nonzero;fill:rgb(8.627451%,61.568627%,85.098039%);fill-opacity:1;" d="M 86.421875 61.175781 L 189.84375 61.175781 L 189.84375 78.25 L 86.421875 78.25 Z M 86.421875 61.175781 "/>
<path style=" stroke:none;fill-rule:nonzero;fill:rgb(8.627451%,61.568627%,85.098039%);fill-opacity:1;" d="M 85.890625 57.152344 L 88.234375 56.921875 L 90.503906 56.390625 L 92.699219 55.480469 L 94.742188 54.34375 L 96.40625 52.75 L 97.996094 51.003906 L 99.128906 48.953125 L 100.039062 46.828125 L 100.644531 44.550781 L 100.871094 42.125 L 100.644531 39.621094 L 100.039062 37.34375 L 99.128906 35.21875 L 97.996094 33.167969 L 96.40625 31.421875 L 94.742188 29.828125 L 92.699219 28.691406 L 90.503906 27.78125 L 88.234375 27.246094 L 85.890625 27.019531 L 83.394531 27.246094 L 81.125 27.78125 L 78.929688 28.691406 L 76.886719 29.828125 L 75.222656 31.421875 L 73.632812 33.167969 L 72.5 35.21875 L 71.589844 37.34375 L 70.984375 39.621094 L 70.757812 42.125 L 70.984375 44.550781 L 71.589844 46.828125 L 72.5 48.953125 L 73.632812 51.003906 L 75.222656 52.75 L 76.886719 54.34375 L 78.929688 55.480469 L 81.125 56.390625 L 83.394531 56.921875 Z M 85.890625 57.152344 "/>
<path style=" stroke:none;fill-rule:nonzero;fill:rgb(8.627451%,61.568627%,85.098039%);fill-opacity:1;" d="M 120.691406 57.152344 L 123.191406 56.921875 L 125.460938 56.390625 L 127.652344 55.480469 L 129.546875 54.34375 L 131.359375 52.75 L 132.875 51.003906 L 134.085938 48.953125 L 134.917969 46.828125 L 135.523438 44.550781 L 135.75 42.125 L 135.523438 39.621094 L 134.917969 37.34375 L 134.085938 35.21875 L 132.875 33.167969 L 131.359375 31.421875 L 129.546875 29.828125 L 127.652344 28.691406 L 125.460938 27.78125 L 123.191406 27.246094 L 120.691406 27.019531 L 118.195312 27.246094 L 115.925781 27.78125 L 113.808594 28.691406 L 111.84375 29.828125 L 110.027344 31.421875 L 108.585938 33.167969 L 107.300781 35.21875 L 106.394531 37.34375 L 105.863281 39.621094 L 105.636719 42.125 L 105.863281 44.550781 L 106.394531 46.828125 L 107.300781 48.953125 L 108.585938 51.003906 L 110.027344 52.75 L 111.84375 54.34375 L 113.808594 55.480469 L 115.925781 56.390625 L 118.195312 56.921875 Z M 120.691406 57.152344 "/>
<path style=" stroke:none;fill-rule:nonzero;fill:rgb(8.627451%,61.568627%,85.098039%);fill-opacity:1;" d="M 155.570312 57.152344 L 157.992188 56.921875 L 160.261719 56.390625 L 162.378906 55.480469 L 164.425781 54.34375 L 166.164062 52.75 L 167.753906 51.003906 L 168.886719 48.953125 L 169.796875 46.828125 L 170.324219 44.550781 L 170.554688 42.125 L 170.324219 39.621094 L 169.796875 37.34375 L 168.886719 35.21875 L 167.753906 33.167969 L 166.164062 31.421875 L 164.425781 29.828125 L 162.378906 28.691406 L 160.261719 27.78125 L 157.992188 27.246094 L 155.570312 27.019531 L 153.074219 27.246094 L 150.804688 27.78125 L 148.6875 28.691406 L 146.644531 29.828125 L 144.902344 31.421875 L 143.316406 33.167969 L 142.179688 35.21875 L 141.273438 37.34375 L 140.742188 39.621094 L 140.515625 42.125 L 140.742188 44.550781 L 141.273438 46.828125 L 142.179688 48.953125 L 143.316406 51.003906 L 144.902344 52.75 L 146.644531 54.34375 L 148.6875 55.480469 L 150.804688 56.390625 L 153.074219 56.921875 Z M 155.570312 57.152344 "/>
<path style=" stroke:none;fill-rule:nonzero;fill:rgb(8.627451%,61.568627%,85.098039%);fill-opacity:1;" d="M 190.449219 57.152344 L 192.949219 56.921875 L 195.21875 56.390625 L 197.335938 55.480469 L 199.300781 54.34375 L 201.121094 52.75 L 202.558594 51.003906 L 203.84375 48.953125 L 204.75 46.828125 L 205.28125 44.550781 L 205.507812 42.125 L 205.28125 39.621094 L 204.75 37.34375 L 203.84375 35.21875 L 202.558594 33.167969 L 201.121094 31.421875 L 199.300781 29.828125 L 197.335938 28.691406 L 195.21875 27.78125 L 192.949219 27.246094 L 190.449219 27.019531 L 187.953125 27.246094 L 185.683594 27.78125 L 183.492188 28.691406 L 181.597656 29.828125 L 179.78125 31.421875 L 178.269531 33.167969 L 177.058594 35.21875 L 176.152344 37.34375 L 175.546875 39.621094 L 175.316406 42.125 L 175.546875 44.550781 L 176.152344 46.828125 L 177.058594 48.953125 L 178.269531 51.003906 L 179.78125 52.75 L 181.597656 54.34375 L 183.492188 55.480469 L 185.683594 56.390625 L 187.953125 56.921875 Z M 190.449219 57.152344 "/>
<path style=" stroke:none;fill-rule:nonzero;fill:rgb(8.627451%,61.568627%,85.098039%);fill-opacity:1;" d="M 0.167969 165 L 0.167969 95.097656 L 25.96875 95.097656 L 25.96875 119.460938 L 50.105469 95.097656 L 77.945312 95.097656 L 45.792969 126.902344 L 84.753906 165 L 50.332031 165 L 25.96875 141.320312 L 25.96875 165 Z M 0.167969 165 "/>
<path style=" stroke:none;fill-rule:nonzero;fill:rgb(8.627451%,61.568627%,85.098039%);fill-opacity:1;" d="M 86.117188 165 L 86.117188 95.097656 L 111.992188 95.097656 L 111.992188 147.011719 L 155.042969 147.011719 L 155.042969 165 Z M 86.117188 165 "/>
<path style=" stroke:none;fill-rule:nonzero;fill:rgb(8.627451%,61.568627%,85.098039%);fill-opacity:1;" d="M 162.988281 165 L 162.988281 95.097656 L 206.867188 95.097656 L 220.261719 132.894531 L 233.878906 95.097656 L 277.835938 95.097656 L 277.835938 165 L 252.039062 165 L 252.039062 113.390625 L 233.574219 165 L 206.867188 165 L 188.484375 113.316406 L 188.484375 165 Z M 162.988281 165 "/>
<path style=" stroke:none;fill-rule:nonzero;fill:rgb(8.627451%,61.568627%,85.098039%);fill-opacity:1;" d="M 125.007812 17.914062 L 125.007812 8.804688 L 133.78125 8.804688 L 133.78125 0 L 142.785156 0 L 142.785156 8.804688 L 151.636719 8.804688 L 151.636719 17.914062 L 142.785156 17.914062 L 142.785156 26.792969 L 133.78125 26.792969 L 133.78125 17.914062 Z M 125.007812 17.914062 "/>
</g>
</svg>
