<?xml version="1.0" encoding="UTF-8"?>
<svg xmlns="http://www.w3.org/2000/svg" xmlns:xlink="http://www.w3.org/1999/xlink" width="279px" height="86px" viewBox="0 0 279 86" version="1.1">
<g id="surface1">
<path style=" stroke:none;fill-rule:nonzero;fill:rgb(0%,67.058824%,74.901961%);fill-opacity:1;" d="M 84.308594 77.085938 C 82.449219 77.214844 78.328125 77.445312 75.671875 77.457031 C 72.992188 77.457031 70.53125 77.367188 69.511719 77.261719 C 64.960938 76.785156 63.4375 74.960938 63.4375 70.332031 L 63.4375 43.59375 C 63.4375 41.144531 62.988281 40.335938 60.160156 40.335938 L 50.769531 40.335938 L 50.769531 72.777344 C 50.769531 82.140625 53.148438 85.992188 69.625 85.992188 C 82.359375 85.992188 87.203125 85.347656 87.203125 85.347656 C 87.203125 85.347656 87.234375 80.949219 87.234375 79.257812 C 87.234375 77.015625 86.992188 76.902344 84.308594 77.085938 M 175.996094 49.105469 L 164.363281 49.105469 C 163.34375 49.105469 162.582031 49.445312 162.011719 50.332031 L 156.109375 59.09375 L 155.875 59.09375 L 150.167969 50.332031 C 149.609375 49.464844 148.886719 49.105469 147.863281 49.105469 L 135.03125 49.105469 L 147.796875 66.851562 L 133.558594 85.140625 L 145.230469 85.140625 C 146.320312 85.140625 147.125 84.636719 147.59375 83.910156 L 154.671875 73.332031 L 154.960938 73.332031 L 161.59375 83.503906 C 162.292969 84.722656 163.082031 85.140625 164.21875 85.140625 L 177.394531 85.140625 L 162.957031 66.113281 Z M 126.089844 49.105469 L 116.46875 49.105469 L 116.46875 78.039062 C 114.695312 78.679688 111.625 78.875 109.558594 78.875 C 104.867188 78.875 102.796875 77.105469 102.796875 74.144531 L 102.796875 51.015625 C 102.796875 49.957031 101.957031 49.105469 100.914062 49.105469 L 91.28125 49.105469 L 91.28125 73.40625 C 91.28125 82.125 97.457031 85.957031 109.785156 85.957031 C 117.222656 85.957031 124.414062 84.738281 127.988281 83.128906 L 127.988281 51.015625 C 127.988281 49.957031 127.140625 49.105469 126.089844 49.105469 M 236.652344 37.5625 L 227.738281 37.5625 L 227.738281 45.378906 L 239.261719 45.378906 L 239.261719 40.28125 C 239.261719 37.851562 238.859375 37.5625 236.652344 37.5625 M 279.191406 48.917969 C 276.4375 48.546875 272.648438 48.289062 268.28125 48.289062 C 261.917969 48.316406 255.023438 48.882812 250.769531 50.429688 L 250.769531 85.140625 L 262.285156 85.140625 L 262.285156 60.644531 C 262.285156 58.261719 263.644531 56.550781 265.976562 56.191406 C 267.605469 55.941406 269.992188 55.832031 271.5625 55.851562 C 274.789062 55.886719 277.835938 56.179688 279.449219 56.640625 C 279.449219 56.640625 279.730469 56.707031 279.882812 56.578125 L 280 56.230469 L 280 49.828125 C 280 49.242188 279.824219 49.007812 279.191406 48.917969 M 236.652344 49.105469 L 227.738281 49.105469 L 227.738281 85.140625 L 239.261719 85.140625 L 239.261719 52.007812 C 239.261719 49.703125 238.691406 49.105469 236.652344 49.105469 M 199.195312 48.308594 C 194.402344 48.308594 188.460938 49.078125 184.144531 50.492188 C 183.984375 50.542969 183.933594 50.667969 183.933594 50.84375 L 183.933594 56.851562 C 183.933594 57.734375 184.246094 58.152344 184.800781 58.15625 C 185.148438 58.164062 185.578125 57.949219 186.140625 57.714844 C 189.640625 56.191406 193.523438 55.464844 198.253906 55.464844 C 204.03125 55.464844 204.71875 56.398438 204.71875 58.34375 C 204.71875 59.964844 204.609375 60.007812 202.277344 60.636719 C 196.988281 62.144531 190.78125 63.523438 185.792969 66.300781 C 182.3125 68.234375 181.058594 71.675781 181.058594 75.335938 C 181.058594 83.285156 185.917969 85.960938 196.703125 85.960938 C 205.769531 85.960938 212.332031 84.796875 216.238281 83.222656 L 216.238281 59.136719 C 216.238281 50.097656 207.320312 48.308594 199.195312 48.308594 M 204.71875 74.222656 C 204.71875 77.226562 204.101562 79.523438 198.761719 79.523438 C 194.390625 79.523438 192.804688 77.808594 192.804688 74.195312 C 192.804688 71.824219 194.179688 70.429688 197.773438 69.027344 C 200.074219 68.097656 202.355469 67.304688 204.71875 66.453125 Z M 204.71875 74.222656 "/>
<path style=" stroke:none;fill-rule:nonzero;fill:rgb(0%,67.058824%,74.901961%);fill-opacity:1;" d="M 28.695312 5.300781 L 6.433594 32.089844 C 6.203125 32.34375 6.117188 32.644531 6.222656 32.878906 C 6.328125 33.132812 6.554688 33.285156 6.875 33.285156 L 41.273438 33.292969 C 41.582031 33.292969 41.796875 33.027344 41.796875 32.738281 C 41.796875 32.4375 41.65625 32.257812 41.351562 32.1875 C 40.113281 31.898438 33.359375 30.4375 28.507812 28.964844 C 25.5 28.054688 24.320312 25.46875 25.109375 22.019531 C 25.972656 18.195312 29.640625 5.90625 29.652344 5.871094 C 29.738281 5.617188 29.683594 5.300781 29.417969 5.175781 C 29.125 5.019531 28.867188 5.089844 28.695312 5.300781 "/>
<path style=" stroke:none;fill-rule:nonzero;fill:rgb(0%,67.058824%,74.901961%);fill-opacity:1;" d="M 24.246094 0.0078125 C 37.566406 0.0078125 48.402344 10.859375 48.402344 24.28125 C 48.402344 37.589844 37.566406 48.453125 24.246094 48.453125 C 10.839844 48.453125 0 37.589844 0 24.28125 C 0 10.859375 10.839844 0.0078125 24.246094 0.0078125 M 24.246094 2.960938 C 12.488281 2.960938 2.957031 12.496094 2.957031 24.28125 C 2.957031 36.03125 12.488281 45.570312 24.246094 45.570312 C 36 45.570312 45.539062 36.03125 45.539062 24.28125 C 45.539062 12.417969 36 2.960938 24.246094 2.960938 "/>
</g>
</svg>
