<?xml version="1.0" encoding="UTF-8"?>
<svg xmlns="http://www.w3.org/2000/svg" xmlns:xlink="http://www.w3.org/1999/xlink" width="279px" height="47px" viewBox="0 0 279 47" version="1.1">
<g id="surface1">
<path style=" stroke:none;fill-rule:nonzero;fill:rgb(3.921569%,11.372549%,23.921569%);fill-opacity:1;" d="M 32.59375 18.828125 C 32.414062 18.828125 32.261719 18.832031 32.179688 18.839844 C 32.082031 19.019531 31.933594 19.257812 31.71875 19.59375 C 35.082031 19.59375 38.132812 19.871094 41.511719 20.476562 L 40.558594 21.398438 C 37.507812 20.855469 34.976562 20.640625 31.75 20.640625 C 31.28125 20.640625 31.183594 20.640625 31.070312 20.644531 C 30.957031 20.816406 30.703125 21.144531 30.449219 21.449219 C 30.738281 21.429688 31.292969 21.421875 32.058594 21.421875 C 34.710938 21.421875 37.191406 21.617188 39.882812 22.050781 L 38.929688 22.976562 C 36.878906 22.65625 34.375 22.472656 32.132812 22.472656 C 31.332031 22.472656 30.425781 22.5 29.613281 22.546875 C 29.429688 22.761719 28.953125 23.277344 28.808594 23.4375 C 29.882812 23.324219 31.066406 23.273438 32.476562 23.273438 C 34.480469 23.273438 36.398438 23.402344 38.210938 23.671875 L 37.257812 24.589844 C 35.964844 24.429688 34.394531 24.335938 33.011719 24.335938 C 29.4375 24.335938 26.617188 25.109375 23.707031 26.890625 C 26.480469 29.871094 31.027344 31.753906 35.433594 31.753906 L 35.847656 31.753906 L 34.304688 33.242188 C 27.953125 32.050781 21.265625 29.253906 15.613281 25.425781 C 10.179688 21.753906 8.277344 20.667969 4.039062 18.792969 L 4.007812 17.703125 L 6.878906 18.9375 L 7.855469 18.160156 L 17.226562 22.453125 L 16.613281 22.945312 L 11.804688 20.851562 L 11.332031 21.222656 L 13.828125 22.621094 C 15.9375 23.792969 17.542969 24.320312 19.027344 24.320312 C 22.273438 24.320312 25.1875 22.019531 27.066406 17.972656 C 28.476562 17.789062 29.984375 17.703125 31.796875 17.703125 C 35.519531 17.703125 39.128906 18.0625 43.21875 18.828125 L 42.226562 19.789062 C 39.679688 19.257812 35.355469 18.828125 32.59375 18.828125 M 23.484375 45.585938 C 11.296875 45.585938 1.410156 35.695312 1.410156 23.5 C 1.410156 11.304688 11.296875 1.414062 23.484375 1.414062 C 35.675781 1.414062 45.5625 11.304688 45.5625 23.5 C 45.5625 35.695312 35.675781 45.585938 23.484375 45.585938 M 23.484375 0.00390625 C 10.5 0.00390625 0 10.507812 0 23.5 C 0 36.492188 10.5 46.996094 23.484375 46.996094 C 36.472656 46.996094 46.972656 36.492188 46.972656 23.5 C 46.972656 10.507812 36.472656 0.00390625 23.484375 0.00390625 M 85.53125 32.855469 L 98.996094 32.855469 L 98.996094 39.164062 L 78.285156 39.164062 L 78.285156 7.835938 L 85.53125 7.835938 Z M 115.28125 16.609375 L 122.035156 16.609375 L 122.035156 39.164062 L 115.683594 39.164062 L 115.683594 36.566406 C 114.746094 38.3125 112.820312 39.835938 109.285156 39.835938 C 103.515625 39.835938 100.519531 37.238281 100.519531 29.808594 L 100.519531 16.609375 L 107.273438 16.609375 L 107.273438 29.496094 C 107.273438 32.496094 108.570312 33.839844 111.300781 33.839844 C 113.761719 33.839844 115.28125 32.496094 115.28125 29.496094 Z M 127.226562 15.757812 C 127.226562 10.296875 130.671875 7.386719 136.082031 7.386719 C 137.828125 7.386719 138.945312 7.65625 138.945312 7.65625 L 138.945312 13.117188 C 138.945312 13.117188 138.007812 13.027344 137.203125 13.027344 C 135.097656 13.027344 133.980469 13.742188 133.980469 15.710938 L 133.980469 16.609375 L 138.945312 16.609375 L 138.945312 22.113281 L 133.980469 22.113281 L 133.980469 39.164062 L 127.226562 39.164062 L 127.226562 22.113281 L 123.824219 22.113281 L 123.824219 16.609375 L 127.226562 16.609375 L 127.226562 15.757812 M 150.84375 16.609375 L 155.988281 16.609375 L 155.988281 22.113281 L 150.84375 22.113281 L 150.84375 30.882812 C 150.84375 33.300781 152.097656 33.929688 154.066406 33.929688 C 154.871094 33.929688 155.988281 33.792969 155.988281 33.792969 L 155.988281 39.207031 C 155.988281 39.207031 154.425781 39.566406 152.769531 39.566406 C 147.355469 39.566406 144.089844 37.105469 144.089844 31.644531 L 144.089844 22.113281 L 140.691406 22.113281 L 140.691406 16.609375 L 144.089844 16.609375 L 144.089844 10.027344 L 150.84375 10.027344 Z M 170.945312 15.9375 C 176.671875 15.9375 179.667969 18.53125 179.667969 25.960938 L 179.667969 39.164062 L 172.914062 39.164062 L 172.914062 26.273438 C 172.914062 23.277344 171.617188 21.933594 168.796875 21.933594 C 166.246094 21.933594 164.726562 23.277344 164.726562 26.273438 L 164.726562 39.164062 L 157.972656 39.164062 L 157.972656 7.878906 L 164.773438 7.878906 L 164.773438 18.800781 C 165.933594 17.144531 167.769531 15.9375 170.945312 15.9375 M 196.890625 30.390625 C 196.890625 32.855469 194.5625 34.6875 190.984375 34.6875 C 189.242188 34.6875 188.210938 33.882812 188.210938 32.359375 C 188.210938 31.199219 188.929688 30.214844 191.210938 29.898438 L 195.101562 29.363281 C 195.773438 29.273438 196.488281 29.140625 196.890625 29.003906 Z M 193.132812 15.9375 C 186.46875 15.9375 183.246094 18.488281 182.980469 23.277344 L 189.554688 23.277344 C 189.644531 22.023438 190.359375 21.082031 193.132812 21.082031 C 195.59375 21.082031 196.757812 21.890625 196.757812 23.097656 C 196.757812 24.171875 196.085938 24.574219 194.429688 24.753906 L 190.136719 25.199219 C 184.320312 25.828125 181.679688 28.242188 181.679688 32.628906 C 181.679688 36.703125 184.1875 39.835938 189.511719 39.835938 C 193.132812 39.835938 195.28125 38.671875 197.160156 36.34375 L 197.160156 39.164062 L 203.332031 39.164062 L 203.332031 24.351562 C 203.332031 18.128906 199.710938 15.9375 193.132812 15.9375 M 218.953125 15.9375 C 224.8125 15.9375 227.808594 18.53125 227.808594 25.960938 L 227.808594 39.164062 L 221.054688 39.164062 L 221.054688 26.273438 C 221.054688 23.277344 219.757812 21.933594 216.941406 21.933594 C 214.390625 21.933594 212.867188 23.277344 212.867188 26.273438 L 212.867188 39.164062 L 206.113281 39.164062 L 206.113281 16.609375 L 212.464844 16.609375 L 212.464844 19.203125 C 213.40625 17.457031 215.328125 15.9375 218.953125 15.9375 M 242.058594 25.019531 C 247.785156 25.78125 250.648438 27.574219 250.648438 32.273438 C 250.648438 37.015625 247.292969 39.835938 240.179688 39.835938 C 232.441406 39.835938 229.710938 36.746094 229.578125 32.226562 L 236.246094 32.226562 C 236.421875 33.882812 237.585938 34.6875 240.179688 34.6875 C 242.820312 34.6875 243.894531 34.0625 243.894531 32.808594 C 243.894531 31.644531 243 31.109375 240.671875 30.796875 L 238.300781 30.480469 C 233.335938 29.808594 230.472656 27.886719 230.472656 23.410156 C 230.472656 19.113281 233.648438 15.9375 240.316406 15.9375 C 246.488281 15.9375 249.800781 18.398438 250.113281 23.277344 L 243.535156 23.277344 C 243.3125 21.976562 242.597656 21.171875 240.316406 21.171875 C 238.078125 21.171875 237.230469 21.933594 237.230469 22.917969 C 237.230469 23.902344 237.765625 24.441406 239.6875 24.707031 L 242.058594 25.019531 M 267.558594 30.390625 C 267.558594 32.855469 265.230469 34.6875 261.652344 34.6875 C 259.90625 34.6875 258.878906 33.882812 258.878906 32.359375 C 258.878906 31.199219 259.59375 30.214844 261.875 29.898438 L 265.769531 29.363281 C 266.441406 29.273438 267.15625 29.140625 267.558594 29.003906 Z M 263.800781 15.9375 C 257.136719 15.9375 253.914062 18.488281 253.644531 23.277344 L 260.222656 23.277344 C 260.3125 22.023438 261.027344 21.082031 263.800781 21.082031 C 266.261719 21.082031 267.425781 21.890625 267.425781 23.097656 C 267.425781 24.171875 266.753906 24.574219 265.097656 24.753906 L 260.804688 25.199219 C 254.988281 25.828125 252.347656 28.242188 252.347656 32.628906 C 252.347656 36.703125 254.851562 39.835938 260.175781 39.835938 C 263.800781 39.835938 265.949219 38.671875 267.828125 36.34375 L 267.828125 39.164062 L 274 39.164062 L 274 24.351562 C 274 18.128906 270.375 15.9375 263.800781 15.9375 "/>
</g>
</svg>
