<?xml version="1.0" encoding="UTF-8"?>
<svg xmlns="http://www.w3.org/2000/svg" xmlns:xlink="http://www.w3.org/1999/xlink" width="279px" height="65px" viewBox="0 0 279 65" version="1.1">
<g id="surface1">
<path style=" stroke:none;fill-rule:nonzero;fill:rgb(80%,0%,0%);fill-opacity:1;" d="M 205.222656 53.226562 L 194.445312 53.226562 L 194.445312 11.628906 L 205.222656 11.628906 Z M 179.710938 11.628906 L 172.777344 39.507812 L 164.65625 11.628906 L 154.242188 11.628906 L 146.128906 39.507812 L 139.175781 11.628906 L 128.644531 11.628906 L 140.101562 53.226562 L 151.226562 53.226562 L 159.441406 24.695312 L 167.65625 53.226562 L 178.777344 53.226562 L 190.269531 11.628906 Z M 127.746094 41.464844 C 127.746094 33.492188 123.527344 30.820312 114.296875 27.800781 C 109.945312 26.378906 105.882812 25.285156 105.882812 21.898438 C 105.882812 18.921875 108.902344 17.933594 111.15625 17.933594 C 113.066406 17.933594 116.660156 18.339844 116.953125 22.753906 L 127.140625 22.753906 C 126.960938 14.332031 120.128906 10.664062 111.335938 10.664062 C 105.882812 10.664062 101.378906 12.210938 98.542969 15.011719 C 96.5625 16.96875 95.355469 19.835938 95.355469 22.816406 C 95.355469 30.5625 100.519531 33.664062 106.347656 35.441406 C 112.898438 37.449219 117.234375 38.644531 117.234375 42.261719 C 117.234375 44.675781 115.328125 47.082031 111.554688 47.082031 C 106.765625 47.082031 105.023438 44.214844 104.910156 41.398438 L 94.601562 41.398438 C 94.601562 50.984375 102.660156 54.488281 111.554688 54.488281 C 122.914062 54.488281 127.746094 48.007812 127.746094 41.464844 M 243.335938 41.464844 C 243.335938 32.289062 236.675781 29.867188 228.628906 27.460938 C 224.75 26.3125 221.265625 25.289062 221.265625 21.898438 C 221.265625 18.921875 224.285156 17.933594 226.539062 17.933594 C 228.457031 17.933594 232.039062 18.339844 232.324219 22.753906 L 242.523438 22.753906 C 242.347656 14.332031 235.519531 10.664062 226.710938 10.664062 C 221.265625 10.664062 216.746094 12.210938 213.921875 15.011719 C 211.953125 16.96875 210.738281 19.835938 210.738281 22.816406 C 210.738281 30.5625 215.890625 33.664062 221.742188 35.441406 C 228.285156 37.449219 232.625 38.644531 232.625 42.261719 C 232.625 44.675781 230.722656 47.082031 226.953125 47.082031 C 222.144531 47.082031 220.402344 44.214844 220.296875 41.398438 L 209.984375 41.398438 C 209.984375 50.984375 218.039062 54.488281 226.953125 54.488281 C 238.292969 54.488281 243.335938 48.007812 243.335938 41.464844 M 280.410156 41.464844 C 280.410156 32.289062 273.722656 29.867188 265.679688 27.460938 C 261.789062 26.3125 258.332031 25.289062 258.332031 21.898438 C 258.332031 18.921875 261.332031 17.933594 263.585938 17.933594 C 265.492188 17.933594 269.085938 18.339844 269.378906 22.753906 L 279.597656 22.753906 C 279.421875 14.332031 272.5625 10.664062 263.777344 10.664062 C 258.332031 10.664062 253.808594 12.210938 250.964844 15.011719 C 249 16.96875 247.792969 19.835938 247.792969 22.816406 C 247.792969 30.5625 252.945312 33.664062 258.78125 35.441406 C 265.332031 37.449219 269.667969 38.644531 269.667969 42.261719 C 269.667969 44.675781 267.765625 47.082031 263.996094 47.082031 C 259.195312 47.082031 257.457031 44.214844 257.34375 41.398438 L 247.027344 41.398438 C 247.027344 50.984375 255.078125 54.488281 263.996094 54.488281 C 275.367188 54.488281 280.410156 48.007812 280.410156 41.464844 "/>
<path style=" stroke:none;fill-rule:nonzero;fill:rgb(80%,0%,0%);fill-opacity:1;" d="M 52.601562 -0.00390625 L 87.53125 -0.00390625 L 71.550781 65 L 0.589844 65 Z M 52.601562 -0.00390625 "/>
<path style=" stroke:none;fill-rule:nonzero;fill:rgb(100%,100%,100%);fill-opacity:1;" d="M 60.695312 38.492188 L 74.65625 38.492188 L 74.65625 26.5 L 60.695312 26.5 L 60.695312 12.503906 L 48.726562 12.503906 L 48.726562 26.5 L 34.765625 26.5 L 34.765625 38.492188 L 48.71875 38.492188 L 48.71875 52.492188 L 60.683594 52.492188 L 60.683594 38.492188 Z M 60.695312 38.492188 "/>
</g>
</svg>
