<?xml version="1.0" encoding="UTF-8"?>
<svg xmlns="http://www.w3.org/2000/svg" xmlns:xlink="http://www.w3.org/1999/xlink" width="279px" height="76px" viewBox="0 0 279 76" version="1.1">
<g id="surface1">
<path style=" stroke:none;fill-rule:nonzero;fill:rgb(6.666667%,29.411765%,55.686275%);fill-opacity:1;" d="M 78.839844 10.125 L 101.277344 10.125 L 115.898438 61.027344 C 116.480469 62.648438 117.859375 62.191406 118.082031 61.027344 L 127.402344 10.125 L 137.300781 10.125 L 125.675781 75.800781 L 102.769531 75.800781 L 88.492188 25.359375 C 88.035156 23.972656 86.65625 23.625 86.1875 25.46875 L 77.210938 75.789062 L 66.855469 75.789062 Z M 78.839844 10.125 "/>
<path style=" stroke:none;fill-rule:nonzero;fill:rgb(6.666667%,29.411765%,55.686275%);fill-opacity:1;" d="M 38.109375 10.125 L 59.980469 10.125 L 64.355469 75.800781 L 48.007812 75.800781 L 47.664062 68.40625 C 47.664062 66.789062 46.394531 65.636719 44.792969 65.636719 L 19.578125 65.636719 L 25.101562 56.292969 L 42.359375 56.292969 C 44.320312 56.292969 46.613281 56.527344 46.503906 53.867188 L 44.667969 24.445312 C 44.667969 22.476562 42.941406 21.5625 41.90625 23.40625 L 11.171875 75.800781 L 0 75.800781 Z M 38.109375 10.125 "/>
<path style=" stroke:none;fill-rule:nonzero;fill:rgb(6.666667%,29.411765%,55.686275%);fill-opacity:1;" d="M 162.511719 10.125 L 184.496094 10.125 L 189.671875 75.800781 L 173.214844 75.800781 L 172.867188 68.40625 C 172.867188 66.789062 171.722656 65.636719 170.109375 65.636719 L 146.980469 65.636719 L 152.394531 56.292969 L 167.707031 56.292969 C 169.664062 56.292969 171.957031 56.527344 171.738281 53.867188 L 169.085938 24.445312 C 169.085938 22.476562 167.359375 21.5625 166.324219 23.40625 L 139.398438 75.800781 L 128.230469 75.800781 Z M 162.511719 10.125 "/>
<path style=" stroke:none;fill-rule:nonzero;fill:rgb(0%,69.411765%,80%);fill-opacity:1;" d="M 255.726562 75.800781 L 299 0.199219 L 237.667969 0.199219 L 194.394531 75.800781 Z M 255.726562 75.800781 "/>
<path style=" stroke:none;fill-rule:nonzero;fill:rgb(6.666667%,29.411765%,55.686275%);fill-opacity:1;" d="M 243.644531 75.800781 L 286.917969 0.199219 L 237.667969 0.199219 L 194.394531 75.800781 Z M 243.644531 75.800781 "/>
</g>
</svg>
