<?xml version="1.0" encoding="UTF-8"?>
<svg xmlns="http://www.w3.org/2000/svg" xmlns:xlink="http://www.w3.org/1999/xlink" width="279px" height="77px" viewBox="0 0 279 77" version="1.1">
<g id="surface1">
<path style=" stroke:none;fill-rule:nonzero;fill:rgb(13.72549%,12.156863%,12.54902%);fill-opacity:1;" d="M 228.390625 16.105469 L 237.476562 16.105469 L 240.464844 2.039062 L 257.808594 2.039062 L 254.8125 16.105469 L 266.269531 16.105469 L 263.832031 27.546875 L 252.378906 27.546875 L 248.585938 45.386719 C 247.738281 49.394531 248.597656 49.960938 253.265625 49.960938 C 255.386719 49.960938 257.125 49.882812 259.4375 49.800781 L 257.140625 60.597656 C 253.515625 61.085938 248.863281 61.414062 243.789062 61.414062 C 232.5 61.414062 228.425781 58.640625 230.464844 49.066406 L 235.046875 27.546875 L 225.960938 27.546875 Z M 228.390625 16.105469 "/>
<path style=" stroke:none;fill-rule:nonzero;fill:rgb(13.72549%,12.156863%,12.54902%);fill-opacity:1;" d="M 204.84375 16.105469 L 222.179688 16.105469 L 212.761719 60.4375 L 195.421875 60.4375 Z M 204.84375 16.105469 "/>
<path style=" stroke:none;fill-rule:nonzero;fill:rgb(13.72549%,12.156863%,12.54902%);fill-opacity:1;" d="M 208.144531 0.558594 L 225.484375 0.558594 L 223.257812 11.027344 L 205.917969 11.027344 Z M 208.144531 0.558594 "/>
<path style=" stroke:none;fill-rule:nonzero;fill:rgb(13.72549%,12.156863%,12.54902%);fill-opacity:1;" d="M 158.90625 16.105469 L 149.480469 60.441406 L 166.351562 60.441406 L 175.78125 16.105469 Z M 158.90625 16.105469 "/>
<path style=" stroke:none;fill-rule:nonzero;fill:rgb(13.72549%,12.156863%,12.54902%);fill-opacity:1;" d="M 195.738281 14.132812 C 187.996094 14.132812 175.671875 21.761719 172.421875 35.34375 L 171.585938 38.402344 L 171.878906 38.402344 C 174.339844 32.507812 180.511719 29.355469 188.824219 29.355469 C 191.066406 29.355469 193.613281 29.660156 195.660156 30.121094 L 199.03125 14.289062 C 197.925781 14.191406 196.777344 14.132812 195.738281 14.132812 "/>
<path style=" stroke:none;fill-rule:nonzero;fill:rgb(13.72549%,12.156863%,12.54902%);fill-opacity:1;" d="M 134.429688 16.105469 L 151.765625 16.105469 L 142.34375 60.4375 L 125.007812 60.4375 Z M 134.429688 16.105469 "/>
<path style=" stroke:none;fill-rule:nonzero;fill:rgb(13.72549%,12.156863%,12.54902%);fill-opacity:1;" d="M 137.726562 0.558594 L 155.070312 0.558594 L 152.847656 11.027344 L 135.503906 11.027344 Z M 137.726562 0.558594 "/>
<path style=" stroke:none;fill-rule:nonzero;fill:rgb(13.72549%,12.156863%,12.54902%);fill-opacity:1;" d="M 91.566406 49.636719 C 99.507812 49.636719 104.675781 45.710938 106.234375 38.351562 C 107.800781 30.980469 104.300781 27.0625 96.371094 27.0625 C 88.273438 27.0625 83.078125 31.472656 81.621094 38.351562 C 80.160156 45.222656 83.46875 49.636719 91.566406 49.636719 M 69.003906 16.105469 L 85.851562 16.105469 L 84.605469 21.992188 L 84.765625 21.992188 C 89.40625 17.492188 96.082031 14.957031 103.117188 14.957031 C 118.820312 14.957031 127.199219 23.621094 123.929688 39.003906 C 121.199219 51.847656 109.5 62.226562 93.226562 62.226562 C 85.539062 62.226562 80.191406 59.695312 77.9375 56.425781 L 77.777344 56.425781 L 73.507812 76.46875 L 56.171875 76.46875 Z M 69.003906 16.105469 "/>
<path style=" stroke:none;fill-rule:nonzero;fill:rgb(13.72549%,12.156863%,12.54902%);fill-opacity:1;" d="M 20.378906 46.613281 C 20.277344 48.246094 20.65625 49.558594 22.03125 50.382812 C 23.398438 51.28125 25.664062 51.765625 29.425781 51.765625 C 33.269531 51.765625 37.519531 51.03125 38.195312 47.839844 C 38.699219 45.46875 37.117188 44.8125 32.972656 44.320312 L 17.90625 42.441406 C 8.03125 41.210938 3.640625 37.617188 5.246094 30.085938 C 7.792969 18.066406 18.902344 14.304688 35.507812 14.304688 C 47.285156 14.304688 61.71875 16.425781 60.027344 29.023438 L 40.5625 29.023438 C 40.796875 27.144531 39.828125 25.917969 38.25 25.261719 C 36.6875 24.53125 34.453125 24.28125 32.242188 24.28125 C 27.253906 24.28125 24.066406 25.425781 23.421875 28.453125 C 23.125 29.84375 24.011719 31.070312 28.324219 31.5625 L 42.945312 33.195312 C 54.609375 34.507812 59.714844 38.1875 57.875 46.855469 C 55.648438 57.324219 44.628906 62.226562 26.222656 62.226562 C 13.949219 62.226562 -2.1875 60.027344 0.257812 46.613281 Z M 20.378906 46.613281 "/>
<path style=" stroke:none;fill-rule:nonzero;fill:rgb(13.72549%,12.156863%,12.54902%);fill-opacity:1;" d="M 271.425781 19.59375 C 271.632812 19.59375 271.796875 19.546875 271.917969 19.449219 C 272.039062 19.355469 272.097656 19.21875 272.097656 19.050781 C 272.097656 18.894531 272.046875 18.765625 271.945312 18.660156 C 271.84375 18.558594 271.675781 18.507812 271.445312 18.507812 L 271.011719 18.507812 L 271.011719 19.59375 Z M 270.105469 17.816406 L 271.609375 17.816406 C 272.007812 17.816406 272.347656 17.910156 272.632812 18.089844 C 272.917969 18.269531 273.058594 18.574219 273.058594 18.996094 C 273.058594 19.203125 273.003906 19.394531 272.886719 19.578125 C 272.773438 19.757812 272.605469 19.898438 272.386719 19.992188 L 273.1875 21.425781 L 272.226562 21.425781 L 271.625 20.246094 L 271.011719 20.246094 L 271.011719 21.425781 L 270.105469 21.425781 Z M 271.5 22.496094 C 271.875 22.496094 272.226562 22.425781 272.550781 22.289062 C 272.878906 22.148438 273.160156 21.953125 273.394531 21.707031 C 273.628906 21.460938 273.816406 21.164062 273.949219 20.820312 C 274.082031 20.472656 274.148438 20.089844 274.148438 19.667969 C 274.148438 19.242188 274.082031 18.855469 273.949219 18.507812 C 273.816406 18.15625 273.628906 17.855469 273.394531 17.601562 C 273.160156 17.347656 272.878906 17.148438 272.550781 17.011719 C 272.226562 16.871094 271.875 16.804688 271.5 16.804688 C 271.113281 16.804688 270.761719 16.871094 270.441406 17.011719 C 270.117188 17.148438 269.839844 17.347656 269.605469 17.601562 C 269.371094 17.855469 269.1875 18.15625 269.054688 18.507812 C 268.917969 18.855469 268.851562 19.242188 268.851562 19.667969 C 268.851562 20.089844 268.917969 20.472656 269.054688 20.820312 C 269.1875 21.164062 269.371094 21.460938 269.605469 21.707031 C 269.839844 21.953125 270.117188 22.148438 270.441406 22.289062 C 270.761719 22.425781 271.113281 22.496094 271.5 22.496094 M 271.5 23.277344 C 271.015625 23.277344 270.5625 23.1875 270.140625 23.011719 C 269.71875 22.835938 269.347656 22.589844 269.027344 22.269531 C 268.703125 21.949219 268.453125 21.570312 268.273438 21.125 C 268.089844 20.6875 268 20.199219 268 19.667969 C 268 19.136719 268.089844 18.644531 268.273438 18.199219 C 268.453125 17.75 268.703125 17.367188 269.027344 17.046875 C 269.347656 16.726562 269.71875 16.480469 270.140625 16.304688 C 270.5625 16.128906 271.015625 16.042969 271.5 16.042969 C 271.984375 16.042969 272.4375 16.128906 272.859375 16.304688 C 273.285156 16.480469 273.65625 16.726562 273.976562 17.046875 C 274.296875 17.367188 274.546875 17.75 274.726562 18.199219 C 274.910156 18.644531 275 19.136719 275 19.667969 C 275 20.199219 274.910156 20.6875 274.726562 21.125 C 274.546875 21.570312 274.296875 21.949219 273.976562 22.269531 C 273.65625 22.589844 273.285156 22.835938 272.859375 23.011719 C 272.4375 23.1875 271.984375 23.277344 271.5 23.277344 "/>
</g>
</svg>
