<?xml version="1.0" encoding="UTF-8"?>
<svg xmlns="http://www.w3.org/2000/svg" xmlns:xlink="http://www.w3.org/1999/xlink" width="279px" height="40px" viewBox="0 0 279 40" version="1.1">
<g id="surface1">
<path style=" stroke:none;fill-rule:evenodd;fill:rgb(84.705882%,11.764706%,1.960784%);fill-opacity:1;" d="M 129.808594 40 L 141.945312 40 L 141.945312 37.011719 L 139.875 36.773438 C 138.699219 36.652344 138.425781 36.496094 138.425781 32.980469 L 138.425781 12.328125 L 129.988281 13.332031 L 129.988281 16.113281 L 131.210938 16.328125 C 132.742188 16.601562 133.382812 17.085938 133.382812 19.355469 L 133.382812 32.980469 C 133.382812 36.347656 133.167969 36.597656 131.671875 36.773438 L 129.808594 37.015625 L 129.808594 40 "/>
<path style=" stroke:none;fill-rule:evenodd;fill:rgb(84.705882%,11.764706%,1.960784%);fill-opacity:1;" d="M 135.335938 1.089844 C 133.378906 1.089844 132.207031 2.230469 132.207031 4.136719 C 132.207031 6.09375 133.378906 7.261719 135.335938 7.261719 C 137.351562 7.261719 138.503906 6.121094 138.503906 4.136719 C 138.503906 2.226562 137.320312 1.089844 135.335938 1.089844 M 12.5 23.324219 L 17.734375 8.921875 L 22.867188 23.324219 L 12.496094 23.324219 Z M 35.1875 36.332031 C 33.808594 36.035156 33.441406 35.703125 32.359375 32.558594 L 20.460938 -0.00390625 L 17.5 -0.00390625 L 5.0625 33.054688 C 4.339844 35.160156 3.980469 36.023438 2.410156 36.285156 L 0.726562 36.515625 L 0.726562 39.441406 L 11.78125 39.441406 L 11.78125 36.507812 L 7.867188 36.085938 L 11.199219 26.90625 L 24.144531 26.90625 L 27.398438 36.039062 L 23.542969 36.511719 L 23.542969 39.441406 L 36.703125 39.441406 L 36.703125 36.511719 L 35.191406 36.335938 Z M 108.960938 39.441406 L 121.945312 39.441406 L 121.945312 36.613281 L 118.773438 36.226562 C 117.65625 36.109375 117.363281 35.9375 117.363281 32.546875 L 117.363281 19.339844 L 117.394531 19.289062 C 118.292969 18.117188 119.894531 17.300781 121.285156 17.300781 C 123.054688 17.300781 124.71875 17.691406 126.121094 18.433594 L 126.121094 12.433594 C 125.320312 12.148438 124.476562 12 123.625 11.996094 C 121.300781 11.996094 119.183594 13.164062 117.15625 15.554688 L 116.941406 15.804688 L 116.414062 12.558594 L 108.757812 12.558594 L 108.757812 15.886719 L 110.121094 16.121094 C 111.597656 16.378906 112.300781 16.90625 112.300781 19.199219 L 112.300781 32.546875 C 112.300781 36.015625 112.027344 36.160156 110.585938 36.324219 L 108.960938 36.511719 L 108.960938 39.441406 M 104.640625 34.890625 C 103.296875 35.574219 101.953125 35.921875 100.644531 35.921875 C 99.011719 35.921875 97.921875 35.234375 97.921875 31.890625 L 97.921875 16.175781 L 104.316406 16.175781 L 104.316406 12.554688 L 97.921875 12.554688 L 97.921875 6.234375 L 94.824219 6.234375 L 93.167969 12.558594 L 89.097656 12.558594 L 89.097656 16.175781 L 92.859375 16.175781 L 92.859375 32.601562 C 92.859375 37.578125 94.851562 40 98.953125 40 C 102.222656 40 104.773438 38.601562 106.003906 37.769531 L 106.226562 37.621094 L 104.933594 34.746094 L 104.640625 34.890625 M 64.109375 36.527344 L 62.574219 36.277344 C 61.066406 36.023438 60.398438 35.519531 60.398438 33.207031 L 60.398438 12.558594 L 51.796875 12.558594 L 51.796875 15.886719 L 53.152344 16.121094 C 54.632812 16.378906 55.332031 16.90625 55.332031 19.199219 L 55.332031 33.28125 L 55.261719 33.328125 C 53.058594 34.6875 50.726562 35.46875 48.871094 35.46875 C 45.933594 35.46875 44.503906 33.6875 44.503906 30.023438 L 44.503906 12.558594 L 35.9375 12.558594 L 35.9375 15.894531 L 37.261719 16.121094 C 38.734375 16.378906 39.441406 16.90625 39.441406 19.199219 L 39.441406 30.527344 C 39.441406 34.847656 40.78125 40 47.175781 40 C 50.167969 40 52.777344 38.886719 55.636719 36.382812 L 55.839844 36.203125 L 56.417969 39.429688 L 64.109375 39.429688 L 64.109375 36.527344 M 159.101562 31.132812 C 159.101562 34.054688 157.066406 36.019531 154.035156 36.019531 C 152.222656 36.019531 150.066406 35.355469 150.066406 32.195312 C 150.066406 28.699219 152.308594 27.46875 158.941406 27.3125 L 159.101562 27.3125 Z M 167.410156 36.476562 L 165.828125 36.277344 C 164.351562 36.105469 164.117188 35.929688 164.117188 33.910156 L 164.117188 21.222656 C 164.117188 14.84375 161.773438 11.996094 155.867188 11.996094 C 151.964844 11.996094 148.457031 13.414062 146.476562 14.734375 L 146.269531 14.871094 L 147.363281 17.898438 L 147.664062 17.773438 C 150.566406 16.566406 152.339844 16.179688 154.96875 16.179688 C 158.191406 16.179688 159.101562 17.585938 159.101562 21.371094 L 159.101562 23.847656 L 158.953125 23.851562 C 150.125 24.253906 144.652344 25.855469 144.652344 32.601562 C 144.652344 35.972656 146.019531 40 152.542969 40 C 156.535156 40 158.722656 37.871094 159.480469 36.957031 L 159.65625 36.742188 L 159.742188 37.007812 C 160.386719 38.996094 161.867188 40 164.148438 40 C 165.378906 40 166.367188 39.796875 167.410156 39.328125 Z M 77.308594 23.191406 C 74.582031 22.429688 72.359375 21.621094 72.359375 19.195312 C 72.359375 16.890625 74.074219 15.671875 77.324219 15.671875 C 80.28125 15.671875 80.726562 16.46875 80.957031 17.355469 L 81.757812 20.492188 L 85.347656 20.492188 L 85.347656 13.78125 C 83.597656 12.683594 80.652344 12 77.625 12 C 71.5625 12 67.644531 15.199219 67.644531 20.15625 C 67.644531 25.257812 71.332031 26.550781 74.859375 27.5 C 75.097656 27.5625 76.144531 27.835938 76.421875 27.910156 C 79.195312 28.660156 81.445312 29.5 81.445312 32.246094 C 81.445312 35.617188 78.582031 36.328125 76.183594 36.328125 C 72.476562 36.328125 71.960938 35.4375 71.707031 34.367188 L 71.007812 30.710938 L 67.398438 30.710938 L 67.398438 38.035156 C 69.058594 38.941406 71.867188 40 75.929688 40 C 80.949219 40 86.308594 37.679688 86.308594 31.183594 C 86.308594 26.046875 82.367188 24.601562 78.859375 23.617188 C 78.585938 23.539062 77.554688 23.257812 77.308594 23.191406 M 186.847656 39.441406 L 198.683594 39.441406 L 198.683594 36.507812 L 196.660156 36.214844 C 195.207031 36.039062 194.949219 35.75 194.949219 32.484375 L 194.949219 21.476562 C 194.949219 15.1875 192.277344 11.996094 187.011719 11.996094 C 183.070312 11.996094 180.386719 13.914062 178.492188 15.582031 L 178.273438 15.769531 L 177.886719 12.5625 L 170.386719 12.5625 L 170.386719 15.925781 L 171.511719 16.121094 C 172.988281 16.378906 173.691406 16.90625 173.691406 19.199219 L 173.691406 32.484375 C 173.691406 35.796875 173.476562 36.035156 171.976562 36.214844 L 170.105469 36.449219 L 170.105469 39.441406 L 181.894531 39.441406 L 181.894531 36.507812 L 180.234375 36.261719 C 178.855469 36.054688 178.753906 35.8125 178.753906 32.484375 L 178.753906 18.714844 L 178.832031 18.671875 C 181.0625 17.292969 183.363281 16.53125 185.320312 16.53125 C 188.433594 16.53125 189.882812 18.230469 189.882812 21.878906 L 189.882812 32.785156 C 189.882812 35.808594 189.773438 36.105469 188.558594 36.261719 L 186.847656 36.503906 L 186.847656 39.441406 M 215.929688 33.304688 C 225.046875 25.894531 231.558594 19.542969 233.496094 16.097656 C 234.320312 14.769531 234.585938 13.5 234.128906 12.464844 C 233.277344 10.539062 230.273438 9.957031 226.570312 10.679688 C 243.136719 6.925781 260 4.648438 276.960938 3.878906 C 277.113281 3.871094 277.246094 3.980469 277.273438 4.128906 C 277.300781 4.28125 277.210938 4.425781 277.066406 4.476562 C 255.597656 11.476562 236.054688 22.816406 219.449219 37.488281 C 219.429688 37.507812 219.402344 37.519531 219.378906 37.527344 L 208.570312 39.429688 C 208.417969 39.457031 208.335938 39.257812 208.460938 39.164062 C 210.980469 37.25 213.472656 35.296875 215.929688 33.304688 "/>
<path style=" stroke:none;fill-rule:evenodd;fill:rgb(57.647059%,15.686275%,17.254902%);fill-opacity:1;" d="M 214.480469 13.566406 C 214.242188 13.632812 214 13.695312 213.757812 13.765625 C 213.617188 13.804688 213.628906 14.015625 213.777344 14.035156 L 217.871094 14.625 L 225.023438 15.648438 C 225.050781 15.652344 225.078125 15.648438 225.105469 15.636719 C 230.140625 13.226562 233.496094 12.296875 234.234375 13.347656 C 234.460938 13.671875 234.421875 14.171875 234.15625 14.820312 C 234.0625 15.039062 233.945312 15.269531 233.804688 15.523438 C 234.59375 14.269531 234.84375 13.066406 234.410156 12.089844 C 233.597656 10.265625 230.730469 9.714844 227.179688 10.402344 C 222.921875 11.355469 218.6875 12.410156 214.480469 13.566406 "/>
</g>
</svg>
