<?xml version="1.0" encoding="UTF-8"?>
<svg xmlns="http://www.w3.org/2000/svg" xmlns:xlink="http://www.w3.org/1999/xlink" width="279px" height="55px" viewBox="0 0 279 55" version="1.1">
<defs>
<linearGradient id="linear0" gradientUnits="userSpaceOnUse" x1="0" y1="0" x2="1" y2="0" gradientTransform="matrix(-36.760058,-53.844613,53.686711,-36.868176,47.956557,54.350772)">
<stop offset="0" style="stop-color:rgb(74.509804%,0%,0%);stop-opacity:0.996078;"/>
<stop offset="1" style="stop-color:rgb(100%,0%,0%);stop-opacity:1;"/>
</linearGradient>
<linearGradient id="linear1" gradientUnits="userSpaceOnUse" x1="0" y1="0" x2="1" y2="0" gradientTransform="matrix(0.495256,-5.677456,5.660806,0.496713,37.721049,29.935715)">
<stop offset="0" style="stop-color:rgb(100%,100%,100%);stop-opacity:1;"/>
<stop offset="0.65" style="stop-color:rgb(100%,100%,100%);stop-opacity:1;"/>
<stop offset="0.95" style="stop-color:rgb(63.529412%,64.705882%,63.921569%);stop-opacity:1;"/>
<stop offset="1" style="stop-color:rgb(63.529412%,64.705882%,63.921569%);stop-opacity:1;"/>
</linearGradient>
<linearGradient id="linear2" gradientUnits="userSpaceOnUse" x1="0" y1="0" x2="1" y2="0" gradientTransform="matrix(23.825882,0,0,23.895958,30.446183,44.917315)">
<stop offset="0" style="stop-color:rgb(100%,100%,100%);stop-opacity:1;"/>
<stop offset="0.9" style="stop-color:rgb(63.529412%,64.705882%,63.921569%);stop-opacity:1;"/>
<stop offset="1" style="stop-color:rgb(63.529412%,64.705882%,63.921569%);stop-opacity:1;"/>
</linearGradient>
<linearGradient id="linear3" gradientUnits="userSpaceOnUse" x1="0" y1="0" x2="1" y2="0" gradientTransform="matrix(26.633237,0,0,26.71157,0.689029,20.134378)">
<stop offset="0" style="stop-color:rgb(100%,100%,100%);stop-opacity:1;"/>
<stop offset="0.43" style="stop-color:rgb(100%,100%,100%);stop-opacity:1;"/>
<stop offset="1" style="stop-color:rgb(63.529412%,64.705882%,63.921569%);stop-opacity:1;"/>
</linearGradient>
</defs>
<g id="surface1">
<path style=" stroke:none;fill-rule:nonzero;fill:url(#linear0);" d="M 0.00390625 0.566406 L 0 0.566406 L 0.691406 2.375 L 3.75 10.421875 L 20.46875 54.425781 L 75.546875 54.425781 L 31.410156 9.96875 C 25.53125 4.070312 17.550781 0.566406 9.238281 0.566406 Z M 0.00390625 0.566406 "/>
<path style=" stroke:none;fill-rule:nonzero;fill:rgb(100%,100%,100%);fill-opacity:1;" d="M 3.746094 10.421875 C 9.777344 20.75 25.601562 21.839844 27.324219 37.898438 C 27.394531 38.558594 27.898438 39.089844 28.554688 39.191406 C 37.671875 40.621094 46.554688 44.386719 54.273438 50.589844 L 54.277344 50.59375 C 54.292969 50.460938 54.410156 50.359375 54.542969 50.363281 C 54.679688 50.367188 54.789062 50.476562 54.796875 50.613281 C 54.800781 50.75 54.699219 50.867188 54.5625 50.882812 L 54.5625 50.890625 C 49.21875 45.257812 42.6875 40.753906 35.359375 37.796875 L 33.128906 36.898438 C 31.980469 36.433594 31.183594 35.292969 31.21875 33.976562 C 31.34375 29.179688 42.660156 30.15625 43.804688 27.851562 L 44.003906 27.453125 C 47.488281 35.417969 45.773438 44.707031 39.675781 50.890625 C 39.648438 51.007812 39.574219 51.566406 40.195312 52.578125 C 40.871094 53.683594 39.457031 55.433594 37.398438 53.542969 L 37.226562 53.386719 C 18.207031 10.859375 6.746094 18.144531 0.6875 2.375 Z M 3.746094 10.421875 "/>
<path style=" stroke:none;fill-rule:nonzero;fill:url(#linear1);" d="M 35.398438 25.902344 L 35.398438 29.730469 C 37.050781 29.253906 38.925781 28.957031 40.507812 28.625 L 40.507812 26.492188 C 40.507812 26.492188 38.003906 26.617188 36.464844 24.101562 C 36.921875 24.851562 36.414062 25.898438 35.398438 25.902344 "/>
<path style=" stroke:none;fill-rule:nonzero;fill:url(#linear2);" d="M 30.445312 39.523438 C 38.898438 41.152344 47.089844 44.816406 54.269531 50.589844 C 42.78125 40.742188 35.773438 39.242188 32.550781 39.242188 C 31.28125 39.242188 30.59375 39.476562 30.445312 39.523438 "/>
<path style=" stroke:none;fill-rule:nonzero;fill:url(#linear3);" d="M 0.6875 2.375 L 3.746094 10.421875 C 9.773438 20.75 25.601562 21.839844 27.324219 37.894531 C 25.582031 17.402344 16.605469 20.464844 6.964844 11.140625 C 4.476562 9.363281 2.375 6.761719 0.6875 2.375 Z M 0.6875 2.375 "/>
<path style=" stroke:none;fill-rule:nonzero;fill:rgb(19.607843%,19.607843%,19.607843%);fill-opacity:1;" d="M 81.449219 38.734375 C 87.394531 38.734375 92.398438 35.785156 92.398438 31.738281 C 92.398438 27.6875 87.394531 24.738281 81.449219 24.738281 C 75.503906 24.738281 70.5 27.6875 70.5 31.738281 C 70.5 35.785156 75.503906 38.734375 81.449219 38.734375 M 81.140625 44.539062 C 70.25 44.539062 63.335938 38.859375 63.335938 31.738281 C 63.335938 24.488281 70.65625 18.9375 81.449219 18.9375 C 92.246094 18.9375 99.566406 24.519531 99.566406 31.453125 C 99.566406 34.558594 98.191406 37.105469 95.558594 39.234375 L 101.972656 39.234375 L 100.441406 41.871094 C 99.46875 43.535156 98.28125 44.539062 95.714844 44.539062 Z M 114.484375 35.03125 L 125.808594 35.03125 L 120.554688 25.648438 C 120.429688 25.429688 120.335938 25.367188 120.148438 25.367188 C 119.960938 25.367188 119.867188 25.429688 119.742188 25.648438 Z M 128.71875 40.210938 L 111.578125 40.210938 L 109.136719 44.539062 L 102.03125 44.539062 L 113.921875 23.894531 C 114.859375 22.261719 116.207031 21.007812 118.894531 21.007812 L 121.554688 21.007812 C 124.246094 21.007812 125.589844 22.261719 126.527344 23.894531 L 138.417969 44.539062 L 131.160156 44.539062 Z M 172.265625 21.007812 L 172.265625 44.539062 L 165.914062 44.539062 L 147.269531 28.945312 L 147.269531 44.539062 L 140.914062 44.539062 L 140.914062 21.007812 L 144.890625 21.007812 C 146.925781 21.007812 147.957031 21.539062 149.113281 22.542969 L 165.914062 36.570312 L 165.914062 21.007812 Z M 194.851562 26.308594 L 194.851562 44.539062 L 188.5 44.539062 L 188.5 26.308594 L 175.484375 26.308594 L 175.484375 21.007812 L 207.863281 21.007812 L 207.863281 26.308594 Z M 214.777344 35.03125 L 226.101562 35.03125 L 220.84375 25.648438 C 220.71875 25.429688 220.625 25.367188 220.441406 25.367188 C 220.25 25.367188 220.15625 25.429688 220.03125 25.648438 Z M 229.011719 40.210938 L 211.867188 40.210938 L 209.425781 44.539062 L 202.324219 44.539062 L 214.210938 23.894531 C 215.152344 22.261719 216.496094 21.007812 219.1875 21.007812 L 221.847656 21.007812 C 224.539062 21.007812 225.882812 22.261719 226.820312 23.894531 L 238.707031 44.539062 L 231.453125 44.539062 Z M 240.898438 42.84375 L 240.304688 42.65625 L 241.898438 37.542969 C 246.464844 39.015625 251.34375 39.613281 255.753906 39.613281 C 262.984375 39.613281 264.769531 38.765625 264.769531 37.855469 C 264.769531 37.480469 264.515625 37.195312 263.953125 37.007812 C 263.234375 36.757812 261.230469 36.347656 255.316406 35.378906 C 248.777344 34.308594 245.839844 33.773438 243.683594 32.769531 C 241.523438 31.769531 240.207031 30.167969 240.207031 27.816406 C 240.207031 26.027344 241.085938 24.582031 242.492188 23.453125 C 244.996094 21.507812 249.28125 20.726562 253.941406 20.726562 C 259.949219 20.726562 264.988281 21.226562 270.585938 22.605469 L 271.085938 22.761719 L 269.742188 27.753906 C 263.484375 26.402344 260.011719 26.027344 255.257812 25.964844 C 251.910156 25.933594 249.59375 26.183594 248.375 26.558594 C 247.683594 26.78125 247.402344 27.09375 247.402344 27.46875 C 247.402344 27.816406 247.621094 28.128906 248.3125 28.347656 C 249.0625 28.601562 250.28125 28.882812 256.695312 29.917969 C 263.640625 31.046875 265.925781 31.515625 267.832031 32.273438 C 270.429688 33.273438 271.992188 35.125 271.992188 37.445312 C 271.992188 40.367188 269.742188 42.53125 265.828125 43.722656 C 263.421875 44.445312 260.199219 44.851562 256.570312 44.851562 C 250.878906 44.851562 244.804688 44.097656 240.898438 42.84375 "/>
</g>
</svg>
