<?xml version="1.0" encoding="UTF-8"?>
<svg xmlns="http://www.w3.org/2000/svg" xmlns:xlink="http://www.w3.org/1999/xlink" width="279px" height="26px" viewBox="0 0 279 26" version="1.1">
<g id="surface1">
<path style=" stroke:none;fill-rule:nonzero;fill:rgb(11.372549%,28.235294%,52.54902%);fill-opacity:1;" d="M 105.054688 17.121094 C 104.625 17.042969 103.699219 16.699219 102.992188 16.359375 C 98.605469 14.242188 96.957031 9.078125 99.230469 4.574219 C 99.835938 3.375 101.46875 1.746094 102.722656 1.085938 C 105.976562 -0.621094 109.925781 -0.105469 112.605469 2.375 C 114.449219 4.082031 115.324219 6.058594 115.339844 8.550781 C 115.347656 9.546875 115.257812 10.34375 115.070312 10.972656 C 113.765625 15.363281 109.527344 17.964844 105.054688 17.121094 Z M 109.140625 13.398438 C 112.480469 11.75 113.109375 7.410156 110.382812 4.828125 C 108.324219 2.878906 105.140625 2.890625 103.175781 4.859375 C 101.96875 6.078125 101.617188 6.917969 101.617188 8.628906 C 101.617188 9.824219 101.679688 10.167969 102.03125 10.917969 C 103.3125 13.652344 106.421875 14.738281 109.140625 13.398438 Z M 0.148438 15.117188 L 0.148438 13.550781 L 10.328125 13.550781 L 10.785156 13.097656 C 11.15625 12.722656 11.242188 12.507812 11.242188 11.910156 C 11.242188 11.316406 11.15625 11.101562 10.785156 10.726562 L 10.328125 10.269531 L 7.433594 10.269531 C 5.839844 10.269531 4.164062 10.191406 3.710938 10.09375 C 2.054688 9.742188 1 8.921875 0.339844 7.480469 C 0 6.746094 -0.0351562 6.480469 0.0234375 5.292969 C 0.0664062 4.414062 0.191406 3.746094 0.371094 3.390625 C 0.835938 2.484375 1.867188 1.539062 2.800781 1.164062 C 3.621094 0.835938 3.917969 0.816406 9.09375 0.765625 L 14.519531 0.710938 L 14.519531 3.859375 L 9.402344 3.859375 C 3.722656 3.859375 3.765625 3.851562 3.429688 4.878906 C 3.195312 5.582031 3.355469 6.28125 3.828125 6.652344 C 4.160156 6.914062 4.574219 6.957031 7.449219 7.023438 C 10.335938 7.089844 10.796875 7.136719 11.632812 7.453125 C 12.902344 7.933594 14.09375 9.140625 14.433594 10.285156 C 15.324219 13.285156 13.703125 15.9375 10.628906 16.519531 C 10.167969 16.609375 7.621094 16.679688 4.96875 16.679688 L 0.148438 16.679688 Z M 18.113281 8.707031 L 18.113281 0.734375 L 21.707031 0.734375 L 21.707031 16.679688 L 18.113281 16.679688 Z M 25.925781 8.710938 L 25.925781 0.734375 L 29.507812 0.734375 L 29.550781 1.894531 L 29.597656 3.054688 L 31.316406 0.726562 L 34.285156 0.769531 C 37.113281 0.8125 37.292969 0.832031 38.113281 1.222656 C 39.140625 1.710938 39.992188 2.539062 40.484375 3.523438 C 40.839844 4.242188 40.847656 4.332031 40.890625 10.464844 L 40.9375 16.679688 L 37.332031 16.679688 L 37.332031 11.203125 C 37.332031 5.191406 37.3125 5.046875 36.402344 4.28125 L 35.902344 3.859375 L 29.523438 3.859375 L 29.480469 10.230469 L 29.441406 16.601562 L 27.683594 16.644531 L 25.925781 16.691406 Z M 50.179688 16.441406 C 45.785156 15.488281 42.9375 11.195312 43.90625 6.988281 C 44.394531 4.863281 46.085938 2.773438 48.125 1.765625 C 49.890625 0.898438 51.097656 0.734375 55.699219 0.734375 L 59.671875 0.734375 L 59.671875 3.84375 L 50.375 3.9375 L 49.59375 4.351562 C 48.679688 4.839844 48.28125 5.242188 47.777344 6.207031 C 47.453125 6.820312 47.40625 7.125 47.40625 8.628906 C 47.40625 10.242188 47.4375 10.398438 47.871094 11.183594 C 48.878906 13.007812 49.84375 13.410156 53.460938 13.515625 L 56.078125 13.589844 L 56.078125 6.207031 L 59.671875 6.207031 L 59.671875 16.679688 L 55.414062 16.667969 C 52.453125 16.660156 50.859375 16.589844 50.179688 16.441406 Z M 61.414062 16.546875 C 61.445312 16.46875 63.191406 12.875 65.296875 8.566406 L 69.121094 0.726562 L 70.957031 0.769531 L 72.789062 0.8125 L 76.617188 8.613281 C 78.726562 12.902344 80.449219 16.472656 80.449219 16.546875 C 80.449219 16.621094 79.589844 16.679688 78.535156 16.679688 L 76.621094 16.679688 L 75.617188 14.410156 L 74.609375 12.140625 L 70.949219 12.183594 L 67.289062 12.222656 L 66.308594 14.414062 L 65.328125 16.601562 L 63.34375 16.644531 C 62.195312 16.671875 61.382812 16.628906 61.414062 16.546875 Z M 73.421875 9.527344 C 73.425781 9.234375 70.984375 3.578125 70.898438 3.671875 C 70.789062 3.789062 68.417969 9.421875 68.417969 9.5625 C 68.417969 9.609375 69.542969 9.644531 70.917969 9.644531 C 72.292969 9.644531 73.417969 9.59375 73.421875 9.527344 Z M 82.167969 8.699219 L 82.167969 0.71875 L 92.410156 0.8125 L 93.445312 1.324219 C 94.015625 1.605469 94.710938 2.09375 94.988281 2.410156 C 97.097656 4.8125 96.734375 8.835938 94.246094 10.644531 C 93.144531 11.441406 92.117188 11.675781 89.699219 11.675781 L 87.644531 11.675781 L 85.839844 9.277344 L 85.796875 12.980469 L 85.753906 16.679688 L 82.167969 16.679688 Z M 92.070312 8.222656 C 92.667969 7.753906 92.976562 7.054688 92.972656 6.195312 C 92.964844 5.328125 92.660156 4.652344 92.070312 4.1875 C 91.683594 3.882812 91.460938 3.859375 88.707031 3.859375 L 85.761719 3.859375 L 85.761719 8.550781 L 88.707031 8.550781 C 91.460938 8.550781 91.683594 8.527344 92.070312 8.222656 Z M 117.945312 8.707031 L 117.945312 0.734375 L 122.769531 0.734375 C 127.152344 0.734375 127.691406 0.761719 128.605469 1.046875 C 129.945312 1.460938 130.894531 2.300781 131.570312 3.667969 C 132.023438 4.59375 132.082031 4.859375 132.074219 5.96875 C 132.070312 6.898438 131.984375 7.410156 131.738281 7.953125 C 131.324219 8.867188 130.253906 10.042969 129.472656 10.441406 C 129.148438 10.609375 128.878906 10.78125 128.878906 10.828125 C 128.878906 10.871094 129.933594 12.152344 131.222656 13.675781 C 132.507812 15.199219 133.5625 16.496094 133.566406 16.5625 C 133.566406 16.625 132.628906 16.679688 131.480469 16.679688 L 129.390625 16.679688 L 125.929688 12.496094 L 122.472656 8.316406 L 124.933594 8.238281 C 127.617188 8.152344 127.921875 8.066406 128.417969 7.25 C 129 6.292969 128.738281 4.890625 127.847656 4.1875 C 127.457031 3.882812 127.238281 3.859375 124.40625 3.859375 L 121.382812 3.859375 L 121.382812 16.679688 L 117.945312 16.679688 Z M 135.910156 8.707031 L 135.910156 0.734375 L 148.730469 0.734375 L 148.644531 3.78125 L 144.074219 3.824219 L 139.503906 3.863281 L 139.503906 6.675781 L 147.472656 6.675781 L 147.472656 9.800781 L 139.503906 9.800781 L 139.503906 13.546875 L 144.074219 13.589844 L 148.644531 13.628906 L 148.6875 15.15625 L 148.730469 16.679688 L 135.910156 16.679688 Z M 155.441406 16.5625 C 155.441406 16.496094 157.160156 12.925781 159.257812 8.628906 L 163.074219 0.8125 L 164.933594 0.769531 L 166.789062 0.722656 L 170.605469 8.558594 C 172.703125 12.867188 174.445312 16.457031 174.472656 16.539062 C 174.507812 16.632812 173.75 16.671875 172.542969 16.644531 L 170.558594 16.601562 L 169.578125 14.414062 L 168.601562 12.222656 L 164.945312 12.183594 L 161.292969 12.140625 L 160.289062 14.410156 L 159.28125 16.679688 L 157.359375 16.679688 C 156.304688 16.679688 155.441406 16.625 155.441406 16.5625 Z M 167.46875 9.566406 C 167.46875 9.417969 165.101562 3.785156 164.988281 3.667969 C 164.898438 3.570312 162.46875 9.210938 162.46875 9.527344 C 162.46875 9.589844 163.59375 9.644531 164.96875 9.644531 C 166.34375 9.644531 167.46875 9.609375 167.46875 9.566406 Z M 176.53125 8.707031 L 176.53125 0.734375 L 180.121094 0.734375 L 180.121094 16.679688 L 176.53125 16.679688 Z M 184.808594 8.699219 L 184.808594 0.71875 L 195.199219 0.8125 L 196.058594 1.21875 C 197.09375 1.710938 197.972656 2.570312 198.53125 3.625 C 198.898438 4.3125 198.945312 4.585938 198.945312 5.890625 C 198.941406 7.132812 198.882812 7.5 198.578125 8.117188 C 198.128906 9.03125 197.171875 10.007812 196.363281 10.378906 C 196.027344 10.535156 195.75 10.710938 195.75 10.777344 C 195.746094 10.839844 196.796875 12.140625 198.085938 13.667969 C 199.375 15.195312 200.429688 16.496094 200.429688 16.5625 C 200.429688 16.625 199.496094 16.679688 198.351562 16.679688 L 196.269531 16.679688 L 192.816406 12.496094 L 189.363281 8.316406 L 191.8125 8.238281 C 193.414062 8.1875 194.386719 8.089844 194.621094 7.953125 C 195.222656 7.609375 195.585938 6.839844 195.589844 5.914062 C 195.589844 5.148438 195.535156 5.023438 194.984375 4.46875 L 194.375 3.859375 L 188.246094 3.859375 L 188.246094 16.679688 L 184.808594 16.679688 Z M 202.777344 8.707031 L 202.777344 0.734375 L 206.367188 0.734375 L 206.367188 13.550781 L 214.335938 13.550781 L 214.335938 16.679688 L 202.777344 16.679688 Z M 216.679688 8.707031 L 216.679688 0.734375 L 220.273438 0.734375 L 220.273438 16.679688 L 216.679688 16.679688 Z M 224.4375 16.574219 C 224.382812 16.519531 224.335938 12.929688 224.335938 8.601562 L 224.335938 0.734375 L 227.914062 0.734375 L 228.007812 3.140625 L 228.933594 1.925781 L 229.863281 0.710938 L 232.839844 0.761719 C 235.570312 0.808594 235.886719 0.84375 236.632812 1.183594 C 237.589844 1.613281 238.597656 2.644531 239.074219 3.675781 C 239.398438 4.378906 239.414062 4.636719 239.457031 10.542969 L 239.503906 16.679688 L 235.894531 16.679688 L 235.894531 11.402344 C 235.894531 8.054688 235.832031 5.902344 235.722656 5.507812 C 235.628906 5.167969 235.320312 4.660156 235.035156 4.375 L 234.519531 3.859375 L 227.929688 3.859375 L 227.929688 16.679688 L 226.234375 16.679688 C 225.304688 16.679688 224.496094 16.632812 224.4375 16.574219 Z M 243.394531 8.707031 L 243.394531 0.734375 L 256.214844 0.734375 L 256.128906 3.78125 L 251.558594 3.824219 L 246.988281 3.863281 L 246.988281 6.675781 L 254.96875 6.675781 L 254.921875 8.199219 L 254.878906 9.722656 L 250.933594 9.765625 L 246.988281 9.804688 L 246.988281 13.550781 L 256.207031 13.550781 L 256.207031 16.679688 L 243.394531 16.679688 Z M 259.433594 15.710938 C 259.378906 15.253906 259.332031 14.582031 259.332031 14.21875 L 259.332031 13.550781 L 264.226562 13.550781 C 267.410156 13.550781 269.300781 13.492188 269.621094 13.378906 C 270.746094 12.988281 270.925781 11.085938 269.902344 10.421875 C 269.648438 10.257812 268.707031 10.179688 266.125 10.117188 C 262.847656 10.035156 262.648438 10.011719 261.828125 9.628906 C 260.226562 8.875 259.355469 7.605469 259.210938 5.8125 C 259.050781 3.785156 260.082031 1.992188 261.875 1.179688 C 262.671875 0.820312 262.792969 0.8125 268.195312 0.765625 L 273.703125 0.71875 L 273.703125 3.859375 L 263.378906 3.859375 L 262.996094 4.242188 C 262.460938 4.777344 262.457031 5.851562 262.988281 6.46875 L 263.363281 6.910156 L 266.855469 6.988281 C 270.207031 7.0625 270.378906 7.082031 271.214844 7.472656 C 273.394531 8.496094 274.464844 10.828125 273.804688 13.105469 C 273.429688 14.398438 272.652344 15.3125 271.402344 15.925781 L 270.351562 16.445312 L 259.53125 16.539062 Z M 259.433594 15.710938 "/>
<path style=" stroke:none;fill-rule:nonzero;fill:rgb(98.823529%,69.411765%,18.823529%);fill-opacity:1;" d="M 0.550781 25.699219 C 0.507812 25.582031 0.492188 25.175781 0.519531 24.800781 L 0.566406 24.117188 L 136.835938 24.078125 C 211.785156 24.058594 273.105469 24.074219 273.105469 24.117188 C 273.105469 24.160156 272.808594 24.582031 272.441406 25.054688 L 271.777344 25.914062 L 136.207031 25.914062 C 20.816406 25.917969 0.621094 25.882812 0.550781 25.699219 Z M 0.550781 25.699219 "/>
</g>
</svg>
