<?xml version="1.0" encoding="UTF-8"?>
<svg xmlns="http://www.w3.org/2000/svg" xmlns:xlink="http://www.w3.org/1999/xlink" width="279px" height="47px" viewBox="0 0 279 47" version="1.1">
<g id="surface1">
<path style=" stroke:none;fill-rule:nonzero;fill:rgb(8.627451%,22.745098%,56.470588%);fill-opacity:1;" d="M 1 0.0117188 C 0.449219 0.0117188 0 0.460938 0 1.011719 L 0 45.988281 C 0 46.539062 0.449219 46.988281 1 46.988281 L 45.914062 46.988281 C 46.464844 46.988281 46.867188 46.539062 46.867188 45.988281 L 46.867188 1.011719 C 46.867188 0.460938 46.464844 0.0117188 45.914062 0.0117188 L 1 0.0117188 "/>
<path style=" stroke:none;fill-rule:nonzero;fill:rgb(98.823529%,100%,100%);fill-opacity:1;" d="M 29.558594 21.796875 C 27.960938 21.796875 25.957031 21.796875 25.65625 21.796875 L 25.207031 21.996094 L 14.355469 35.519531 L 14.402344 35.769531 C 14.652344 35.769531 15.355469 35.769531 15.703125 35.769531 L 16.003906 35.671875 L 18.90625 31.914062 L 19.054688 31.863281 L 22.65625 31.863281 L 22.757812 31.914062 L 22.007812 35.621094 L 22.207031 35.769531 C 22.707031 35.769531 26.359375 35.769531 26.859375 35.769531 L 27.058594 35.671875 C 27.058594 35.671875 27.609375 32.867188 29.710938 21.996094 Z M 19.957031 30.613281 L 23.859375 25.503906 L 23.957031 25.453125 L 23.957031 25.503906 L 23.007812 30.613281 L 22.90625 30.664062 L 20.007812 30.664062 L 19.957031 30.613281 "/>
<path style=" stroke:none;fill-rule:nonzero;fill:rgb(98.823529%,100%,100%);fill-opacity:1;" d="M 4.199219 33.917969 C 4.148438 34.117188 4.25 34.367188 4.550781 34.621094 C 5.101562 35.070312 6.75 36.023438 9.351562 36.023438 C 14.054688 36.023438 15.804688 32.964844 15.203125 30.414062 C 15.054688 29.710938 14.105469 25.953125 14.003906 25.453125 C 13.605469 23.953125 14.355469 22.898438 15.703125 22.898438 C 16.90625 22.898438 17.707031 23.351562 18.40625 23.800781 L 18.65625 23.652344 L 18.804688 22.75 C 18.804688 22.75 18.90625 22.5 18.605469 22.347656 C 18.207031 22.097656 17.105469 21.496094 14.804688 21.496094 C 10.601562 21.496094 8.753906 24.25 9.503906 27.15625 C 9.753906 28.109375 10.703125 31.765625 10.703125 32.414062 C 10.703125 32.714844 10.851562 34.570312 8.652344 34.621094 C 6.703125 34.621094 5.25 33.21875 4.800781 32.765625 L 4.5 32.867188 L 4.199219 33.917969 "/>
<path style=" stroke:none;fill-rule:nonzero;fill:rgb(98.823529%,100%,100%);fill-opacity:1;" d="M 28.257812 34.019531 C 28.210938 34.167969 28.308594 34.417969 28.609375 34.667969 C 29.160156 35.121094 30.660156 36.023438 33.3125 36.023438 C 38.011719 36.023438 39.761719 32.964844 39.164062 30.414062 C 39.011719 29.710938 38.0625 25.953125 37.914062 25.453125 C 37.5625 23.953125 38.261719 22.898438 39.664062 22.898438 C 40.863281 22.898438 41.664062 23.351562 42.363281 23.800781 L 42.613281 23.652344 L 42.765625 22.75 C 42.765625 22.75 42.863281 22.5 42.5625 22.347656 C 42.113281 22.097656 41.0625 21.496094 38.761719 21.496094 C 34.511719 21.496094 32.710938 24.25 33.460938 27.15625 C 33.710938 28.109375 34.660156 31.765625 34.660156 32.414062 C 34.660156 32.714844 34.8125 34.570312 32.609375 34.621094 C 30.660156 34.621094 29.210938 33.21875 28.757812 32.765625 L 28.460938 32.867188 L 28.257812 34.019531 "/>
<path style=" stroke:none;fill-rule:nonzero;fill:rgb(0%,1.568627%,2.745098%);fill-opacity:1;" d="M 227.882812 24.953125 L 227.882812 21.796875 L 225.582031 21.796875 L 225.582031 35.769531 L 227.882812 35.769531 L 227.882812 29.160156 C 227.882812 27.257812 228.382812 24.101562 231.734375 24.101562 L 232.382812 24.101562 L 232.382812 21.445312 L 232.332031 21.445312 C 230.230469 21.445312 228.683594 23.199219 227.882812 24.953125 "/>
<path style=" stroke:none;fill-rule:nonzero;fill:rgb(0%,1.568627%,2.745098%);fill-opacity:1;" d="M 251.691406 21.445312 C 248.890625 21.445312 247.488281 23.5 246.6875 25.101562 L 246.6875 21.796875 L 244.488281 21.796875 L 244.488281 35.769531 L 246.738281 35.769531 L 246.738281 29.761719 C 246.738281 27.105469 248.039062 23.351562 250.941406 23.351562 C 252.789062 23.351562 252.789062 25.203125 252.789062 26.757812 L 252.789062 35.769531 L 255.089844 35.769531 L 255.089844 25.152344 C 255.089844 24.25 254.839844 23.351562 254.292969 22.699219 C 253.691406 21.898438 252.789062 21.445312 251.691406 21.445312 "/>
<path style=" stroke:none;fill-rule:nonzero;fill:rgb(0%,1.568627%,2.745098%);fill-opacity:1;" d="M 263.09375 21.398438 C 261.09375 21.398438 259.644531 22.097656 258.691406 23.398438 C 257.792969 24.550781 257.390625 26.253906 257.390625 28.359375 C 257.390625 33.316406 259.894531 36.121094 264.292969 36.121094 C 265.84375 36.121094 266.546875 35.921875 267.597656 35.671875 L 267.746094 35.570312 L 267.847656 35.570312 L 267.847656 34.167969 L 267.746094 34.21875 L 267.347656 34.320312 C 266.746094 34.46875 266.195312 34.621094 265.195312 34.621094 C 260.59375 34.621094 259.941406 30.863281 259.941406 27.15625 L 268.097656 27.15625 L 268.097656 27.105469 C 268.097656 26.503906 268.097656 25.101562 267.445312 23.851562 C 266.695312 22.25 265.195312 21.398438 263.09375 21.398438 Z M 259.992188 25.753906 C 260.042969 24.851562 260.59375 22.699219 262.894531 22.699219 C 265.195312 22.699219 265.695312 24.351562 265.695312 25.753906 L 259.992188 25.753906 "/>
<path style=" stroke:none;fill-rule:nonzero;fill:rgb(0%,1.568627%,2.745098%);fill-opacity:1;" d="M 276.597656 28.160156 C 275.949219 27.808594 275.347656 27.457031 274.796875 27.207031 C 273.296875 26.40625 272.199219 25.804688 272.199219 24.601562 C 272.199219 23.449219 273.449219 23 274.546875 23 C 276.050781 23 277.449219 23.800781 277.949219 24.101562 L 278 24.101562 L 278.101562 24.152344 L 278.101562 22.148438 L 278.050781 22.148438 L 277.449219 21.949219 C 276.847656 21.746094 275.847656 21.398438 274.796875 21.398438 C 271.699219 21.398438 269.996094 22.800781 269.996094 25.304688 C 269.996094 27.355469 271.546875 28.207031 273.046875 29.058594 L 273.796875 29.460938 L 274.398438 29.859375 C 275.75 30.613281 276.75 31.164062 276.75 32.367188 C 276.75 33.71875 275.648438 34.570312 273.898438 34.570312 C 273.097656 34.570312 271.796875 34.320312 270.046875 33.265625 L 269.996094 33.21875 L 269.898438 33.167969 L 269.898438 35.21875 L 269.945312 35.269531 L 270.246094 35.371094 C 270.898438 35.671875 272.097656 36.121094 273.75 36.121094 C 277.648438 36.121094 279 33.96875 279 31.914062 C 279 29.859375 277.851562 28.910156 276.597656 28.160156 "/>
<path style=" stroke:none;fill-rule:nonzero;fill:rgb(0%,1.568627%,2.745098%);fill-opacity:1;" d="M 220.480469 21.796875 L 220.429688 21.796875 L 220.429688 35.769531 L 222.679688 35.769531 L 222.679688 21.796875 L 220.480469 21.796875 "/>
<path style=" stroke:none;fill-rule:nonzero;fill:rgb(0%,1.568627%,2.745098%);fill-opacity:1;" d="M 222.628906 18.742188 L 222.679688 18.742188 L 222.679688 16.089844 L 220.378906 16.089844 L 220.378906 18.742188 L 222.628906 18.742188 "/>
<path style=" stroke:none;fill-rule:nonzero;fill:rgb(0%,1.568627%,2.745098%);fill-opacity:1;" d="M 234.183594 16.039062 L 234.132812 16.039062 L 234.132812 35.769531 L 236.433594 35.769531 L 236.433594 16.039062 L 234.183594 16.039062 "/>
<path style=" stroke:none;fill-rule:nonzero;fill:rgb(0%,1.568627%,2.745098%);fill-opacity:1;" d="M 239.335938 21.796875 L 239.285156 21.796875 L 239.285156 35.769531 L 241.585938 35.769531 L 241.585938 21.796875 L 239.335938 21.796875 "/>
<path style=" stroke:none;fill-rule:nonzero;fill:rgb(0%,1.568627%,2.745098%);fill-opacity:1;" d="M 241.488281 18.742188 L 241.585938 18.742188 L 241.585938 16.089844 L 239.285156 16.089844 L 239.285156 18.742188 L 241.488281 18.742188 "/>
<path style=" stroke:none;fill-rule:nonzero;fill:rgb(0%,1.568627%,2.745098%);fill-opacity:1;" d="M 211.925781 16.089844 L 209.175781 16.089844 L 209.175781 16.136719 L 202.574219 35.769531 L 204.875 35.769531 L 206.722656 29.960938 L 214.078125 29.960938 L 215.925781 35.769531 L 218.578125 35.769531 L 211.925781 16.136719 Z M 207.273438 28.207031 L 210.375 18.542969 L 213.476562 28.207031 L 207.273438 28.207031 "/>
<path style=" stroke:none;fill-rule:nonzero;fill:rgb(0%,1.568627%,2.745098%);fill-opacity:1;" d="M 124.945312 18.742188 L 124.996094 18.742188 L 124.996094 16.089844 L 122.695312 16.089844 L 122.695312 18.742188 L 124.945312 18.742188 "/>
<path style=" stroke:none;fill-rule:nonzero;fill:rgb(0%,1.568627%,2.745098%);fill-opacity:1;" d="M 167.558594 18.742188 L 167.609375 18.742188 L 167.609375 16.089844 L 165.308594 16.089844 L 165.308594 18.742188 L 167.558594 18.742188 "/>
<path style=" stroke:none;fill-rule:nonzero;fill:rgb(0%,1.568627%,2.745098%);fill-opacity:1;" d="M 62.671875 36.121094 C 66.921875 36.121094 69.523438 34.066406 69.523438 30.613281 C 69.523438 28.109375 68.574219 27.207031 66.371094 25.703125 C 65.671875 25.253906 64.871094 24.851562 64.171875 24.503906 C 62.171875 23.5 60.269531 22.550781 60.269531 20.546875 C 60.269531 18.894531 61.621094 17.789062 63.570312 17.789062 C 65.773438 17.789062 67.773438 18.691406 68.171875 18.84375 L 68.273438 18.894531 L 68.273438 16.789062 L 68.222656 16.789062 C 67.324219 16.539062 65.472656 16.089844 64.023438 16.089844 C 62.222656 16.089844 60.621094 16.539062 59.570312 17.390625 C 58.46875 18.242188 57.917969 19.492188 57.917969 21.046875 C 57.917969 23.75 59.621094 25.054688 61.121094 25.855469 C 61.621094 26.15625 62.121094 26.40625 62.570312 26.605469 C 64.871094 27.808594 66.875 28.808594 66.875 31.011719 C 66.875 33.117188 65.472656 34.320312 63.023438 34.320312 C 61.269531 34.320312 59.421875 33.617188 58.171875 33.015625 L 58.121094 33.015625 L 58.121094 35.320312 L 58.171875 35.320312 L 58.21875 35.371094 C 58.921875 35.570312 60.421875 36.121094 62.671875 36.121094 "/>
<path style=" stroke:none;fill-rule:nonzero;fill:rgb(0%,1.568627%,2.745098%);fill-opacity:1;" d="M 88.53125 21.445312 C 85.328125 21.445312 83.628906 22.800781 83.378906 25.453125 L 83.378906 25.554688 L 86.03125 25.554688 L 86.03125 25.453125 C 86.128906 24.402344 86.28125 22.75 88.429688 22.75 C 90.53125 22.75 90.832031 24.550781 90.832031 26.304688 L 90.832031 27.808594 C 88.632812 27.957031 83.027344 28.308594 83.027344 32.566406 C 83.027344 33.515625 83.378906 34.367188 84.078125 35.070312 C 84.78125 35.769531 85.78125 36.121094 86.832031 36.121094 C 89.179688 36.121094 90.433594 34.519531 90.832031 33.917969 L 90.832031 35.820312 L 93.082031 35.820312 L 93.082031 26.15625 C 93.082031 24.152344 92.632812 21.445312 88.53125 21.445312 Z M 90.832031 30.8125 C 90.832031 32.867188 89.382812 34.519531 87.582031 34.519531 C 86.28125 34.519531 85.429688 33.617188 85.429688 32.265625 C 85.429688 30.460938 87.230469 29.410156 90.730469 29.210938 L 90.832031 29.210938 L 90.832031 30.8125 "/>
<path style=" stroke:none;fill-rule:nonzero;fill:rgb(0%,1.568627%,2.745098%);fill-opacity:1;" d="M 104.035156 26.757812 L 104.035156 35.820312 L 106.335938 35.820312 L 106.335938 25.152344 C 106.335938 24.300781 106.039062 23.398438 105.539062 22.75 C 104.9375 21.898438 104.035156 21.445312 102.9375 21.445312 C 100.136719 21.445312 98.785156 23.550781 97.933594 25.101562 L 97.933594 21.796875 L 95.734375 21.796875 L 95.734375 35.820312 L 98.035156 35.820312 L 98.035156 29.761719 C 98.035156 27.105469 99.285156 23.398438 102.1875 23.398438 C 104.035156 23.398438 104.035156 25.253906 104.035156 26.757812 "/>
<path style=" stroke:none;fill-rule:nonzero;fill:rgb(0%,1.568627%,2.745098%);fill-opacity:1;" d="M 113.441406 36.121094 C 115.789062 36.121094 117.089844 34.417969 117.492188 33.265625 L 117.492188 35.820312 L 119.84375 35.820312 L 119.84375 16.089844 L 117.492188 16.089844 L 117.492188 24.152344 C 117.191406 23.300781 116.292969 21.445312 113.691406 21.445312 C 111.988281 21.445312 110.6875 22.199219 109.789062 23.652344 C 108.988281 24.902344 108.539062 26.757812 108.539062 28.808594 C 108.539062 30.964844 108.886719 32.664062 109.539062 33.867188 C 110.339844 35.371094 111.640625 36.121094 113.441406 36.121094 Z M 114.089844 23 C 116.640625 23 117.492188 26.804688 117.492188 28.558594 C 117.492188 32.066406 116.039062 34.519531 113.941406 34.519531 C 111.640625 34.519531 111.140625 31.515625 111.140625 28.960938 C 111.140625 27.207031 111.4375 23 114.089844 23 "/>
<path style=" stroke:none;fill-rule:nonzero;fill:rgb(0%,1.568627%,2.745098%);fill-opacity:1;" d="M 135.097656 21.445312 C 132.296875 21.445312 130.894531 23.550781 130.144531 25.101562 L 130.144531 21.796875 L 127.894531 21.796875 L 127.894531 35.820312 L 130.195312 35.820312 L 130.195312 29.761719 C 130.195312 27.105469 131.496094 23.398438 134.347656 23.398438 C 136.199219 23.398438 136.199219 25.253906 136.199219 26.757812 L 136.199219 35.820312 L 138.5 35.820312 L 138.5 25.152344 C 138.5 24.300781 138.199219 23.398438 137.699219 22.75 C 137.097656 21.898438 136.199219 21.445312 135.097656 21.445312 "/>
<path style=" stroke:none;fill-rule:nonzero;fill:rgb(0%,1.568627%,2.745098%);fill-opacity:1;" d="M 161.757812 21.796875 L 161.707031 21.847656 L 158.007812 32.617188 L 153.855469 21.847656 L 153.855469 21.796875 L 151.355469 21.796875 L 151.355469 21.898438 L 156.855469 35.769531 L 156.855469 35.820312 L 158.957031 35.820312 L 158.957031 35.769531 L 163.910156 21.898438 L 163.957031 21.796875 L 161.757812 21.796875 "/>
<path style=" stroke:none;fill-rule:nonzero;fill:rgb(0%,1.568627%,2.745098%);fill-opacity:1;" d="M 192.320312 22.75 C 191.667969 21.898438 190.769531 21.445312 189.667969 21.445312 C 186.867188 21.445312 185.515625 23.550781 184.714844 25.101562 L 184.714844 21.796875 L 182.464844 21.796875 L 182.464844 35.820312 L 184.765625 35.820312 L 184.765625 29.761719 C 184.765625 27.105469 186.066406 23.398438 188.917969 23.398438 C 190.769531 23.398438 190.769531 25.253906 190.769531 26.757812 L 190.769531 35.820312 L 193.070312 35.820312 L 193.070312 25.152344 C 193.070312 24.300781 192.769531 23.398438 192.320312 22.75 "/>
<path style=" stroke:none;fill-rule:nonzero;fill:rgb(0%,1.568627%,2.745098%);fill-opacity:1;" d="M 80.929688 34.320312 C 80.328125 34.46875 79.878906 34.570312 78.925781 34.570312 C 74.375 34.570312 73.726562 30.363281 73.726562 27.808594 C 73.726562 26.304688 74.027344 22.75 76.726562 22.75 C 78.226562 22.75 78.976562 23.652344 79.027344 25.453125 L 79.078125 25.554688 L 81.679688 25.554688 L 81.679688 25.453125 C 81.527344 24.300781 81.128906 23.300781 80.378906 22.648438 C 79.527344 21.898438 78.378906 21.445312 76.875 21.445312 C 73.226562 21.445312 71.175781 23.953125 71.175781 28.359375 C 71.175781 30.710938 71.675781 32.617188 72.675781 33.867188 C 73.875 35.371094 75.675781 36.121094 78.128906 36.121094 C 79.425781 36.121094 80.328125 35.921875 81.277344 35.621094 L 81.328125 35.621094 L 81.328125 34.21875 L 81.277344 34.21875 L 80.929688 34.320312 "/>
<path style=" stroke:none;fill-rule:nonzero;fill:rgb(0%,1.568627%,2.745098%);fill-opacity:1;" d="M 145.953125 21.445312 C 142.800781 21.445312 141.101562 22.800781 140.851562 25.453125 L 140.851562 25.554688 L 143.5 25.554688 L 143.5 25.453125 C 143.601562 24.351562 143.75 22.75 145.902344 22.75 C 148.003906 22.75 148.300781 24.550781 148.300781 26.304688 L 148.300781 27.808594 C 146.101562 27.957031 140.5 28.308594 140.5 32.566406 C 140.5 33.515625 140.851562 34.367188 141.550781 35.070312 C 142.25 35.769531 143.25 36.121094 144.300781 36.121094 C 146.652344 36.121094 147.902344 34.519531 148.300781 33.917969 L 148.300781 35.769531 L 150.554688 35.769531 L 150.554688 26.15625 C 150.554688 24.152344 150.101562 21.445312 145.953125 21.445312 Z M 148.300781 30.8125 C 148.300781 32.867188 146.851562 34.519531 145.050781 34.519531 C 143.800781 34.519531 142.949219 33.617188 142.949219 32.265625 C 142.949219 30.460938 144.703125 29.410156 148.203125 29.210938 L 148.300781 29.210938 L 148.300781 30.8125 "/>
<path style=" stroke:none;fill-rule:nonzero;fill:rgb(0%,1.568627%,2.745098%);fill-opacity:1;" d="M 175.261719 21.445312 C 172.109375 21.445312 170.359375 22.800781 170.160156 25.453125 L 170.160156 25.554688 L 172.8125 25.554688 L 172.8125 25.453125 C 172.863281 24.351562 173.011719 22.75 175.164062 22.75 C 177.3125 22.75 177.5625 24.550781 177.5625 26.304688 L 177.5625 27.808594 C 175.363281 27.957031 169.761719 28.308594 169.761719 32.566406 C 169.761719 33.515625 170.160156 34.367188 170.859375 35.070312 C 171.5625 35.769531 172.511719 36.121094 173.613281 36.121094 C 175.914062 36.121094 177.164062 34.519531 177.5625 33.917969 L 177.5625 35.769531 L 179.863281 35.769531 L 179.863281 26.15625 C 179.863281 24.152344 179.414062 21.445312 175.261719 21.445312 Z M 177.5625 30.8125 C 177.5625 32.867188 176.113281 34.519531 174.363281 34.519531 C 173.0625 34.519531 172.210938 33.617188 172.210938 32.265625 C 172.210938 30.460938 174.011719 29.410156 177.464844 29.210938 L 177.5625 29.210938 L 177.5625 30.8125 "/>
<path style=" stroke:none;fill-rule:nonzero;fill:rgb(0%,1.568627%,2.745098%);fill-opacity:1;" d="M 122.792969 21.796875 L 122.742188 21.796875 L 122.742188 35.820312 L 124.996094 35.820312 L 124.996094 21.796875 L 122.792969 21.796875 "/>
<path style=" stroke:none;fill-rule:nonzero;fill:rgb(0%,1.568627%,2.745098%);fill-opacity:1;" d="M 165.410156 21.796875 L 165.308594 21.796875 L 165.308594 35.820312 L 167.609375 35.820312 L 167.609375 21.796875 L 165.410156 21.796875 "/>
</g>
</svg>
