<?xml version="1.0" encoding="UTF-8"?>
<svg xmlns="http://www.w3.org/2000/svg" xmlns:xlink="http://www.w3.org/1999/xlink" width="279px" height="62px" viewBox="0 0 279 62" version="1.1">
<g id="surface1">
<path style=" stroke:none;fill-rule:nonzero;fill:rgb(1.960784%,7.843137%,27.45098%);fill-opacity:1;" d="M 106.988281 59.722656 L 105.136719 59.722656 L 104.085938 56.894531 L 99.261719 56.894531 L 98.210938 59.722656 L 96.425781 59.722656 L 100.621094 48.628906 L 102.773438 48.628906 Z M 99.886719 55.195312 L 103.453125 55.195312 L 101.664062 50.410156 Z M 111.699219 59.722656 L 111.699219 48.628906 L 113.421875 48.628906 L 113.421875 59.726562 Z M 123.75 48.628906 C 126.203125 48.628906 127.527344 49.765625 127.527344 51.839844 C 127.527344 53.726562 126.140625 54.980469 123.96875 55.058594 L 127.480469 59.726562 L 125.347656 59.726562 L 121.957031 55.054688 L 121.082031 55.054688 L 121.082031 59.722656 L 119.359375 59.722656 L 119.359375 48.628906 Z M 121.082031 50.304688 L 121.082031 53.429688 L 123.703125 53.429688 C 125.085938 53.429688 125.734375 52.90625 125.734375 51.839844 C 125.734375 50.773438 125.050781 50.308594 123.703125 50.308594 Z M 140.765625 59.722656 L 133.144531 59.722656 L 133.144531 48.628906 L 134.863281 48.628906 L 134.863281 58.03125 L 140.765625 58.03125 Z M 145.542969 59.722656 L 145.542969 48.628906 L 147.269531 48.628906 L 147.269531 59.726562 Z M 160.585938 59.722656 L 154.640625 51.691406 L 154.640625 59.722656 L 152.917969 59.722656 L 152.917969 48.628906 L 154.46875 48.628906 L 160.421875 56.660156 L 160.421875 48.628906 L 162.144531 48.628906 L 162.144531 59.726562 Z M 176.183594 59.722656 L 168.40625 59.722656 L 168.40625 48.628906 L 176.085938 48.628906 L 176.085938 50.308594 L 170.128906 50.308594 L 170.128906 53.296875 L 175.878906 53.296875 L 175.878906 54.980469 L 170.128906 54.980469 L 170.128906 58.046875 L 176.183594 58.046875 Z M 186.042969 53.363281 L 185.304688 53.261719 C 183.917969 53.054688 183.085938 52.699219 183.085938 51.777344 C 183.085938 50.761719 184.0625 50.121094 185.488281 50.121094 C 186.660156 50.183594 187.824219 50.398438 188.945312 50.765625 L 188.945312 49.042969 C 187.832031 48.660156 186.667969 48.453125 185.496094 48.433594 C 183.1875 48.433594 181.289062 49.671875 181.289062 51.898438 C 181.289062 53.960938 182.867188 54.738281 184.449219 54.96875 L 185.28125 55.085938 C 186.84375 55.3125 187.683594 55.710938 187.683594 56.585938 C 187.683594 57.605469 186.589844 58.222656 185.191406 58.222656 C 183.710938 58.222656 182.121094 57.53125 181.382812 57.160156 L 181.382812 58.957031 C 182.5625 59.597656 183.871094 59.929688 185.199219 59.921875 C 187.503906 59.921875 189.472656 58.6875 189.472656 56.425781 C 189.476562 54.367188 187.769531 53.625 186.042969 53.371094 Z M 186.042969 53.363281 "/>
<path style=" stroke:none;fill-rule:nonzero;fill:rgb(1.960784%,7.843137%,27.45098%);fill-opacity:1;" d="M 0.0078125 1.167969 L 5.546875 1.167969 L 5.546875 13.660156 C 7.480469 11.570312 10.699219 10.3125 14.308594 10.3125 C 21.746094 10.3125 27.4375 15.835938 27.4375 23.648438 C 27.4375 31.417969 21.671875 36.867188 13.742188 36.867188 C 6.152344 36.871094 0.0078125 31.800781 0.0078125 22.085938 Z M 13.589844 31.496094 C 18.445312 31.496094 21.785156 28.257812 21.785156 23.574219 C 21.785156 19 18.632812 15.683594 13.894531 15.683594 C 9.1875 15.683594 5.738281 18.921875 5.738281 23.792969 C 5.738281 28.496094 8.925781 31.496094 13.589844 31.496094 Z M 42.722656 10.582031 C 44.421875 10.582031 46.117188 10.671875 47.804688 10.847656 L 47.804688 15.953125 C 46.363281 15.800781 44.582031 15.734375 43.597656 15.734375 C 38.738281 15.734375 37.335938 17.90625 37.335938 22.402344 L 37.335938 36.535156 L 31.796875 36.535156 L 31.796875 19.800781 C 31.796875 15.535156 34.644531 10.582031 42.722656 10.582031 Z M 63.285156 36.832031 C 54.898438 36.832031 51.410156 31.460938 51.410156 25.59375 L 51.410156 10.582031 L 56.945312 10.582031 L 56.945312 24.601562 C 56.945312 27.574219 57.324219 31.460938 63.269531 31.460938 C 68.921875 31.460938 69.597656 27.738281 69.597656 24.601562 L 69.597656 10.582031 L 75.136719 10.582031 L 75.136719 25.59375 C 75.15625 31.460938 71.628906 36.832031 63.285156 36.832031 Z M 90.066406 36.945312 C 86.613281 36.945312 82.867188 36.335938 80.25 35.308594 L 80.25 30.429688 C 82.210938 31.269531 86.167969 32.03125 89.628906 32.03125 C 93.003906 32.03125 95.128906 31.003906 95.128906 29.058594 C 95.128906 27.574219 93.988281 26.734375 88.1875 25.476562 C 83.253906 24.410156 80.117188 22.582031 80.117188 18.011719 C 80.117188 12.867188 84.136719 10.234375 91.039062 10.234375 C 93.355469 10.234375 96.804688 10.542969 99.574219 11.34375 L 99.574219 16.179688 C 97.175781 15.609375 93.769531 15.085938 91.230469 15.085938 C 88.15625 15.085938 85.804688 15.742188 85.804688 17.90625 C 85.804688 19.390625 87.398438 20.113281 92.480469 21.179688 C 97.832031 22.285156 100.828125 24.496094 100.828125 28.847656 C 100.800781 33.972656 96.550781 36.945312 90.066406 36.945312 Z M 114.949219 36.945312 C 111.496094 36.945312 107.753906 36.335938 105.132812 35.308594 L 105.132812 30.429688 C 107.097656 31.269531 111.050781 32.03125 114.515625 32.03125 C 117.890625 32.03125 120.015625 31.003906 120.015625 29.058594 C 120.015625 27.574219 118.878906 26.734375 113.074219 25.476562 C 108.144531 24.410156 105 22.582031 105 18.011719 C 105 12.867188 109.023438 10.234375 115.929688 10.234375 C 118.242188 10.234375 121.695312 10.542969 124.460938 11.34375 L 124.460938 16.179688 C 122.0625 15.609375 118.660156 15.085938 116.117188 15.085938 C 113.042969 15.085938 110.691406 15.742188 110.691406 17.90625 C 110.691406 19.390625 112.285156 20.113281 117.367188 21.179688 C 122.71875 22.285156 125.714844 24.496094 125.714844 28.847656 C 125.6875 33.972656 121.4375 36.945312 114.949219 36.945312 Z M 151.898438 30.25 L 151.898438 35.289062 C 149.585938 36.316406 146.855469 36.925781 143.628906 36.925781 C 134.144531 36.925781 129.289062 30.828125 129.289062 23.703125 C 129.289062 15.816406 134.523438 10.214844 142.640625 10.214844 C 148.75 10.214844 153.871094 14.101562 153.871094 19.703125 C 153.871094 23.589844 151.445312 25.839844 146.398438 25.839844 L 135.167969 25.839844 C 136.042969 29.648438 139.152344 31.753906 144.238281 31.753906 C 146.09375 31.726562 149.128906 31.269531 151.898438 30.25 Z M 146.398438 21.289062 C 147.726562 21.289062 148.558594 20.484375 148.558594 19.382812 C 148.558594 17.363281 146.359375 15.191406 142.71875 15.191406 C 139.078125 15.191406 135.925781 17.019531 135.132812 21.289062 Z M 163.8125 1.128906 L 163.8125 36.453125 L 158.273438 36.453125 L 158.273438 1.128906 Z M 178.71875 36.945312 C 175.265625 36.945312 171.519531 36.335938 168.902344 35.308594 L 168.902344 30.429688 C 170.867188 31.269531 174.820312 32.03125 178.273438 32.03125 C 181.648438 32.03125 183.769531 31.003906 183.769531 29.058594 C 183.769531 27.574219 182.632812 26.734375 176.828125 25.476562 C 171.898438 24.410156 168.757812 22.582031 168.757812 18.011719 C 168.757812 12.867188 172.777344 10.234375 179.683594 10.234375 C 181.996094 10.234375 185.449219 10.542969 188.21875 11.34375 L 188.21875 16.179688 C 185.820312 15.609375 182.414062 15.085938 179.871094 15.085938 C 176.800781 15.085938 174.449219 15.742188 174.449219 17.90625 C 174.449219 19.390625 176.042969 20.113281 181.125 21.179688 C 186.472656 22.285156 189.472656 24.496094 189.472656 28.847656 C 189.453125 33.972656 185.214844 36.945312 178.71875 36.945312 Z M 178.71875 36.945312 "/>
<path style=" stroke:none;fill-rule:nonzero;fill:rgb(89.803922%,0%,16.862745%);fill-opacity:1;" d="M 217.140625 58.457031 C 219.558594 58.457031 221.519531 56.492188 221.519531 54.066406 C 221.519531 51.640625 219.558594 49.675781 217.140625 49.675781 C 214.722656 49.675781 212.761719 51.640625 212.761719 54.066406 C 212.761719 56.492188 214.722656 58.457031 217.140625 58.457031 Z M 217.140625 58.457031 "/>
<path style=" stroke:none;fill-rule:nonzero;fill:rgb(89.803922%,0%,16.862745%);fill-opacity:1;" d="M 263.832031 58.363281 C 266.199219 58.363281 268.117188 56.441406 268.117188 54.066406 C 268.117188 51.695312 266.199219 49.773438 263.832031 49.773438 C 261.464844 49.773438 259.546875 51.695312 259.546875 54.066406 C 259.546875 56.441406 261.464844 58.363281 263.832031 58.363281 Z M 263.832031 58.363281 "/>
<path style=" stroke:none;fill-rule:nonzero;fill:rgb(89.803922%,0%,16.862745%);fill-opacity:1;" d="M 240.488281 61.304688 C 244.476562 61.304688 247.710938 58.066406 247.710938 54.066406 C 247.710938 50.070312 244.476562 46.828125 240.488281 46.828125 C 236.5 46.828125 233.265625 50.070312 233.265625 54.066406 C 233.265625 58.066406 236.5 61.304688 240.488281 61.304688 Z M 240.488281 61.304688 "/>
<path style=" stroke:none;fill-rule:nonzero;fill:rgb(89.803922%,0%,16.862745%);fill-opacity:1;" d="M 217.140625 36.8125 C 220.527344 36.8125 223.273438 34.058594 223.273438 30.667969 C 223.273438 27.273438 220.527344 24.519531 217.140625 24.519531 C 213.753906 24.519531 211.007812 27.273438 211.007812 30.667969 C 211.007812 34.058594 213.753906 36.8125 217.140625 36.8125 Z M 217.140625 36.8125 "/>
<path style=" stroke:none;fill-rule:nonzero;fill:rgb(89.803922%,0%,16.862745%);fill-opacity:1;" d="M 263.832031 37.855469 C 267.792969 37.855469 271.003906 34.636719 271.003906 30.667969 C 271.003906 26.695312 267.792969 23.476562 263.832031 23.476562 C 259.871094 23.476562 256.660156 26.695312 256.660156 30.667969 C 256.660156 34.636719 259.871094 37.855469 263.832031 37.855469 Z M 263.832031 37.855469 "/>
<path style=" stroke:none;fill-rule:nonzero;fill:rgb(89.803922%,0%,16.862745%);fill-opacity:1;" d="M 240.488281 38.949219 C 245.054688 38.949219 248.753906 35.242188 248.753906 30.667969 C 248.753906 26.089844 245.054688 22.382812 240.488281 22.382812 C 235.921875 22.382812 232.222656 26.089844 232.222656 30.667969 C 232.222656 35.242188 235.921875 38.949219 240.488281 38.949219 Z M 240.488281 38.949219 "/>
<path style=" stroke:none;fill-rule:nonzero;fill:rgb(89.803922%,0%,16.862745%);fill-opacity:1;" d="M 263.832031 13.847656 C 267.460938 13.847656 270.398438 10.902344 270.398438 7.269531 C 270.398438 3.632812 267.460938 0.6875 263.832031 0.6875 C 260.207031 0.6875 257.265625 3.632812 257.265625 7.269531 C 257.265625 10.902344 260.207031 13.847656 263.832031 13.847656 Z M 263.832031 13.847656 "/>
<path style=" stroke:none;fill-rule:nonzero;fill:rgb(89.803922%,0%,16.862745%);fill-opacity:1;" d="M 240.488281 12.054688 C 243.125 12.054688 245.265625 9.910156 245.265625 7.269531 C 245.265625 4.625 243.125 2.480469 240.488281 2.480469 C 237.851562 2.480469 235.714844 4.625 235.714844 7.269531 C 235.714844 9.910156 237.851562 12.054688 240.488281 12.054688 Z M 240.488281 12.054688 "/>
<path style=" stroke:none;fill-rule:nonzero;fill:rgb(89.803922%,0%,16.862745%);fill-opacity:1;" d="M 217.140625 11.5625 C 219.507812 11.5625 221.425781 9.640625 221.425781 7.269531 C 221.425781 4.894531 219.507812 2.972656 217.140625 2.972656 C 214.773438 2.972656 212.855469 4.894531 212.855469 7.269531 C 212.855469 9.640625 214.773438 11.5625 217.140625 11.5625 Z M 217.140625 11.5625 "/>
</g>
</svg>
