<?xml version="1.0" encoding="UTF-8"?>
<svg xmlns="http://www.w3.org/2000/svg" xmlns:xlink="http://www.w3.org/1999/xlink" width="279px" height="83px" viewBox="0 0 279 83" version="1.1">
<g id="surface1">
<path style=" stroke:none;fill-rule:nonzero;fill:rgb(14.901961%,14.901961%,36.470588%);fill-opacity:1;" d="M 124.644531 46.085938 L 127.679688 42.921875 L 124.644531 39.769531 L 121.625 42.921875 Z M 105.804688 0.0078125 L 102.757812 3.171875 L 105.804688 6.324219 L 108.828125 3.171875 Z M 116.738281 46.085938 L 119.765625 42.921875 L 116.738281 39.769531 L 113.667969 42.921875 Z M 113.726562 0.0078125 L 110.691406 3.171875 L 113.726562 6.324219 L 116.792969 3.171875 Z M 181.804688 28.445312 L 171.121094 28.445312 L 171.121094 27.6875 C 171.121094 18.566406 178.203125 13.011719 181.804688 12.027344 Z M 263.328125 6.234375 L 263.328125 28.511719 C 263.328125 29.785156 263.203125 30.851562 262.757812 31.609375 C 262.207031 32.523438 261.242188 33.292969 259.394531 33.292969 C 257.550781 33.292969 256.574219 32.527344 256.015625 31.609375 C 255.566406 30.851562 255.433594 29.785156 255.433594 28.511719 L 255.433594 12.433594 L 250.199219 12.433594 L 250.199219 28.445312 L 243.652344 28.445312 L 243.652344 12.460938 L 238.460938 12.460938 L 238.460938 28.445312 L 231.917969 28.445312 L 231.917969 12.433594 L 226.71875 12.433594 L 226.71875 28.445312 L 206.644531 28.445312 C 200.855469 28.042969 199.5 24.949219 199.5 22.074219 C 199.5 18.03125 203.082031 16.472656 206.992188 16.472656 L 215.515625 16.472656 L 215.515625 12.433594 L 207.949219 12.433594 C 201.796875 12.433594 196.648438 14.96875 196.648438 21.371094 C 196.648438 25.539062 198.519531 27.425781 200.148438 28.445312 L 186.972656 28.445312 L 186.972656 8.597656 C 175.585938 10.015625 166.546875 18.527344 166.546875 32.507812 L 181.804688 32.507812 L 181.804688 37.425781 C 181.804688 39.320312 182.015625 42.945312 179.257812 43.464844 L 179.257812 45.640625 C 181.179688 45.433594 184.292969 44.144531 185.667969 41.808594 C 186.742188 39.996094 186.972656 38.34375 186.972656 34.535156 L 186.972656 32.507812 L 250.859375 32.507812 C 251.078125 33.050781 251.355469 33.5625 251.683594 34.046875 C 253.28125 36.25 256.101562 37.238281 259.398438 37.238281 C 262.65625 37.238281 265.449219 36.25 267.042969 34.046875 C 268.367188 32.171875 268.515625 30.320312 268.515625 28.070312 L 268.515625 6.234375 Z M 275.796875 6.234375 L 280.957031 6.234375 L 280.957031 32.507812 L 275.796875 32.507812 Z M 149.980469 12.339844 L 142.519531 12.339844 L 142.519531 16.417969 L 148.773438 16.417969 C 153.601562 16.417969 158.554688 16.652344 158.554688 22.253906 C 158.554688 27.238281 154.902344 28.359375 148.375 28.359375 L 135.835938 28.359375 L 135.835938 32.429688 L 149.308594 32.429688 C 157.433594 32.429688 161.414062 29.9375 161.414062 22.28125 C 161.414062 14.570312 156.691406 12.339844 149.980469 12.339844 M 111.523438 28.445312 L 100.917969 28.445312 L 100.917969 27.761719 C 100.917969 18.695312 107.90625 12.980469 111.523438 12 Z M 124.644531 28.445312 C 124.644531 29.742188 124.5 30.789062 124.050781 31.574219 C 123.5 32.488281 122.554688 33.234375 120.699219 33.234375 C 118.875 33.234375 117.890625 32.488281 117.335938 31.574219 C 116.878906 30.789062 116.738281 29.742188 116.738281 28.445312 L 116.738281 8.582031 C 104.347656 9.753906 96.328125 19.546875 96.328125 32.507812 L 112.15625 32.507812 C 112.382812 33.023438 112.664062 33.519531 112.992188 33.984375 C 114.566406 36.1875 117.382812 37.175781 120.660156 37.175781 C 123.96875 37.175781 126.734375 36.1875 128.308594 33.984375 C 129.660156 32.128906 129.828125 30.285156 129.828125 28.011719 L 129.828125 10.679688 L 124.644531 10.679688 Z M 174.355469 82.6875 C 169.234375 82.6875 165.382812 81.617188 163.019531 79.347656 C 160.917969 77.394531 159.953125 75.175781 159.953125 70.738281 L 159.953125 52.214844 L 165.503906 52.214844 L 165.503906 71.523438 C 165.503906 74.367188 165.941406 75.988281 167.300781 77.449219 C 168.765625 79.027344 171.289062 79.882812 174.355469 79.882812 C 177.402344 79.882812 179.910156 79.027344 181.378906 77.449219 C 182.734375 75.988281 183.15625 74.367188 183.15625 71.523438 L 183.15625 52.214844 L 188.746094 52.214844 L 188.746094 70.738281 C 188.746094 75.175781 187.757812 77.394531 185.679688 79.347656 C 183.304688 81.617188 179.429688 82.6875 174.355469 82.6875 M 210.632812 79.464844 C 209.519531 79.464844 207.101562 79.34375 206.070312 78.503906 C 205.222656 77.773438 205.203125 76.585938 205.203125 74.800781 L 205.203125 54.105469 C 213.75 53.34375 223.214844 55.871094 223.214844 67.128906 C 223.214844 76.144531 217.359375 79.464844 210.632812 79.464844 M 209.554688 51.597656 C 206.820312 51.667969 200.082031 51.964844 195.167969 53.382812 L 195.628906 55.59375 C 196.957031 55.222656 198.203125 54.953125 199.640625 54.71875 L 199.640625 82.050781 C 207.503906 82.207031 210.878906 82.179688 215 81.703125 C 222.230469 80.832031 229.054688 75.394531 229.054688 67.042969 C 229.054688 55.28125 218.550781 51.421875 209.554688 51.597656 M 236.738281 52.21875 L 242.324219 52.21875 L 242.324219 82.054688 L 236.738281 82.054688 Z M 133.484375 69.085938 C 136.324219 69.085938 141.640625 69.46875 145.421875 72.480469 L 138.625 58.554688 Z M 156.3125 82.054688 L 149.988281 82.054688 C 147.757812 77.527344 141.933594 70.964844 132.269531 71.601562 L 127.183594 82.054688 L 123.238281 82.054688 L 138.816406 51.734375 L 140.796875 51.734375 Z M 258.269531 69.085938 C 261.113281 69.085938 266.421875 69.472656 270.195312 72.488281 L 263.410156 58.558594 Z M 281.097656 82.058594 L 274.769531 82.058594 C 272.535156 77.53125 266.714844 70.976562 257.046875 71.605469 L 251.964844 82.058594 L 248.023438 82.058594 L 263.589844 51.734375 L 265.585938 51.734375 Z M 118.84375 53.234375 C 117.242188 52.390625 113.25 51.152344 109.125 51.222656 C 101.839844 51.410156 96.984375 54.382812 96.933594 59.753906 C 96.902344 60.816406 97.136719 62.167969 97.785156 63.324219 C 101.308594 69.367188 115.90625 68.375 115.90625 74.847656 C 115.90625 76.699219 114.140625 79.742188 109.125 79.742188 C 103.671875 79.742188 99.519531 77.21875 97.527344 75.65625 L 96.09375 80.03125 C 97.785156 80.90625 102.339844 82.566406 108.875 82.566406 C 111.808594 82.566406 115.136719 81.773438 117.574219 79.875 C 119.9375 78.019531 121.003906 75.734375 121.003906 72.90625 C 121.003906 62.195312 102.339844 64.886719 102.339844 58.160156 C 102.339844 57.050781 102.953125 56.25 103.167969 55.976562 C 104.183594 54.664062 106.398438 53.871094 109.199219 53.871094 C 111.808594 53.871094 114.554688 54.75 117.28125 56.921875 Z M 118.84375 53.234375 "/>
<path style=" stroke:none;fill-rule:nonzero;fill:rgb(69.019608%,57.254902%,33.333333%);fill-opacity:1;" d="M 75.917969 60.363281 L 75.8125 60.535156 C 69.058594 72.296875 56.390625 80.21875 41.855469 80.21875 C 20.238281 80.21875 2.710938 62.683594 2.710938 41.050781 C 2.710938 33.960938 4.597656 27.308594 7.898438 21.570312 L 7.984375 21.417969 L 7.941406 21.269531 L 7.796875 21.324219 L 7.699219 21.460938 C 7.113281 22.304688 6.570312 23.191406 6.046875 24.089844 C -4.699219 42.863281 1.925781 66.875 20.847656 77.730469 C 39.765625 88.585938 63.828125 82.171875 74.5625 63.40625 C 75.089844 62.507812 75.574219 61.585938 76.011719 60.640625 L 76.097656 60.457031 L 76.050781 60.304688 Z M 75.917969 60.363281 "/>
<path style=" stroke:none;fill-rule:nonzero;fill:rgb(69.019608%,57.254902%,33.333333%);fill-opacity:1;" d="M 32.273438 10.777344 C 26.707031 11.964844 17.355469 17.691406 15.367188 27.199219 C 21.367188 20.109375 27.617188 16.386719 32.398438 15.515625 C 27.503906 19.179688 22.90625 27.730469 24.332031 33.722656 C 26.921875 27.355469 31.460938 21.125 35.617188 18.855469 C 33.261719 22.742188 32.492188 32.132812 34.746094 36.273438 C 35.273438 30.898438 36.96875 23.910156 39.644531 20.460938 L 40.441406 27.199219 L 39.527344 27.199219 L 40.488281 34.0625 L 39.726562 34.0625 L 40.523438 40.925781 L 39.867188 40.925781 L 40.875 47.785156 L 37.632812 49.445312 L 37.632812 49.679688 L 46.085938 49.679688 L 46.085938 49.445312 L 42.84375 47.785156 L 41.855469 48.550781 L 42.835938 47.785156 L 43.828125 40.925781 L 43.179688 40.925781 L 43.976562 34.0625 L 43.210938 34.0625 L 44.179688 27.199219 L 43.261719 27.199219 L 44.058594 20.460938 C 46.738281 23.910156 48.429688 30.898438 48.960938 36.273438 C 51.21875 32.132812 50.441406 22.742188 48.089844 18.855469 C 52.25 21.125 56.78125 27.355469 59.382812 33.722656 C 60.800781 27.730469 56.207031 19.183594 51.3125 15.515625 C 56.09375 16.386719 62.335938 20.109375 68.332031 27.199219 C 66.355469 17.691406 57.007812 11.964844 51.433594 10.777344 C 57.566406 10.167969 63.542969 12.132812 68.957031 14.765625 C 63.070312 7.972656 54.195312 5.503906 48.324219 6.179688 C 49.316406 5.128906 50.277344 4.570312 51.773438 4.125 C 49.292969 2.964844 45.4375 3.574219 43.933594 5.261719 C 43.933594 5.261719 43.65625 2.109375 41.859375 0.871094 C 40.046875 2.109375 39.78125 5.261719 39.78125 5.261719 C 38.269531 3.574219 34.417969 2.964844 31.941406 4.125 C 33.4375 4.570312 34.390625 5.128906 35.390625 6.179688 C 29.515625 5.503906 20.628906 7.972656 14.75 14.765625 C 20.179688 12.132812 26.148438 10.167969 32.273438 10.777344 "/>
<path style=" stroke:none;fill-rule:nonzero;fill:rgb(69.019608%,57.254902%,33.333333%);fill-opacity:1;" d="M 43.53125 54.574219 C 43.066406 54.878906 42.492188 55.265625 41.855469 55.703125 C 41.296875 55.324219 40.742188 54.945312 40.179688 54.574219 C 37.691406 52.898438 16.652344 38.8125 7.558594 48.777344 C 15.949219 45.445312 28.386719 51.738281 38.625 57.914062 C 36.0625 59.667969 33.140625 61.683594 30.664062 63.363281 C 26.730469 59.546875 25.273438 60.160156 24.917969 60.308594 C 24.535156 60.472656 24.261719 60.828125 24.246094 61.265625 C 24.238281 61.84375 24.679688 62.328125 25.242188 62.34375 C 25.804688 62.355469 26.28125 61.890625 26.289062 61.320312 L 26.269531 61.082031 C 27.355469 61.769531 28.371094 62.695312 30.914062 65.320312 C 33.496094 68 34.503906 68.738281 35.265625 69.183594 C 35.789062 69.492188 36.320312 69.566406 36.648438 69.539062 C 37.183594 69.515625 37.714844 69.128906 37.738281 68.527344 C 37.773438 67.925781 37.328125 67.429688 36.75 67.425781 C 36.183594 67.414062 35.699219 67.875 35.699219 68.472656 L 35.699219 68.574219 C 34.996094 68.0625 34.246094 67.140625 32.746094 65.519531 C 35.210938 64.109375 38.347656 62.078125 41.855469 59.890625 C 45.355469 62.078125 48.492188 64.109375 50.957031 65.519531 C 49.460938 67.140625 48.710938 68.0625 48 68.574219 L 48.003906 68.472656 C 48.003906 68.195312 47.894531 67.925781 47.699219 67.726562 C 47.5 67.53125 47.230469 67.421875 46.949219 67.425781 C 46.367188 67.429688 45.929688 67.925781 45.964844 68.527344 C 45.988281 69.128906 46.515625 69.515625 47.054688 69.539062 C 47.378906 69.566406 47.910156 69.492188 48.441406 69.183594 C 49.203125 68.738281 50.207031 68 52.796875 65.320312 C 55.332031 62.699219 56.351562 61.769531 57.4375 61.082031 L 57.414062 61.320312 C 57.429688 61.894531 57.902344 62.355469 58.457031 62.34375 C 59.019531 62.328125 59.46875 61.84375 59.460938 61.265625 C 59.445312 60.84375 59.179688 60.46875 58.789062 60.308594 C 58.433594 60.160156 56.972656 59.546875 53.039062 63.359375 C 50.566406 61.683594 47.632812 59.667969 45.078125 57.914062 C 55.320312 51.738281 67.757812 45.445312 76.148438 48.777344 C 67.050781 38.8125 46.015625 52.898438 43.53125 54.574219 "/>
<path style=" stroke:none;fill-rule:nonzero;fill:rgb(69.019608%,57.254902%,33.333333%);fill-opacity:1;" d="M 20.050781 67.699219 C 19.726562 67.558594 19.394531 67.375 19.21875 67.347656 C 19.101562 67.335938 18.996094 67.359375 18.921875 67.441406 C 18.855469 67.523438 18.828125 67.699219 18.902344 67.84375 C 18.949219 67.945312 19.070312 68.140625 19.398438 68.425781 C 20.773438 69.621094 23.539062 70.691406 30.835938 66.609375 C 30.609375 66.386719 30.382812 66.148438 30.144531 65.90625 C 29.652344 65.398438 29.222656 64.957031 28.84375 64.574219 C 24.992188 67.011719 21.9375 68.472656 20.050781 67.699219 M 63.65625 67.699219 C 61.769531 68.472656 58.714844 67.011719 54.863281 64.574219 C 54.476562 64.957031 54.058594 65.398438 53.558594 65.90625 C 53.324219 66.148438 53.09375 66.386719 52.878906 66.609375 C 60.15625 70.691406 62.933594 69.621094 64.308594 68.425781 C 64.640625 68.140625 64.757812 67.949219 64.804688 67.84375 C 64.882812 67.699219 64.859375 67.523438 64.78125 67.441406 C 64.714844 67.359375 64.609375 67.335938 64.492188 67.347656 C 64.320312 67.375 63.984375 67.558594 63.65625 67.699219 "/>
</g>
</svg>
