<?xml version="1.0" encoding="UTF-8"?>
<svg xmlns="http://www.w3.org/2000/svg" xmlns:xlink="http://www.w3.org/1999/xlink" width="279px" height="44px" viewBox="0 0 279 44" version="1.1">
<g id="surface1">
<path style=" stroke:none;fill-rule:nonzero;fill:rgb(100%,100%,100%);fill-opacity:1;" d="M 16.054688 22.484375 C 17.882812 15.605469 15.796875 8.394531 10.8125 4.574219 C 4.023438 8.882812 0.109375 16.980469 1.523438 25.421875 C 1.988281 28.210938 3 30.777344 4.421875 33.023438 C 9.730469 31.542969 14.394531 28.734375 16.054688 22.484375 M 25.21875 42.339844 C 36.425781 40.453125 43.980469 29.820312 42.097656 18.589844 C 40.53125 9.246094 32.929688 2.433594 23.964844 1.492188 C 22.15625 1.300781 20.285156 1.355469 18.402344 1.667969 C 16.167969 2.046875 14.082031 2.773438 12.183594 3.78125 C 22.0625 7.140625 27.371094 12.246094 27.738281 17.476562 C 27.917969 20.703125 26.421875 23.039062 24.457031 24.941406 L 38.421875 23.964844 C 38.816406 23.9375 38.9375 24.398438 38.460938 24.535156 L 5.152344 34.109375 C 8.542969 38.789062 13.808594 41.90625 19.65625 42.519531 C 21.464844 42.707031 23.335938 42.660156 25.21875 42.339844 M 24.09375 0.261719 C 35.0625 1.410156 43.617188 10.699219 43.621094 22 C 43.628906 34.070312 33.867188 43.863281 21.820312 43.867188 C 9.773438 43.871094 0.0078125 34.085938 0.00390625 22.011719 C 0 9.9375 9.761719 0.148438 21.804688 0.144531 C 22.578125 0.144531 23.339844 0.1875 24.09375 0.261719 "/>
<path style=" stroke:none;fill-rule:nonzero;fill:rgb(78.039216%,3.921569%,4.705882%);fill-opacity:1;" d="M 1.523438 25.421875 C 1.988281 28.210938 3 30.777344 4.421875 33.023438 C 9.730469 31.542969 14.394531 28.734375 16.054688 22.484375 C 17.882812 15.605469 15.796875 8.394531 10.8125 4.574219 C 4.023438 8.882812 0.109375 16.984375 1.523438 25.421875 M 42.097656 18.589844 C 43.980469 29.820312 36.425781 40.453125 25.21875 42.339844 C 23.335938 42.660156 21.464844 42.707031 19.65625 42.519531 C 13.808594 41.90625 8.542969 38.789062 5.152344 34.109375 L 38.460938 24.535156 C 38.9375 24.398438 38.816406 23.9375 38.421875 23.964844 L 24.457031 24.941406 C 26.421875 23.039062 27.917969 20.703125 27.738281 17.476562 C 27.371094 12.246094 22.0625 7.140625 12.183594 3.78125 C 14.082031 2.773438 16.167969 2.046875 18.402344 1.667969 C 20.285156 1.355469 22.15625 1.300781 23.964844 1.492188 C 32.929688 2.433594 40.53125 9.246094 42.097656 18.589844 "/>
<path style=" stroke:none;fill-rule:nonzero;fill:rgb(0%,0%,0%);fill-opacity:1;" d="M 156.585938 30.578125 L 156.585938 23.390625 L 149.394531 23.390625 L 149.394531 30.578125 L 145.449219 30.578125 L 145.449219 13.457031 L 149.394531 13.457031 L 149.394531 20.277344 L 156.585938 20.277344 L 156.585938 13.457031 L 160.5625 13.457031 L 160.5625 30.578125 Z M 156.585938 30.578125 "/>
<path style=" stroke:none;fill-rule:nonzero;fill:rgb(0%,0%,0%);fill-opacity:1;" d="M 71.527344 13.457031 L 71.527344 24.175781 C 71.527344 25.363281 71.703125 26.386719 72.046875 27.21875 C 72.386719 28.046875 72.878906 28.734375 73.515625 29.261719 C 74.15625 29.796875 74.929688 30.191406 75.808594 30.433594 C 76.707031 30.679688 77.71875 30.808594 78.816406 30.808594 C 79.914062 30.808594 80.917969 30.679688 81.792969 30.433594 C 82.660156 30.191406 83.394531 29.796875 83.984375 29.269531 C 84.574219 28.738281 85.039062 28.050781 85.363281 27.226562 C 85.6875 26.394531 85.851562 25.367188 85.851562 24.175781 L 85.851562 13.457031 L 82.160156 13.457031 L 82.160156 24.0625 C 82.160156 25.144531 81.890625 26.015625 81.363281 26.65625 C 80.824219 27.308594 79.96875 27.636719 78.816406 27.636719 C 77.6875 27.636719 76.835938 27.308594 76.285156 26.65625 C 75.75 26.019531 75.476562 25.148438 75.476562 24.0625 L 75.476562 13.457031 Z M 71.527344 13.457031 "/>
<path style=" stroke:none;fill-rule:nonzero;fill:rgb(0%,0%,0%);fill-opacity:1;" d="M 60.144531 30.582031 L 60.144531 16.65625 L 55.503906 16.65625 L 55.503906 13.457031 L 68.757812 13.457031 L 68.757812 14.992188 C 68.757812 15.910156 68.015625 16.65625 67.101562 16.65625 L 64.089844 16.65625 L 64.089844 30.582031 Z M 60.144531 30.582031 "/>
<path style=" stroke:none;fill-rule:nonzero;fill:rgb(0%,0%,0%);fill-opacity:1;" d="M 123.578125 13.457031 L 127.527344 13.457031 L 127.527344 30.578125 L 123.578125 30.578125 Z M 123.578125 13.457031 "/>
<path style=" stroke:none;fill-rule:nonzero;fill:rgb(0%,0%,0%);fill-opacity:1;" d="M 110.433594 22.59375 L 110.566406 22.765625 L 115.609375 29.277344 C 116.25 30.105469 117.21875 30.582031 118.265625 30.582031 L 121.410156 30.582031 L 114.183594 21.375 L 114.078125 21.238281 L 114.183594 21.101562 L 120.125 13.449219 L 116.015625 13.449219 L 110.570312 20.832031 L 110.433594 21.011719 L 110.433594 13.449219 L 106.484375 13.449219 L 106.484375 30.574219 L 110.433594 30.574219 Z M 110.433594 22.59375 "/>
<path style=" stroke:none;fill-rule:nonzero;fill:rgb(0%,0%,0%);fill-opacity:1;" d="M 93.445312 21.292969 L 95.746094 21.292969 C 96.574219 21.292969 97.207031 21.066406 97.621094 20.617188 C 98.035156 20.171875 98.242188 19.597656 98.242188 18.902344 C 98.242188 18.191406 98.039062 17.609375 97.636719 17.164062 C 97.230469 16.710938 96.59375 16.484375 95.746094 16.484375 L 93.445312 16.484375 Z M 101.339844 30.578125 C 100.167969 30.578125 99.066406 29.953125 98.460938 28.953125 L 95.390625 23.871094 L 93.445312 23.871094 L 93.445312 30.578125 L 89.5 30.578125 L 89.5 13.457031 L 96.535156 13.457031 C 98.339844 13.457031 99.757812 13.929688 100.738281 14.863281 C 101.71875 15.792969 102.21875 17.066406 102.21875 18.648438 C 102.21875 19.453125 102.003906 20.269531 101.582031 21.070312 C 101.167969 21.859375 100.429688 22.503906 99.390625 22.988281 L 99.164062 23.09375 L 103.957031 30.578125 Z M 101.339844 30.578125 "/>
<path style=" stroke:none;fill-rule:nonzero;fill:rgb(0%,0%,0%);fill-opacity:1;" d="M 130.765625 29.851562 L 130.765625 26.570312 C 132.023438 27.148438 133.640625 27.726562 135.316406 27.726562 C 137.242188 27.726562 138.21875 27.066406 138.21875 25.796875 C 138.21875 24.308594 136.90625 24.144531 134.285156 23.011719 C 132.496094 22.210938 130.792969 20.96875 130.792969 18.101562 C 130.792969 14.765625 133.335938 13.191406 136.851562 13.191406 C 138.722656 13.191406 140.3125 13.632812 141.207031 13.964844 L 141.207031 17.164062 C 140.3125 16.75 138.722656 16.253906 137.128906 16.253906 C 135.398438 16.253906 134.589844 16.886719 134.589844 17.992188 C 134.589844 19.148438 135.566406 19.507812 137.324219 20.171875 C 139.585938 21.300781 142.210938 21.796875 142.210938 25.660156 C 142.210938 28.996094 139.558594 30.816406 136.015625 30.816406 C 133.835938 30.816406 132.105469 30.429688 130.765625 29.851562 "/>
<path style=" stroke:none;fill-rule:nonzero;fill:rgb(0%,0%,0%);fill-opacity:1;" d="M 252.695312 30.578125 L 252.695312 13.457031 L 263.390625 13.457031 L 263.390625 15.007812 C 263.390625 15.914062 262.652344 16.652344 261.75 16.652344 L 256.640625 16.652344 L 256.640625 20.335938 L 262.378906 20.335938 L 262.378906 23.195312 L 256.640625 23.195312 L 256.640625 27.382812 L 263.390625 27.382812 L 263.390625 30.578125 Z M 252.695312 30.578125 "/>
<path style=" stroke:none;fill-rule:nonzero;fill:rgb(0%,0%,0%);fill-opacity:1;" d="M 213.667969 30.578125 L 213.667969 13.457031 L 215.585938 13.457031 C 216.703125 13.457031 217.613281 14.367188 217.613281 15.488281 L 217.613281 27.492188 L 223.914062 27.492188 L 223.914062 30.578125 Z M 213.667969 30.578125 "/>
<path style=" stroke:none;fill-rule:nonzero;fill:rgb(0%,0%,0%);fill-opacity:1;" d="M 189.234375 30.574219 L 189.234375 13.464844 L 193.183594 13.464844 L 193.179688 30.574219 Z M 189.234375 30.574219 "/>
<path style=" stroke:none;fill-rule:nonzero;fill:rgb(0%,0%,0%);fill-opacity:1;" d="M 200.746094 21.292969 L 203.046875 21.292969 C 203.878906 21.292969 204.507812 21.0625 204.925781 20.617188 C 205.335938 20.171875 205.546875 19.59375 205.546875 18.902344 C 205.546875 18.191406 205.339844 17.605469 204.9375 17.160156 C 204.53125 16.710938 203.894531 16.480469 203.046875 16.480469 L 200.746094 16.480469 Z M 208.640625 30.574219 C 207.472656 30.574219 206.367188 29.953125 205.765625 28.953125 L 202.695312 23.867188 L 200.746094 23.867188 L 200.746094 30.574219 L 196.800781 30.574219 L 196.800781 13.457031 L 203.835938 13.457031 C 205.644531 13.457031 207.058594 13.929688 208.042969 14.863281 C 209.023438 15.792969 209.519531 17.066406 209.519531 18.648438 C 209.519531 19.453125 209.308594 20.265625 208.882812 21.070312 C 208.46875 21.855469 207.730469 22.5 206.695312 22.984375 L 206.464844 23.09375 L 211.257812 30.574219 Z M 208.640625 30.574219 "/>
<path style=" stroke:none;fill-rule:nonzero;fill:rgb(0%,0%,0%);fill-opacity:1;" d="M 175.667969 24.339844 L 177.21875 20.011719 C 177.5625 19.039062 177.90625 18.011719 178.136719 17.253906 L 178.191406 17.253906 C 178.394531 18.039062 178.738281 19.011719 179.082031 20.011719 L 180.574219 24.339844 Z M 180.542969 13.453125 L 176.011719 13.453125 L 169.570312 30.578125 L 172.414062 30.578125 C 173.136719 30.578125 173.773438 30.117188 174 29.429688 L 174.660156 27.417969 L 181.585938 27.417969 L 182.601562 30.578125 L 186.878906 30.578125 Z M 180.542969 13.453125 "/>
<path style=" stroke:none;fill-rule:nonzero;fill:rgb(0%,0%,0%);fill-opacity:1;" d="M 266.558594 29.851562 L 266.558594 26.570312 C 267.816406 27.148438 269.433594 27.726562 271.109375 27.726562 C 273.035156 27.726562 274.011719 27.066406 274.011719 25.796875 C 274.011719 24.308594 272.699219 24.144531 270.078125 23.011719 C 268.292969 22.210938 266.585938 20.972656 266.585938 18.101562 C 266.585938 14.765625 269.128906 13.191406 272.644531 13.191406 C 274.515625 13.191406 276.105469 13.632812 277 13.964844 L 277 17.164062 C 276.105469 16.75 274.515625 16.253906 272.925781 16.253906 C 271.195312 16.253906 270.382812 16.890625 270.382812 17.992188 C 270.382812 19.148438 271.359375 19.507812 273.117188 20.171875 C 275.378906 21.300781 278.003906 21.796875 278.003906 25.660156 C 278.003906 28.996094 275.351562 30.816406 271.808594 30.816406 C 269.628906 30.816406 267.898438 30.429688 266.558594 29.851562 "/>
<path style=" stroke:none;fill-rule:nonzero;fill:rgb(0%,0%,0%);fill-opacity:1;" d="M 234.015625 13.457031 L 236.464844 13.457031 C 237.625 13.457031 238.703125 14.058594 239.320312 15.046875 L 244.082031 22.71875 C 244.621094 23.570312 245.242188 24.699219 245.613281 25.492188 L 245.699219 25.492188 C 245.640625 24.722656 245.613281 23.652344 245.613281 22.882812 L 245.613281 13.457031 L 249.070312 13.457031 L 249.070312 30.578125 L 244.742188 30.578125 L 238.949219 21.316406 C 238.410156 20.464844 237.84375 19.449219 237.445312 18.679688 L 237.390625 18.679688 C 237.417969 19.421875 237.476562 20.300781 237.476562 21.125 L 237.476562 30.578125 L 234.015625 30.578125 Z M 234.015625 13.457031 "/>
<path style=" stroke:none;fill-rule:nonzero;fill:rgb(0%,0%,0%);fill-opacity:1;" d="M 226.457031 30.574219 L 226.457031 13.464844 L 230.402344 13.464844 L 230.402344 30.574219 Z M 226.457031 30.574219 "/>
</g>
</svg>
