<?xml version="1.0" encoding="UTF-8"?>
<svg xmlns="http://www.w3.org/2000/svg" xmlns:xlink="http://www.w3.org/1999/xlink" width="279px" height="128px" viewBox="0 0 279 128" version="1.1">
<defs>
<linearGradient id="linear0" gradientUnits="userSpaceOnUse" x1="64.9993" y1="60" x2="64.9993" y2="-0.000000000132786" gradientTransform="matrix(2.130769,0,0,2.133333,0,0)">
<stop offset="0" style="stop-color:rgb(8.627451%,9.803922%,59.607843%);stop-opacity:1;"/>
<stop offset="0.129" style="stop-color:rgb(26.666667%,11.764706%,57.647059%);stop-opacity:1;"/>
<stop offset="0.266" style="stop-color:rgb(43.137255%,13.333333%,56.078431%);stop-opacity:1;"/>
<stop offset="0.407" style="stop-color:rgb(56.470588%,14.509804%,54.901961%);stop-opacity:1;"/>
<stop offset="0.549" style="stop-color:rgb(67.058824%,15.686275%,53.72549%);stop-opacity:1;"/>
<stop offset="0.694" style="stop-color:rgb(74.509804%,16.470588%,52.941176%);stop-opacity:1;"/>
<stop offset="0.842" style="stop-color:rgb(78.823529%,16.862745%,52.54902%);stop-opacity:1;"/>
<stop offset="1" style="stop-color:rgb(80.392157%,16.862745%,52.54902%);stop-opacity:1;"/>
</linearGradient>
</defs>
<g id="surface1">
<path style=" stroke:none;fill-rule:nonzero;fill:url(#linear0);" d="M 203.550781 45.4375 L 230.3125 45.4375 L 198.621094 86.925781 L 171.855469 86.925781 Z M 201.539062 41.382812 L 167.855469 85.503906 C 167.050781 86.554688 166.917969 87.886719 167.507812 89.058594 C 168.078125 90.222656 169.285156 90.976562 170.558594 90.976562 L 200.632812 90.976562 L 234.589844 46.519531 C 235.332031 45.523438 235.4375 44.230469 234.910156 43.136719 C 234.367188 42.050781 233.261719 41.382812 232.015625 41.382812 Z M 105.339844 19.8125 C 105.511719 19.523438 105.832031 19.332031 106.191406 19.332031 L 123.742188 19.332031 L 126.261719 4.828125 C 126.347656 4.378906 126.742188 4.058594 127.210938 4.058594 L 143.636719 4.046875 C 143.9375 4.046875 144.179688 4.136719 144.351562 4.332031 C 144.53125 4.558594 144.621094 4.855469 144.578125 5.121094 L 142.945312 14.503906 L 220.15625 14.558594 C 220.574219 14.558594 220.875 14.8125 221.019531 15.054688 C 221.109375 15.234375 221.234375 15.597656 220.980469 15.945312 L 214.007812 25.058594 L 271.230469 25.042969 C 271.5625 25.042969 271.804688 25.253906 271.898438 25.441406 C 271.988281 25.574219 272.0625 25.855469 271.886719 26.113281 L 224.328125 88.441406 C 223.789062 89.117188 223.8125 90.839844 224.1875 91.578125 C 224.582031 92.320312 225.9375 93.378906 226.789062 93.378906 L 260.242188 93.414062 C 260.628906 93.414062 260.855469 93.613281 260.960938 93.734375 C 261.144531 93.945312 261.222656 94.222656 261.179688 94.492188 L 258.636719 109.058594 C 258.554688 109.5 258.15625 109.820312 257.683594 109.820312 L 130.410156 109.820312 L 128.320312 109.808594 C 128.476562 110.527344 128.535156 111.277344 128.535156 112.039062 C 128.535156 118.59375 123.234375 123.902344 116.679688 123.902344 C 110.128906 123.902344 104.820312 118.59375 104.820312 112.039062 C 104.820312 105.488281 110.128906 100.179688 116.679688 100.179688 C 121.152344 100.179688 125.050781 102.664062 127.078125 106.324219 L 178.949219 38.257812 C 179.785156 36.5 179.367188 35.871094 178.917969 34.835938 C 178.585938 34.054688 177.332031 33.253906 175.96875 33.265625 L 139.660156 33.265625 L 130.382812 86.292969 C 130.292969 86.707031 129.894531 87 129.449219 87 L 113.015625 87 C 112.632812 87 112.398438 86.792969 112.289062 86.671875 C 112.1875 86.554688 112.007812 86.292969 112.078125 85.914062 L 122.15625 28.355469 L 81.164062 108.785156 C 80.796875 109.429688 80.113281 109.847656 79.34375 109.847656 L 65.386719 109.914062 C 64.886719 109.914062 64.476562 109.558594 64.433594 109.132812 L 60.582031 50.703125 L 30.296875 108.800781 C 29.933594 109.441406 29.234375 109.855469 28.484375 109.855469 L 14.324219 109.84375 C 13.839844 109.84375 13.425781 109.488281 13.386719 109.027344 L 4.148438 20.332031 C 4.128906 20.054688 4.222656 19.78125 4.390625 19.59375 C 4.5625 19.421875 4.808594 19.328125 5.109375 19.328125 L 24.140625 19.328125 C 24.660156 19.328125 25.097656 19.75 25.097656 20.308594 L 27.953125 78.167969 L 55.949219 19.828125 C 56.097656 19.523438 56.4375 19.328125 56.792969 19.328125 L 74.148438 19.253906 C 74.625 19.253906 75.054688 19.617188 75.085938 20.042969 L 77.90625 78.351562 Z M 126.402344 0 C 124.441406 0 122.777344 1.402344 122.425781 3.347656 L 120.335938 15.273438 L 105.574219 15.273438 C 104.070312 15.273438 102.722656 16.085938 101.957031 17.492188 L 81.179688 61.851562 L 79.117188 18.96875 C 78.9375 16.890625 77.183594 15.273438 75.085938 15.273438 L 56.191406 15.273438 C 54.683594 15.273438 53.292969 16.113281 52.574219 17.5 L 31.210938 62.027344 L 29.101562 19.3125 C 29.101562 17.082031 27.285156 15.273438 25.058594 15.273438 L 4.046875 15.273438 C 2.898438 15.273438 1.832031 15.722656 1.0625 16.535156 C 0.316406 17.355469 -0.0664062 18.496094 0.0117188 19.6875 L 9.429688 110.273438 C 9.65625 112.320312 11.386719 113.867188 13.453125 113.867188 L 29.074219 113.875 C 30.992188 113.875 32.738281 112.828125 33.640625 111.125 L 57.496094 65.378906 L 60.4375 110.273438 C 60.671875 112.320312 62.398438 113.867188 64.453125 113.867188 L 79.957031 113.875 C 81.867188 113.875 83.628906 112.816406 84.53125 111.105469 L 113.519531 54.207031 L 107.90625 86.296875 C 107.691406 87.476562 108.023438 88.679688 108.785156 89.613281 C 109.550781 90.523438 110.683594 91.054688 111.878906 91.054688 L 130.253906 91.054688 C 132.164062 91.054688 133.785156 89.722656 134.214844 87.804688 L 143.054688 37.308594 L 174.621094 37.308594 L 126.917969 99.804688 C 124.0625 97.414062 120.449219 96.109375 116.710938 96.109375 C 107.941406 96.109375 100.777344 103.265625 100.777344 112.054688 C 100.777344 120.847656 107.941406 128 116.710938 128 C 124.773438 128 131.632812 121.835938 132.5625 113.875 L 258.5 113.867188 C 260.484375 113.867188 262.152344 112.457031 262.472656 110.515625 L 265.359375 94.101562 C 265.558594 92.921875 265.222656 91.714844 264.460938 90.808594 C 263.703125 89.902344 262.578125 89.378906 261.371094 89.378906 L 228.710938 89.351562 L 276.332031 26.976562 C 277.140625 25.769531 277.214844 24.308594 276.542969 23.054688 C 275.890625 21.785156 274.578125 20.988281 273.148438 20.988281 L 222.191406 20.988281 L 225.421875 16.769531 C 226.269531 15.5 226.351562 13.957031 225.636719 12.609375 C 224.925781 11.289062 223.558594 10.445312 222.078125 10.445312 L 147.75 10.445312 L 148.769531 4.726562 C 148.960938 3.554688 148.609375 2.3125 147.832031 1.394531 C 147.074219 0.496094 145.988281 0 144.769531 0 Z M 126.402344 0 "/>
</g>
</svg>
