<?xml version="1.0" encoding="UTF-8"?>
<svg xmlns="http://www.w3.org/2000/svg" xmlns:xlink="http://www.w3.org/1999/xlink" width="279px" height="65px" viewBox="0 0 279 65" version="1.1">
<g id="surface1">
<path style=" stroke:none;fill-rule:nonzero;fill:rgb(80.392157%,12.54902%,14.901961%);fill-opacity:1;" d="M 84.542969 9.558594 C 88.96875 9.558594 92.574219 7.4375 92.574219 4.789062 C 92.574219 2.140625 88.96875 0.0234375 84.542969 0.0234375 C 80.117188 0.0234375 76.511719 2.140625 76.511719 4.789062 C 76.511719 7.4375 80.117188 9.558594 84.542969 9.558594 "/>
<path style=" stroke:none;fill-rule:nonzero;fill:rgb(80.392157%,12.54902%,14.901961%);fill-opacity:1;" d="M 219.917969 9.558594 C 224.339844 9.558594 227.949219 7.4375 227.949219 4.789062 C 227.949219 2.140625 224.339844 0.0234375 219.917969 0.0234375 C 215.492188 0.0234375 211.886719 2.140625 211.886719 4.789062 C 211.886719 7.4375 215.492188 9.558594 219.917969 9.558594 "/>
<path style=" stroke:none;fill-rule:nonzero;fill:rgb(80.392157%,12.54902%,14.901961%);fill-opacity:1;" d="M 75.984375 17.789062 L 94.257812 17.789062 L 94.257812 64.976562 L 75.984375 64.976562 Z M 75.984375 17.789062 "/>
<path style=" stroke:none;fill-rule:nonzero;fill:rgb(80.392157%,12.54902%,14.901961%);fill-opacity:1;" d="M 208.710938 17.789062 L 227.949219 17.789062 L 227.949219 64.976562 L 208.710938 64.976562 Z M 208.710938 17.789062 "/>
<path style=" stroke:none;fill-rule:nonzero;fill:rgb(80.392157%,12.54902%,14.901961%);fill-opacity:1;" d="M 273.152344 60.160156 L 273.152344 46.679688 C 273.152344 44.753906 272.191406 38.976562 268.34375 38.976562 C 268.34375 38.976562 273.152344 37.050781 273.152344 33.199219 L 273.152344 23.566406 C 273.152344 19.378906 269.304688 13.9375 264.496094 13.9375 L 143.308594 13.9375 C 140.421875 13.9375 135.613281 16.25 135.613281 20.679688 L 135.613281 25.492188 C 135.613281 26.601562 134.941406 28.140625 133.691406 28.382812 C 131.527344 28.769531 130.804688 26.3125 130.324219 25.492188 C 129.84375 24.675781 125.371094 18.417969 125.035156 17.789062 C 124.699219 17.164062 121.332031 13.988281 117.339844 13.988281 C 113.347656 13.988281 59.632812 13.9375 56.648438 13.9375 C 50.976562 13.9375 50.976562 20.390625 50.976562 22.605469 L 50.976562 57.273438 C 50.976562 58.332031 50.015625 60.160156 48.089844 60.160156 C 46.167969 60.160156 45.203125 58.234375 45.203125 57.273438 L 45.203125 13.988281 L 27.890625 13.988281 L 27.890625 57.273438 C 27.890625 58.234375 26.929688 60.160156 25.007812 60.160156 C 23.082031 60.160156 22.121094 58.234375 22.121094 57.273438 L 22.121094 22.605469 C 22.121094 20.679688 22.121094 13.9375 16.351562 13.9375 L 0 13.9375 L 0 14.902344 C 0 14.902344 4.808594 14.277344 4.808594 18.753906 L 4.808594 53.417969 C 4.808594 55.347656 6.734375 64.976562 15.390625 64.976562 L 57.707031 64.976562 C 66.363281 64.976562 68.289062 55.347656 68.289062 53.417969 L 68.289062 20.679688 C 68.289062 15.914062 72.136719 15.863281 72.136719 15.863281 L 97.140625 15.863281 C 97.71875 15.863281 100.988281 15.914062 100.988281 20.679688 L 100.988281 53.417969 C 100.988281 55.347656 102.914062 64.011719 97.140625 64.011719 L 97.140625 64.976562 L 117.339844 64.976562 L 117.339844 42.828125 L 102.335938 15.914062 L 106.183594 15.816406 L 135.613281 64.976562 L 153.890625 64.976562 L 153.890625 20.679688 C 153.890625 17.789062 154.851562 15.914062 157.734375 15.914062 C 160.621094 15.914062 173.125 15.863281 176.972656 15.863281 C 180.820312 15.863281 184.667969 19.089844 184.667969 23.566406 C 184.667969 28.046875 184.714844 36.085938 184.714844 37.050781 C 184.714844 38.011719 184.667969 39.9375 182.261719 39.9375 C 179.859375 39.9375 179.859375 37.050781 179.859375 37.050781 L 179.859375 23.566406 C 179.859375 21.640625 176.972656 17.789062 174.085938 17.789062 L 161.582031 17.789062 L 161.582031 37.050781 L 157.734375 38.976562 L 157.734375 53.417969 L 161.582031 55.347656 L 161.582031 64.976562 L 179.859375 64.976562 L 179.859375 55.347656 C 179.859375 55.347656 179.859375 52.457031 182.261719 52.457031 C 184.667969 52.457031 184.714844 55.347656 184.714844 55.347656 L 184.714844 57.273438 C 184.714844 60.160156 186.589844 64.976562 192.359375 64.976562 L 206.789062 64.976562 L 206.789062 64.011719 C 206.789062 64.011719 202.941406 64.976562 202.941406 60.160156 L 202.941406 31.273438 C 202.941406 26.121094 200.007812 15.863281 192.359375 15.863281 C 192.359375 15.863281 226.984375 15.914062 227.949219 15.914062 C 228.910156 15.914062 232.757812 15.863281 232.757812 20.679688 L 232.757812 64.976562 L 250.070312 64.976562 L 250.070312 47.640625 C 250.070312 45.378906 250.070312 43.789062 252.378906 43.789062 C 254.878906 43.789062 254.878906 45.714844 254.878906 47.640625 L 254.878906 57.273438 C 254.878906 60.160156 256.800781 64.976562 261.609375 64.976562 L 277 64.976562 L 277 64.011719 C 277 64.011719 273.152344 64.011719 273.152344 60.160156 M 254.878906 34.640625 C 254.878906 35.992188 253.820312 37.050781 252.472656 37.050781 C 251.128906 37.050781 250.070312 35.992188 250.070312 34.640625 L 250.070312 20.199219 C 250.070312 18.847656 251.128906 17.789062 252.472656 17.789062 C 253.820312 17.789062 254.878906 18.847656 254.878906 20.199219 Z M 254.878906 34.640625 "/>
</g>
</svg>
