<?xml version="1.0" encoding="UTF-8"?>
<svg xmlns="http://www.w3.org/2000/svg" xmlns:xlink="http://www.w3.org/1999/xlink" width="279px" height="41px" viewBox="0 0 279 41" version="1.1">
<defs>
<linearGradient id="linear0" gradientUnits="userSpaceOnUse" x1="190.944" y1="781.4805" x2="206.401" y2="781.4805" gradientTransform="matrix(1.306604,0,0,1.309904,0.628013,-994.217252)">
<stop offset="0" style="stop-color:rgb(21.176471%,33.72549%,80%);stop-opacity:1;"/>
<stop offset="0.35" style="stop-color:rgb(18.823529%,29.803922%,69.803922%);stop-opacity:1;"/>
<stop offset="0.72" style="stop-color:rgb(15.686275%,23.137255%,50.196078%);stop-opacity:1;"/>
</linearGradient>
<linearGradient id="linear1" gradientUnits="userSpaceOnUse" x1="193.1394" y1="769.2701" x2="210.601" y2="781.4969" gradientTransform="matrix(1.306604,0,0,1.309904,0.628013,-994.217252)">
<stop offset="0.3" style="stop-color:rgb(90.196078%,10.980392%,13.72549%);stop-opacity:1;"/>
<stop offset="0.8" style="stop-color:rgb(76.470588%,8.627451%,10.980392%);stop-opacity:1;"/>
</linearGradient>
<linearGradient id="linear2" gradientUnits="userSpaceOnUse" x1="203.9645" y1="767.6895" x2="213.9482" y2="774.6802" gradientTransform="matrix(1.306604,0,0,1.309904,0.628013,-994.217252)">
<stop offset="0" style="stop-color:rgb(99.215686%,73.72549%,6.666667%);stop-opacity:1;"/>
<stop offset="0.25" style="stop-color:rgb(98.823529%,70.588235%,8.235294%);stop-opacity:1;"/>
<stop offset="0.8" style="stop-color:rgb(97.254902%,61.960784%,10.980392%);stop-opacity:1;"/>
</linearGradient>
</defs>
<g id="surface1">
<path style=" stroke:none;fill-rule:nonzero;fill:rgb(18.823529%,29.803922%,69.803922%);fill-opacity:1;" d="M 77.71875 32.746094 C 76.542969 33.007812 75.105469 33.140625 73.667969 33.140625 C 69.484375 33.140625 68.570312 31.699219 68.570312 28.949219 L 68.570312 13.097656 L 60.730469 13.097656 L 60.730469 29.867188 C 60.730469 37.332031 64.914062 40.738281 73.273438 40.738281 C 77.324219 40.738281 81.113281 39.953125 85.6875 38.902344 L 85.6875 13.097656 L 77.71875 13.097656 Z M 103.195312 33.535156 C 100.320312 33.535156 99.929688 32.222656 99.929688 29.996094 L 99.929688 19.78125 L 106.464844 19.78125 L 106.464844 13.097656 L 99.929688 13.097656 L 99.929688 5.238281 L 92.089844 5.238281 L 92.089844 13.097656 L 88.171875 13.097656 L 88.171875 19.648438 L 92.089844 19.648438 L 92.089844 30.390625 C 92.089844 35.105469 93.003906 40.605469 100.84375 40.605469 C 103.195312 40.605469 105.15625 40.082031 107.378906 39.429688 L 106.59375 32.878906 C 105.417969 33.273438 104.371094 33.535156 103.195312 33.535156 Z M 20.75 18.730469 C 19.3125 18.207031 17.613281 17.683594 15.914062 17.160156 C 11.34375 15.851562 9.90625 15.195312 9.90625 13.097656 C 9.90625 10.742188 11.601562 9.5625 15.785156 9.5625 C 19.183594 9.5625 22.1875 10.480469 25.191406 11.527344 L 26.890625 3.929688 C 23.363281 2.621094 20.097656 1.441406 16.046875 1.441406 C 6.636719 1.441406 1.410156 6.8125 1.410156 13.230469 C 1.410156 18.078125 3.503906 21.21875 8.207031 23.183594 C 9.511719 23.710938 11.210938 24.234375 12.910156 24.757812 C 18.003906 26.328125 19.574219 27.113281 19.574219 29.078125 C 19.574219 31.4375 17.613281 32.746094 13.5625 32.746094 C 9.90625 32.746094 6.507812 31.699219 2.980469 30.128906 L 1.152344 37.988281 C 5.070312 39.558594 8.859375 40.605469 13.5625 40.605469 C 23.230469 40.605469 28.199219 35.238281 28.199219 28.6875 C 28.199219 23.449219 25.191406 20.433594 20.75 18.730469 Z M 123.710938 11.789062 C 121.097656 11.789062 118.613281 12.445312 116.914062 12.96875 L 116.914062 0 L 109.074219 0 L 109.074219 40.605469 L 116.914062 40.605469 L 116.914062 20.304688 C 118.351562 19.78125 119.921875 19.253906 121.882812 19.253906 C 124.886719 19.253906 126.0625 20.433594 126.0625 23.316406 L 126.0625 40.605469 L 133.902344 40.605469 L 133.902344 22.398438 C 133.902344 15.195312 130.636719 11.789062 123.710938 11.789062 Z M 44.269531 11.65625 C 36.296875 11.65625 29.894531 17.289062 29.894531 26.066406 C 29.894531 34.84375 36.296875 40.738281 44.269531 40.738281 C 52.238281 40.738281 58.640625 34.972656 58.640625 26.066406 C 58.640625 17.160156 52.238281 11.65625 44.269531 11.65625 Z M 44.269531 32.878906 C 40.871094 32.878906 38.128906 30.390625 38.128906 25.9375 C 38.128906 21.484375 40.742188 19.125 44.269531 19.125 C 47.796875 19.125 50.410156 21.484375 50.410156 25.9375 C 50.410156 30.519531 47.664062 32.878906 44.269531 32.878906 Z M 220.269531 23.839844 C 219.09375 23.449219 217.917969 23.054688 216.480469 22.660156 C 213.734375 21.875 212.691406 21.484375 212.691406 20.304688 C 212.691406 19.125 213.734375 18.339844 216.21875 18.339844 C 218.832031 18.339844 221.183594 18.863281 223.796875 19.648438 L 225.101562 12.835938 C 222.226562 12.183594 219.484375 11.65625 216.347656 11.65625 C 208.902344 11.65625 204.851562 15.457031 204.851562 20.695312 C 204.851562 24.363281 206.679688 26.722656 210.339844 28.292969 C 211.382812 28.6875 212.558594 29.210938 213.996094 29.605469 C 216.871094 30.390625 218.308594 30.78125 218.308594 32.09375 C 218.308594 33.402344 216.609375 33.925781 214.257812 33.925781 C 211.382812 33.925781 208.769531 33.402344 206.027344 32.355469 L 204.851562 39.167969 C 208.246094 40.082031 211.382812 40.738281 214.910156 40.738281 C 222.75 40.738281 226.277344 36.675781 226.277344 31.570312 C 226.148438 28.03125 224.710938 25.414062 220.269531 23.839844 Z M 190.871094 11.65625 C 182.636719 11.65625 176.757812 17.421875 176.757812 26.589844 C 176.757812 35.105469 181.855469 40.738281 191 40.738281 C 195.050781 40.738281 198.316406 39.558594 201.714844 38.117188 L 200.539062 31.570312 C 197.925781 32.746094 195.3125 33.664062 192.175781 33.664062 C 187.472656 33.664062 185.511719 31.699219 185.25 28.816406 L 202.890625 28.816406 C 202.890625 28.816406 203.152344 25.675781 203.152344 25.019531 C 203.152344 17.550781 199.101562 11.65625 190.871094 11.65625 Z M 185.382812 23.578125 C 185.90625 21.21875 187.082031 18.207031 190.476562 18.207031 C 193.875 18.207031 194.921875 21.613281 194.921875 23.578125 Z M 241.695312 33.535156 C 238.820312 33.535156 238.429688 32.222656 238.429688 29.996094 L 238.429688 19.78125 L 244.964844 19.78125 L 244.964844 13.097656 L 238.429688 13.097656 L 238.429688 5.238281 L 230.589844 5.238281 L 230.589844 13.097656 L 226.539062 13.097656 L 226.539062 19.78125 L 230.589844 19.78125 L 230.589844 30.519531 C 230.589844 35.238281 231.765625 40.738281 239.605469 40.738281 C 241.957031 40.738281 243.917969 40.214844 246.140625 39.558594 L 245.222656 33.007812 C 243.917969 33.273438 242.871094 33.535156 241.695312 33.535156 Z M 246.921875 1.570312 C 244.964844 1.570312 243.527344 3.144531 243.394531 5.109375 C 243.265625 7.074219 244.964844 8.644531 246.792969 8.644531 C 248.753906 8.644531 250.320312 7.074219 250.320312 5.109375 C 250.320312 3.144531 248.882812 1.570312 246.921875 1.570312 Z M 246.921875 7.992188 C 245.355469 7.992188 244.179688 6.8125 244.179688 5.109375 C 244.179688 3.40625 245.355469 2.226562 247.054688 2.226562 C 248.621094 2.226562 249.929688 3.40625 249.796875 5.109375 C 249.667969 6.8125 248.492188 7.992188 246.921875 7.992188 Z M 247.316406 5.238281 C 247.96875 5.109375 248.359375 4.847656 248.359375 4.191406 C 248.359375 3.535156 247.835938 3.011719 247.054688 3.011719 L 245.746094 3.011719 L 245.746094 7.074219 L 246.53125 7.074219 L 246.53125 5.371094 C 246.792969 5.371094 246.921875 5.5 247.054688 5.761719 L 247.96875 7.074219 L 248.882812 7.074219 L 248.097656 5.761719 C 247.578125 5.5 247.445312 5.371094 247.316406 5.238281 Z M 246.792969 4.847656 L 246.398438 4.847656 L 246.398438 3.667969 L 246.921875 3.667969 C 247.445312 3.667969 247.578125 3.929688 247.578125 4.191406 C 247.578125 4.714844 247.183594 4.847656 246.792969 4.847656 Z M 169.441406 13.097656 L 164.476562 28.164062 L 159.511719 13.097656 L 152.714844 13.097656 L 147.621094 28.164062 L 142.65625 13.097656 L 134.164062 13.097656 L 143.960938 40.605469 L 151.148438 40.605469 L 156.113281 25.675781 L 161.078125 40.605469 L 168.265625 40.605469 L 178.066406 13.097656 C 178.066406 13.097656 169.441406 13.097656 169.441406 13.097656 Z M 169.441406 13.097656 "/>
<path style=" stroke:none;fill-rule:nonzero;fill:rgb(80%,80%,80%);fill-opacity:1;" d="M 271.09375 11.527344 C 268.480469 11.527344 266.261719 12.445312 264.5625 13.359375 C 262.863281 12.445312 260.773438 11.527344 258.027344 11.527344 C 252.671875 11.527344 249.273438 14.933594 249.273438 20.957031 C 249.273438 28.164062 256.199219 35.238281 264.5625 41 C 272.925781 35.367188 279.847656 28.292969 279.847656 20.957031 C 279.847656 14.933594 276.320312 11.527344 271.09375 11.527344 Z M 271.09375 11.527344 "/>
<path style=" stroke:none;fill-rule:nonzero;fill:url(#linear0);" d="M 250.058594 21.089844 C 250.058594 28.425781 257.898438 35.367188 264.429688 39.953125 C 266.390625 38.640625 268.351562 37.070312 270.179688 35.5 C 261.425781 28.164062 253.0625 21.484375 250.1875 19.125 C 250.1875 19.648438 250.058594 20.304688 250.058594 21.089844 Z M 250.058594 21.089844 "/>
<path style=" stroke:none;fill-rule:nonzero;fill:url(#linear1);" d="M 278.410156 24.496094 C 272.007812 19.253906 268.21875 16.503906 264.039062 14.015625 C 262.863281 13.359375 260.640625 12.3125 258.160156 12.3125 C 255.808594 12.3125 253.71875 13.097656 252.28125 14.539062 C 251.367188 15.457031 250.710938 16.636719 250.449219 18.078125 C 253.71875 20.433594 262.734375 26.851562 271.75 34.058594 C 274.753906 31.175781 277.234375 27.902344 278.410156 24.496094 Z M 278.410156 24.496094 "/>
<path style=" stroke:none;fill-rule:nonzero;fill:url(#linear2);" d="M 276.714844 14.539062 C 275.277344 13.097656 273.316406 12.3125 270.964844 12.3125 C 268.480469 12.3125 266.652344 13.097656 265.214844 13.886719 C 267.699219 15.324219 273.054688 18.339844 278.671875 22.53125 C 278.804688 22.007812 278.804688 21.351562 278.804688 20.828125 C 278.933594 18.207031 278.152344 15.980469 276.714844 14.539062 Z M 276.714844 14.539062 "/>
</g>
</svg>
