<?xml version="1.0" encoding="UTF-8"?>
<svg xmlns="http://www.w3.org/2000/svg" xmlns:xlink="http://www.w3.org/1999/xlink" width="279px" height="233px" viewBox="0 0 279 233" version="1.1">
<g id="surface1">
<path style=" stroke:none;fill-rule:nonzero;fill:rgb(74.117647%,62.352941%,35.686275%);fill-opacity:1;" d="M 149.09375 20.617188 C 143.574219 20.617188 139.613281 20.570312 135.132812 22.839844 C 133.386719 23.691406 132.160156 24.589844 130.652344 25.679688 C 129.800781 26.296875 127.253906 28.566406 126.925781 29.464844 C 128.765625 31.925781 134.046875 36.847656 136.359375 38.882812 L 146.78125 47.445312 C 147.445312 46.691406 147.960938 43.09375 153.007812 40.394531 C 165.273438 33.867188 184.378906 38.789062 198.527344 32.398438 C 205.179688 29.371094 209.378906 26.390625 214.09375 21.136719 C 215.414062 19.671875 218.90625 14.796875 219.09375 12.667969 C 218.90625 12.714844 214.28125 15.128906 212.394531 15.835938 C 199.046875 20.902344 182.726562 21.847656 168.292969 21.421875 C 161.878906 21.230469 155.652344 20.617188 149.09375 20.617188 Z M 149.09375 20.617188 "/>
<path style=" stroke:none;fill-rule:nonzero;fill:rgb(74.117647%,62.352941%,35.686275%);fill-opacity:1;" d="M 125.605469 27.808594 C 126.21875 27.527344 129.09375 23.503906 134.945312 20.855469 C 139.660156 18.722656 143.246094 18.722656 149.09375 18.722656 C 154.472656 18.722656 159.566406 19.148438 164.660156 19.386719 C 176.359375 19.90625 184.28125 19.765625 195.839844 18.109375 C 205.792969 16.6875 217.867188 13.425781 224.1875 5.425781 C 225.132812 4.246094 226.925781 1.59375 227.160156 0.0820312 C 226.546875 0.316406 226.21875 0.789062 225.746094 1.121094 C 218.199219 6.847656 206.832031 7.933594 197.539062 8.644531 C 185.460938 9.542969 173.246094 7.699219 162.019531 6.183594 C 156.59375 5.476562 150.980469 4.621094 145.605469 3.675781 C 140.652344 2.777344 133.292969 1.453125 128.621094 3.25 C 122.066406 5.757812 118.007812 14.132812 121.78125 22.082031 C 122.585938 23.550781 124.472656 26.769531 125.605469 27.808594 Z M 223.8125 174.261719 C 224.472656 171.660156 225.980469 171.945312 227.445312 171.945312 L 239.332031 171.945312 C 241.546875 171.945312 243.105469 171.519531 242.820312 174.308594 Z M 217.585938 173.882812 L 213.621094 173.882812 C 213.71875 172.605469 216.21875 166.453125 216.21875 165.652344 L 209.894531 165.554688 L 207.113281 173.835938 L 191.734375 173.835938 C 191.832031 172.371094 193.527344 169.058594 193.480469 168.109375 L 186.265625 168.109375 L 181.832031 181.265625 L 175.746094 181.3125 C 175.605469 183.539062 175.320312 185.382812 176.78125 186.847656 C 178.859375 188.929688 184.09375 188.789062 187.019531 185.523438 C 188.292969 184.058594 188.71875 182.542969 189.332031 180.792969 L 258.386719 180.746094 L 260.980469 173.03125 C 261.878906 170.570312 262.773438 167.875 263.574219 165.320312 C 264.378906 162.859375 265.320312 160.113281 266.167969 157.605469 C 266.546875 156.421875 268.667969 150.648438 268.667969 149.847656 C 267.394531 149.847656 263.386719 149.609375 262.492188 149.941406 C 261.972656 150.601562 258.953125 160.160156 258.339844 161.914062 L 254.28125 173.929688 L 249.472656 173.929688 C 249.613281 171.707031 251.640625 169.578125 249.800781 167.164062 C 248.433594 165.414062 244.894531 166.027344 242.539062 166.027344 C 240.886719 166.027344 229.425781 165.839844 228.105469 166.21875 C 227.445312 166.40625 227.113281 166.691406 226.5 166.832031 C 226.59375 166.078125 228.859375 159.5 229.28125 158.363281 C 229.707031 157.273438 232.019531 150.460938 232.066406 149.847656 L 225.792969 149.847656 Z M 78.574219 176.769531 C 77.207031 179.941406 73.152344 179.5625 74.28125 176.628906 C 75.460938 173.503906 79.847656 173.835938 78.574219 176.769531 Z M 52.679688 180.746094 L 68.105469 180.792969 C 68.574219 181.832031 68.480469 183.207031 70.367188 184.4375 C 73.621094 186.519531 78.292969 184.484375 80.980469 181.929688 C 81.21875 181.691406 81.40625 181.457031 81.6875 181.171875 C 82.160156 180.699219 82.113281 180.746094 82.914062 180.746094 L 118.480469 180.746094 C 118.953125 179.75 119.425781 178 119.800781 176.914062 L 123.765625 165.367188 C 124.660156 162.574219 125.554688 160.304688 126.359375 157.699219 C 126.78125 156.421875 128.90625 150.839844 128.90625 149.847656 L 122.632812 149.847656 C 121.453125 152.78125 119.707031 158.503906 118.574219 161.816406 L 114.992188 172.371094 C 114.894531 172.652344 114.847656 172.890625 114.753906 173.175781 C 114.566406 173.648438 114.707031 173.554688 114.378906 173.835938 C 113.246094 174.167969 101.832031 173.980469 99.660156 173.929688 C 100.039062 171.1875 101.925781 171.046875 104.140625 171.046875 L 109.992188 171.046875 C 110.367188 170.335938 112.160156 165.082031 112.253906 164.230469 C 110.179688 164.324219 112.207031 164.894531 108.386719 164.894531 L 99.425781 164.894531 C 95.226562 164.894531 94.847656 167.308594 93.667969 170.902344 C 93.480469 171.519531 92.960938 173.316406 92.632812 173.835938 L 84.847656 173.929688 C 84.707031 169.863281 81.734375 167.78125 77.585938 168.679688 C 74.046875 169.484375 72.066406 171.566406 70.132812 173.835938 L 61.3125 173.882812 C 61.59375 172.085938 69.28125 151.078125 69.332031 149.847656 L 63.054688 149.796875 C 62.679688 150.554688 62.019531 152.730469 61.734375 153.632812 C 60.652344 157.179688 52.679688 179.847656 52.679688 180.746094 Z M 148.8125 49.246094 C 149.378906 49.8125 150.507812 50.710938 151.167969 51.28125 C 155.320312 54.875 162.347656 61.59375 166.027344 65.757812 C 166.453125 66.234375 166.6875 66.707031 167.253906 66.988281 C 167.347656 60.128906 170.273438 57.148438 175.839844 54.734375 C 177.019531 54.214844 178.007812 53.644531 179.378906 53.125 C 189.753906 49.054688 201.59375 44.183594 207.632812 34.292969 C 208.574219 32.730469 210.460938 29.039062 210.652344 26.769531 C 210.039062 27.003906 208.8125 28.378906 207.773438 29.132812 C 206.734375 29.890625 205.839844 30.601562 204.660156 31.3125 C 202.539062 32.589844 200.039062 33.867188 197.539062 34.8125 C 182.585938 40.632812 164.707031 35.378906 153.386719 43.1875 C 151.640625 44.324219 149.1875 46.972656 148.8125 49.246094 Z M 32.679688 164.894531 L 24.140625 164.894531 C 21.832031 164.894531 20.746094 164.894531 19.425781 166.453125 C 18.480469 167.542969 16.640625 173.882812 15.980469 175.824219 C 15.460938 177.339844 14.753906 179.183594 14.378906 180.699219 L 5.699219 180.699219 C 5.792969 179.230469 7.492188 175.636719 7.492188 174.640625 C 3.007812 175.445312 -1.707031 183.867188 2.492188 187.179688 C 3.953125 188.316406 5.746094 188.980469 7.960938 188.980469 C 13.621094 188.980469 17.019531 187.371094 19.945312 184.011719 C 21.3125 182.449219 21.832031 180.128906 22.492188 178.144531 C 23.199219 176.011719 23.953125 173.882812 24.660156 171.753906 L 29.046875 171.707031 C 29 172.796875 26.21875 179.5625 26.167969 180.746094 C 32.773438 180.699219 39.234375 180.554688 45.886719 180.554688 C 49.945312 180.554688 49.425781 179.375 50.792969 175.492188 C 51.21875 174.261719 51.640625 172.9375 52.066406 171.753906 C 52.347656 170.902344 53.292969 168.726562 53.199219 168.015625 L 47.492188 168.015625 L 45.179688 174.40625 L 34.707031 174.5 C 34.894531 173.175781 38.386719 164.230469 38.667969 162.480469 C 38.007812 162.714844 36.925781 163.757812 36.121094 164.183594 C 34.992188 164.796875 34.28125 164.894531 32.679688 164.894531 Z M 157.253906 180.652344 L 148.574219 180.699219 C 148.71875 178.996094 150.039062 176.488281 150.414062 174.734375 C 147.914062 174.6875 142.820312 180.082031 143.90625 184.71875 C 144.425781 187.039062 146.121094 187.84375 148.246094 188.601562 C 151.878906 189.878906 157.960938 188.410156 161.265625 185.667969 C 162.960938 184.246094 163.765625 182.921875 164.566406 180.601562 C 165.085938 179.136719 168.621094 168.914062 168.667969 168.253906 L 161.5 168.207031 C 161.40625 168.347656 157.394531 179.800781 157.253906 180.652344 Z M 122.492188 180.746094 C 123.292969 180.746094 128.433594 180.886719 128.71875 180.601562 C 129 180.175781 139.140625 150.367188 139.1875 149.847656 L 132.914062 149.847656 C 132.492188 150.554688 131.878906 152.683594 131.546875 153.632812 C 131.074219 154.910156 130.699219 156.140625 130.226562 157.464844 C 129.378906 159.972656 122.445312 179.988281 122.492188 180.746094 Z M 262.300781 180.746094 L 268.574219 180.699219 C 270.414062 175.539062 272.019531 170.570312 273.8125 165.320312 C 274.1875 164.230469 278.953125 150.601562 279 149.796875 L 272.726562 149.796875 L 264.847656 172.84375 C 264.472656 174.027344 262.300781 179.988281 262.300781 180.746094 Z M 168.480469 180.746094 L 174.753906 180.746094 L 179.992188 165.367188 C 180.605469 163.617188 185.179688 150.414062 185.179688 149.847656 L 178.90625 149.847656 C 176.121094 157.511719 173.765625 165.414062 171.027344 172.890625 C 170.554688 174.214844 170.179688 175.398438 169.707031 176.722656 C 169.425781 177.667969 168.527344 179.941406 168.480469 180.746094 Z M 168.480469 180.746094 "/>
<path style=" stroke:none;fill-rule:nonzero;fill:rgb(74.117647%,62.352941%,35.686275%);fill-opacity:1;" d="M 97.679688 160.066406 C 97.492188 159.40625 97.394531 158.980469 97.820312 158.503906 C 98.105469 158.175781 98.859375 157.9375 99.28125 158.363281 C 99.800781 158.929688 99.425781 160.730469 97.679688 160.066406 Z M 95.554688 160.066406 C 94.378906 160.445312 93.621094 160.539062 92.253906 160.632812 C 91.972656 161.109375 91.546875 162.621094 91.453125 163.285156 C 93.292969 163.285156 95.980469 162.859375 97.773438 162.574219 C 99.519531 162.289062 101.121094 161.722656 101.546875 159.453125 C 102.445312 154.863281 95.886719 154.152344 95.554688 160.066406 Z M 51.121094 159.261719 C 47.113281 160.730469 48.433594 167.023438 52.394531 165.460938 C 56.074219 163.996094 55.179688 157.75 51.121094 159.261719 Z M 155.460938 163.804688 C 151.027344 164.65625 151.453125 170.996094 155.414062 170.335938 C 159.378906 169.71875 159.1875 163.09375 155.460938 163.804688 Z M 10.507812 190.351562 C 9.660156 190.777344 9.519531 190.777344 8.953125 191.628906 C 8.574219 192.242188 8.292969 192.953125 8.386719 193.851562 C 8.71875 197.449219 14 196.40625 13.71875 192.386719 C 13.667969 190.871094 12.207031 189.546875 10.507812 190.351562 Z M 206.265625 183.632812 C 202.773438 184.578125 203.339844 190.351562 206.925781 189.359375 C 210.273438 188.457031 210.039062 182.636719 206.265625 183.632812 Z M 3.667969 190.304688 C 0.226562 191.535156 1.027344 197.117188 4.566406 195.933594 C 8.105469 194.800781 7.253906 189.027344 3.667969 190.304688 Z M 199.378906 183.632812 C 195.886719 184.484375 196.40625 190.398438 200.039062 189.359375 C 203.199219 188.457031 203.199219 182.683594 199.378906 183.632812 Z M 199.378906 183.632812 "/>
<path style=" stroke:none;fill-rule:nonzero;fill:rgb(70.588235%,70.196078%,70.196078%);fill-opacity:1;" d="M 144.332031 119.796875 C 146.21875 119.277344 154.472656 113.648438 156.3125 112.179688 C 157.632812 111.140625 158.765625 110.191406 159.945312 109.199219 C 163.765625 105.933594 168.953125 100.160156 170.980469 94.007812 C 174.566406 83.125 168.292969 73.472656 162.019531 66.042969 C 159.894531 63.535156 156.5 59.890625 154.09375 57.621094 C 150.320312 54.023438 145.839844 50.191406 141.925781 46.832031 C 139.472656 44.75 137.113281 42.761719 134.894531 40.773438 C 132.300781 38.457031 130.273438 36.421875 128.199219 34.386719 C 124.800781 30.980469 119.28125 24.96875 118.199219 18.15625 C 117.207031 12.195312 119.472656 7.792969 123.71875 4.621094 C 125.507812 3.25 125.792969 3.296875 127.300781 2.445312 L 127.867188 1.972656 C 120.460938 1.027344 110.746094 3.015625 104.800781 5.523438 C 98.953125 7.984375 93.339844 12.429688 91.972656 19.625 C 90.226562 28.851562 96.265625 37.605469 100.792969 43.851562 C 101.59375 44.988281 102.632812 46.3125 103.765625 47.636719 C 104.332031 48.296875 104.753906 48.867188 105.320312 49.480469 C 108.152344 52.699219 113.859375 59.183594 116.546875 61.785156 L 122.960938 68.789062 C 127.347656 73.566406 132.820312 78.773438 136.832031 83.503906 C 140.507812 87.808594 144.992188 93.109375 147.160156 98.503906 C 149.234375 103.710938 149.332031 110.285156 147.113281 115.585938 C 146.78125 116.390625 146.359375 117.195312 145.933594 117.8125 L 144.800781 119.183594 C 144.378906 119.609375 144.613281 119.230469 144.332031 119.796875 Z M 144.332031 119.796875 "/>
<path style=" stroke:none;fill-rule:nonzero;fill:rgb(70.588235%,70.196078%,70.196078%);fill-opacity:1;" d="M 80.273438 44.9375 C 80.273438 54.261719 82.253906 60.460938 86.832031 68.03125 C 90.367188 73.898438 94.425781 79.007812 98.292969 84.6875 C 102.773438 91.3125 105.605469 94.292969 108.621094 102.480469 C 111.832031 111.089844 113.246094 119.371094 113.007812 129.121094 C 121.027344 128.976562 129.234375 127.273438 135.367188 124.152344 C 140.933594 121.359375 146.167969 115.539062 146.167969 107.683594 C 146.167969 101.058594 144.140625 97.699219 140.980469 93.109375 C 138.765625 89.84375 133.386719 83.269531 130.652344 80.476562 L 110.792969 59.183594 C 109.945312 58.28125 109.378906 57.527344 108.574219 56.816406 C 108.105469 56.390625 107.914062 56.105469 107.492188 55.679688 C 107.160156 55.253906 106.6875 54.875 106.359375 54.496094 C 99.472656 46.691406 90.605469 36.375 89.519531 25.347656 C 89.09375 20.855469 90.085938 20.332031 90.792969 17.445312 C 84.707031 23.835938 80.273438 35.429688 80.273438 44.9375 Z M 35.507812 232.65625 L 45.179688 232.703125 L 49.472656 216.660156 C 49.707031 215.714844 49.945312 214.863281 50.179688 213.964844 C 50.320312 213.492188 50.699219 211.644531 51.027344 211.265625 C 51.3125 211.785156 53.527344 230.667969 53.667969 232.703125 L 62.066406 232.703125 L 70.039062 221.914062 C 70.980469 220.589844 77.632812 211.503906 78.152344 211.21875 C 78.007812 212.449219 70.792969 231.425781 70.605469 232.65625 L 80.273438 232.703125 C 80.839844 230.382812 83.667969 221.628906 84.613281 218.742188 C 84.992188 217.558594 88.859375 205.589844 88.953125 204.6875 L 73.246094 204.6875 C 72.820312 205.445312 72.300781 206.15625 71.78125 206.914062 C 71.265625 207.671875 70.792969 208.332031 70.273438 209.089844 C 67.867188 212.542969 64.046875 217.890625 61.925781 221.25 C 61.359375 222.101562 61.453125 222.101562 60.980469 222.246094 C 60.414062 221.0625 59.894531 207.527344 59.472656 204.734375 L 44.945312 204.734375 C 43.765625 204.734375 44.234375 204.640625 43.199219 207.8125 C 40.699219 215.855469 37.820312 224.753906 35.507812 232.65625 Z M 158.054688 232.703125 C 158.527344 232.417969 158.621094 231.519531 158.765625 231.046875 C 159.800781 227.734375 166.832031 205.492188 166.925781 204.6875 L 157.300781 204.6875 C 156.6875 206.296875 156.167969 208.472656 155.699219 210.179688 L 152.632812 220.96875 C 152.394531 221.769531 151.40625 225.886719 150.933594 226.21875 C 150.652344 225.933594 150.652344 225.460938 150.554688 224.988281 L 148.007812 210.128906 C 147.726562 208.425781 147.492188 206.441406 147.066406 204.785156 L 130.746094 204.785156 L 122.160156 232.703125 L 131.78125 232.65625 L 134.945312 221.820312 C 135.414062 220.019531 135.980469 218.222656 136.5 216.425781 L 137.867188 211.597656 C 138.054688 211.21875 137.867188 211.359375 138.339844 211.21875 C 138.765625 213.820312 141.453125 231.804688 141.925781 232.703125 Z M 247.160156 211.21875 C 257.253906 211.21875 259.09375 210.226562 257.253906 215.523438 C 256.359375 218.082031 255.605469 218.695312 252.585938 218.742188 C 250.039062 218.789062 247.394531 218.789062 244.800781 218.742188 Z M 258.433594 221.914062 C 259.140625 221.535156 260.367188 221.394531 261.265625 221.15625 C 263.953125 220.351562 265.886719 218.933594 266.925781 216.234375 C 268.246094 212.828125 270.085938 207.953125 266.453125 205.964844 C 263.621094 204.40625 257.394531 204.6875 253.621094 204.6875 C 249.046875 204.6875 244.09375 204.5 239.519531 204.6875 L 230.746094 232.703125 L 240.367188 232.65625 C 241.265625 231.328125 242.019531 226.359375 242.867188 225.273438 C 244.613281 225.132812 251.121094 225.035156 252.207031 225.605469 C 254.566406 226.785156 252.394531 229.578125 251.832031 232.703125 L 261.5 232.65625 C 261.925781 230.949219 263.433594 226.929688 263.480469 225.746094 C 263.621094 222.246094 259.660156 222.339844 258.71875 222.054688 C 258.292969 221.914062 258.621094 222.054688 258.433594 221.914062 Z M 18.386719 211.078125 C 20.132812 210.933594 24.28125 210.839844 25.699219 211.503906 C 27.820312 212.496094 26.3125 215.761719 25.792969 217.371094 C 24.140625 222.574219 24.09375 225.839844 19 226.3125 C 17.207031 226.457031 12.960938 226.550781 11.546875 225.839844 C 9.566406 224.847656 10.933594 221.722656 11.453125 219.925781 C 12.019531 218.128906 12.679688 215.476562 13.480469 213.964844 C 14.519531 212.023438 15.652344 211.3125 18.386719 211.078125 Z M 37.066406 212.78125 C 38.007812 206.960938 33.859375 205.351562 28.90625 204.734375 C 24.519531 204.214844 17.726562 204.308594 13.621094 205.304688 C 9.09375 206.390625 5.839844 208.617188 4.09375 212.261719 C 3.246094 213.964844 0.460938 222.765625 0.132812 224.65625 C -0.8125 230.335938 3.527344 232.085938 8.433594 232.605469 C 12.960938 233.128906 19.234375 233.035156 23.574219 232.039062 C 28.152344 231 31.3125 228.726562 33.152344 225.132812 C 33.953125 223.570312 36.78125 214.578125 37.066406 212.78125 Z M 100.320312 222.339844 C 100.886719 221.296875 101.78125 220.210938 102.347656 219.3125 L 106.453125 213.253906 C 106.78125 212.6875 107.066406 212.355469 107.445312 211.738281 C 107.679688 211.359375 108.339844 210.554688 108.433594 210.367188 L 109.140625 222.433594 Z M 92.960938 232.75 C 93.574219 232.464844 95.886719 228.679688 96.5 227.921875 L 109.425781 227.921875 L 109.753906 232.75 L 119.660156 232.75 C 119.660156 230.761719 117.492188 205.113281 117.394531 204.878906 L 116.972656 204.734375 C 116.878906 204.734375 116.640625 204.734375 116.546875 204.734375 C 116.265625 204.734375 115.933594 204.734375 115.652344 204.734375 C 111.734375 204.734375 106.167969 204.59375 102.726562 204.734375 C 102.300781 205.539062 101.878906 205.917969 101.453125 206.535156 C 96.40625 213.917969 90.746094 221.769531 85.652344 229.152344 C 84.992188 230.097656 83.527344 231.898438 83.246094 232.75 C 83.199219 232.75 92.960938 232.75 92.960938 232.75 Z M 193.765625 222.386719 C 193.953125 221.867188 197.300781 216.945312 197.773438 216.28125 C 198.480469 215.289062 199.046875 214.34375 199.800781 213.300781 C 200.320312 212.589844 201.3125 210.792969 201.878906 210.367188 L 202.539062 222.386719 Z M 176.59375 232.75 C 179.613281 232.796875 182.726562 232.796875 185.746094 232.75 C 186.925781 232.75 186.878906 232.179688 188.105469 230.523438 C 188.765625 229.625 189.234375 228.773438 189.894531 227.921875 L 202.773438 227.921875 L 203.152344 232.65625 C 204.566406 233.035156 211.074219 232.703125 213.054688 232.75 L 210.746094 204.734375 L 198.953125 204.734375 C 196.972656 204.734375 196.265625 204.453125 195.699219 205.257812 L 189.332031 214.34375 C 188.8125 215.050781 176.878906 231.898438 176.59375 232.75 Z M 215.414062 232.703125 L 225.132812 232.75 L 233.859375 204.785156 L 224.1875 204.734375 Z M 215.414062 232.703125 "/>
</g>
</svg>
